<?xml version="1.0" standalone="no"?>
<!DOCTYPE svg PUBLIC "-//W3C//DTD SVG 1.1//EN" "http://www.w3.org/Graphics/SVG/1.1/DTD/svg11.dtd" >
<svg xmlns="http://www.w3.org/2000/svg">
<metadata></metadata>
<defs>
<font id="cursive_standardregular" horiz-adv-x="970" >
<font-face units-per-em="2048" ascent="1638" descent="-410" />
<missing-glyph horiz-adv-x="819" />
<glyph horiz-adv-x="2048" />
<glyph horiz-adv-x="2048" />
<glyph unicode="&#xd;" horiz-adv-x="272" d="M-92 12q0 39 26.5 64.5t65.5 25.5q18 0 39.5 20.5t43 50.5t41 60.5t30.5 49.5v-2l12 24l-2 -6q16 31 38.5 63.5t67.5 32.5q35 0 66 -25.5t31 -64.5l-5 -20q-18 -43 -56 -105.5t-87 -120t-106.5 -97.5t-112.5 -40q-39 0 -65.5 25.5t-26.5 64.5z" />
<glyph unicode=" "  horiz-adv-x="819" />
<glyph unicode="&#x09;" horiz-adv-x="819" />
<glyph unicode="&#xa0;" horiz-adv-x="819" />
<glyph unicode="!" horiz-adv-x="550" d="M113 80q0 59 43 100t100 41t101 -41t44 -100t-44 -101t-101 -42t-100 41.5t-43 101.5zM160 338v1204q0 39 26.5 65.5t65.5 26.5q35 0 65.5 -25.5t30.5 -66.5v-1204q0 -41 -30.5 -66.5t-65.5 -25.5q-39 0 -65.5 26.5t-26.5 65.5z" />
<glyph unicode="&#x22;" horiz-adv-x="501" d="M39 1130v259q0 39 26.5 64.5t65.5 25.5q45 0 76 -37q27 37 76 37q37 0 65.5 -26t28.5 -64v-259q0 -39 -29 -64.5t-65 -25.5q-49 0 -76 37q-31 -37 -76 -37q-39 0 -65.5 26t-26.5 64z" />
<glyph unicode="#" d="M23 573q0 39 26.5 66t65.5 27h129v122h-129q-39 0 -65.5 27t-26.5 66t26.5 65.5t65.5 26.5h129v119q0 39 26.5 65.5t65.5 26.5q37 0 65.5 -27t28.5 -65v-119h135v119q0 39 26.5 65.5t65.5 26.5q37 0 66 -27t29 -65v-119h125q37 0 65.5 -26.5t28.5 -65.5t-29 -66t-65 -27 h-125v-122h125q37 0 65.5 -27t28.5 -66q0 -37 -29 -65.5t-65 -28.5h-125v-121q0 -39 -29 -65.5t-66 -26.5q-39 0 -65.5 26.5t-26.5 65.5v121h-135v-121q0 -39 -28.5 -65.5t-65.5 -26.5q-39 0 -65.5 26.5t-26.5 65.5v121h-129q-39 0 -65.5 29t-26.5 65zM430 666h135v122h-135 v-122z" />
<glyph unicode="$" horiz-adv-x="464" d="M-92 317q0 10 19.5 59.5t37.5 96.5q14 35 20.5 47t10.5 23q-27 29 -44.5 62.5t-17.5 74.5q0 33 8.5 65.5t26 58t46 41t69.5 15.5q29 0 56.5 -11t48 -31.5t32.5 -46.5t12 -56q0 -51 -14 -97q4 -2 13.5 -5t13.5 -7q53 -25 108.5 -55.5t101.5 -70.5t75.5 -92t29.5 -122 q0 -78 -28.5 -140.5t-77.5 -108.5t-116 -70.5t-140 -24.5q-109 0 -181.5 66.5t-72.5 183.5q0 35 12 66q-23 10 -36 30.5t-13 48.5zM111 338q37 -2 65.5 -23.5t28.5 -66.5q0 -51 -22.5 -64.5t-49.5 -23.5q4 -27 22.5 -40.5t43.5 -13.5q72 0 124 43.5t52 116.5 q0 31 -20.5 56.5t-53.5 47t-70.5 40t-72.5 34.5q-2 0 -4 2q-10 -29 -20.5 -54t-22.5 -54zM154 444h4h-4z" />
<glyph unicode="%" horiz-adv-x="1140" d="M0 1384q0 55 23.5 106.5t62.5 90.5t91 62.5t108 23.5q57 0 109 -22.5t91 -61.5t61.5 -90.5t22.5 -108.5q0 -59 -20.5 -114.5t-58 -97.5t-90 -67.5t-115.5 -25.5t-115.5 25.5t-90.5 67.5t-58.5 97.5t-20.5 114.5zM186 1384q0 -45 27 -81.5t72 -36.5t71.5 36.5t26.5 81.5 q0 41 -28.5 70t-69.5 29t-70 -29t-29 -70zM195 16q94 246 192 492t197 487q14 33 26.5 65t26.5 64v-2q35 84 67.5 166t65.5 168q4 6 7 15.5t7 21.5l-2 -2q8 25 19.5 55.5t28 56t37 43t48.5 17.5q41 0 68 -28.5t27 -65.5l-4 -19q-98 -258 -199.5 -508.5t-206.5 -506.5 q-12 -29 -26.5 -63t-24.5 -64l-115 -287q-4 -6 -7 -15.5t-7 -21.5l2 2q-8 -25 -19.5 -55.5t-28 -56t-38 -43t-47.5 -17.5q-41 0 -67.5 30.5t-26.5 71.5zM635 225q0 55 23.5 107.5t62.5 91.5t91 62.5t108 23.5q57 0 109 -22.5t91 -61.5t61.5 -91.5t22.5 -109.5 q0 -59 -20.5 -114.5t-58.5 -97.5t-90 -67.5t-115 -25.5t-115.5 25.5t-90.5 67.5t-58.5 97.5t-20.5 114.5zM821 225q0 -43 26.5 -82t72.5 -39q45 0 71.5 39t26.5 82q0 41 -28.5 70t-69.5 29t-70 -29t-29 -70z" />
<glyph unicode="&#x26;" horiz-adv-x="1136" d="M-61 479q0 88 28.5 161t75.5 133.5t107.5 110.5t123.5 95q-14 33 -29.5 74t-27.5 81t-20.5 78.5t-8.5 69.5q0 59 18.5 117.5t55.5 105.5t89 77t120 30q66 0 120 -28t92 -74t59.5 -104t21.5 -120q0 -66 -22.5 -120t-59.5 -100t-83 -84t-93 -71q18 -41 37.5 -80.5 t40.5 -78.5q4 10 13 18t19 18q2 2 2 3q2 0 5 2q33 23 73.5 44t83.5 21t77 -14.5t65 -30.5q18 -10 34.5 -18.5t28.5 -8.5q33 0 54.5 10.5t37.5 20.5t25.5 17.5t34.5 7.5q37 0 65.5 -26.5t28.5 -65.5q0 -37 -29 -66q-35 -35 -80 -55.5t-94 -26.5q2 -16 2 -37v-35 q0 -96 -16.5 -178t-67.5 -166q25 -29 51.5 -51t61.5 -31q35 -10 57.5 -24t22.5 -66q0 -41 -29 -66.5t-66 -25.5q-61 0 -116.5 41t-96.5 84q-72 -59 -160.5 -92t-183.5 -33q-115 0 -215 44t-173.5 120t-116.5 177.5t-43 215.5zM125 479q0 -76 27.5 -143.5t75.5 -118.5 t114.5 -81t144.5 -30q63 0 120 22t104 62q-106 143 -193.5 297t-165.5 318q-43 -31 -84 -65.5t-72.5 -75.5t-51 -87.5t-19.5 -97.5zM375 1282q0 -35 17.5 -91t37.5 -108q53 41 100.5 92.5t47.5 110.5q0 49 -29 95t-78 46q-25 0 -42 -14t-29.5 -35.5t-18.5 -47t-6 -48.5z M655 618q39 -68 80 -134t88 -132q14 41 17.5 82t3.5 88q0 33 -1 64.5t-5 60.5l-4 2q-35 20 -54 25q0 -2 -8 -7t-14 -10q-23 -14 -44.5 -26.5t-45.5 -12.5h-13z" />
<glyph unicode="'" horiz-adv-x="354" d="M41 1130v256q0 39 26.5 65t65.5 26q37 0 65.5 -26t28.5 -65v-256q0 -39 -28.5 -64.5t-65.5 -25.5q-39 0 -65.5 26t-26.5 64z" />
<glyph unicode="(" horiz-adv-x="485" d="M-66 627q0 117 26 255t71 275t108.5 262t139.5 217q31 37 71 37q37 0 65.5 -28.5t28.5 -65.5q0 -25 -25.5 -70t-53.5 -86v2q-10 -16 -17.5 -29.5t-17.5 -29.5q-96 -170 -152.5 -358.5t-56.5 -380.5q0 -197 56 -385.5t153 -358.5q2 -4 12 -20.5t23 -36.5v2q29 -41 54 -87 t25 -69q0 -39 -28.5 -65.5t-65.5 -26.5q-45 0 -74 35l3 -2q-78 84 -140.5 211t-108.5 268t-71 281.5t-25 253.5z" />
<glyph unicode=")" horiz-adv-x="485" d="M41 -328q0 27 16 52q68 104 124.5 211.5t97 218t63.5 228.5t23 245t-23 243.5t-63.5 228t-97 218t-124.5 211.5q-16 25 -16 51q0 37 28.5 65.5t65.5 28.5q41 0 72 -37q76 -90 139.5 -215t109.5 -262t71.5 -276t25.5 -256q0 -113 -25.5 -253.5t-71.5 -281.5t-109.5 -268 t-139.5 -211l2 2q-29 -35 -74 -35q-37 0 -65.5 26.5t-28.5 65.5z" />
<glyph unicode="*" d="M125 1323q0 39 28.5 65.5t65.5 26.5q23 0 73 -25.5t97 -52.5v131q0 39 26.5 66t65.5 27q37 0 65.5 -27t28.5 -66v-131q25 12 50.5 26.5t49 26t42 18.5t28.5 7q37 0 66 -25.5t29 -64.5q0 -51 -49 -80l-113 -63q33 -16 59.5 -29.5t57.5 -30.5q49 -23 49 -78 q0 -39 -29 -65.5t-65 -26.5q-10 0 -29 7.5t-43.5 18.5t-51 25.5t-51.5 26.5v-139q0 -39 -28.5 -65.5t-65.5 -26.5q-39 0 -65.5 26.5t-26.5 65.5v129q-47 -27 -97 -51.5t-73 -24.5q-39 0 -65.5 26.5t-26.5 65.5q0 53 47 78h-2q25 14 37 21.5t22.5 12.5t22.5 12t37 22l-117 61 l2 -2q-51 23 -51 82z" />
<glyph unicode="+" horiz-adv-x="1779" d="M395 715q0 39 25.5 65.5t64.5 26.5h312v299q0 39 26.5 65.5t65.5 26.5q37 0 65.5 -26.5t28.5 -65.5v-299h311q37 0 66 -26.5t29 -65.5t-29 -65.5t-66 -26.5h-311v-295q0 -39 -28.5 -65.5t-65.5 -26.5q-39 0 -65.5 26.5t-26.5 65.5v295h-312q-39 0 -64.5 26.5t-25.5 65.5z " />
<glyph unicode="," horiz-adv-x="305" d="M-201 -338q0 39 25.5 64.5t60.5 25.5q25 0 45.5 15.5t37 39t28.5 53t20 58.5v-2q16 70 17 131q0 39 25.5 64.5t60.5 25.5q33 0 60.5 -25.5t27.5 -64.5q0 -78 -19.5 -161t-59.5 -153.5t-100.5 -115.5t-142.5 -45q-35 0 -60.5 25.5t-25.5 64.5z" />
<glyph unicode="-" d="M119 352q0 49 31.5 63.5t60.5 14.5h547q14 0 30.5 -3t31 -11t23.5 -23.5t9 -40.5t-9 -40t-23.5 -23t-31 -11.5t-30.5 -3.5h-547q-29 0 -60.5 14.5t-31.5 63.5z" />
<glyph unicode="." horiz-adv-x="282" d="M-2 66q0 31 13.5 54t35 40.5t47 26t49.5 8.5q51 0 97.5 -35t46.5 -94t-46 -94t-98 -35q-25 0 -50 8t-46.5 25.5t-35 41t-13.5 54.5z" />
<glyph unicode="/" d="M209 14v13l373 1554q8 25 31.5 40t54.5 15q41 0 67.5 -28.5t26.5 -65.5q0 -2 -1 -5t-1 -7l-369 -1538l2 2q-16 -72 -90 -72q-37 0 -65.5 26.5t-28.5 65.5z" />
<glyph unicode="0" horiz-adv-x="1247" d="M-31 782q0 180 56 353q33 98 88 191t129.5 164t171 114t211.5 43t210 -43t170.5 -114t130 -164t87.5 -191q55 -173 55 -353q0 -164 -49 -329q-31 -102 -85 -198.5t-131 -172.5t-175.5 -122t-214.5 -46q-111 0 -201 39t-163 104.5t-127 152.5t-90 183t-54.5 196.5 t-18.5 192.5zM156 782q0 -102 28.5 -222t86 -222t145.5 -171t207 -69q82 0 150.5 37t121.5 95.5t93 131t63 144.5q41 135 41 276q0 150 -48 295q-23 70 -61.5 139.5t-91.5 124t-119.5 88t-146.5 33.5q-78 0 -144.5 -33.5t-120 -89t-93.5 -124t-64 -138.5q-47 -141 -47 -295z " />
<glyph unicode="1" horiz-adv-x="1247" d="M326 1040q0 39 26 66q10 10 17.5 18.5t17.5 18.5t19.5 19t19.5 20q82 84 156 174h-2q18 23 35.5 44t33.5 46q27 37 52.5 72.5t52.5 64.5l-2 -4q29 41 77 41q41 0 65 -30.5t26 -65.5l4 -1510q0 -41 -29 -66.5t-66 -25.5q-39 0 -65.5 25.5t-26.5 66.5l-4 1235 q-39 -49 -84 -102t-88 -97t-81 -74t-62 -30q-39 0 -65.5 29t-26.5 65z" />
<glyph unicode="2" horiz-adv-x="1247" d="M47 1038q0 123 45 234.5t125 197.5t187.5 136.5t232.5 50.5q92 0 184 -32t164 -90t117 -140t45 -185q0 -96 -40 -182t-105.5 -165t-147.5 -151.5t-164 -142.5q-61 -51 -124.5 -107t-121 -115.5t-99.5 -120t-60 -120.5h821q37 0 65.5 -25.5t28.5 -66.5t-28.5 -66.5 t-65.5 -25.5h-928q-37 0 -65.5 26.5t-28.5 65.5q0 109 43 204t112.5 180t156.5 163t177 154q74 61 143.5 121.5t124 122t87.5 124t33 127.5q0 61 -30 109.5t-76 82.5t-103.5 52.5t-114.5 18.5q-88 0 -162 -36t-128 -96.5t-84 -138.5t-30 -164q0 -41 -28.5 -66.5t-65.5 -25.5 q-39 0 -65.5 25.5t-26.5 66.5z" />
<glyph unicode="3" horiz-adv-x="1247" d="M29 428q0 41 26.5 66.5t65.5 25.5q37 0 65.5 -25.5t28.5 -66.5q0 -78 34 -138.5t89 -102.5t126 -64.5t142 -22.5q82 0 159 32t137.5 87t96 130t35.5 159q0 131 -92 223q-106 -59 -231 -59q-31 0 -71 12t-77 34.5t-61.5 54.5t-24.5 73q0 47 22.5 78.5t55.5 51t72 28 t73 8.5q57 0 115.5 -11.5t112.5 -35.5q70 88 69 206q0 66 -34.5 119t-89 92t-120 59.5t-126.5 20.5q-53 0 -106.5 -14t-101.5 -40t-88 -63.5t-67 -84.5v4l-4 -13q-16 -29 -33.5 -56.5t-68.5 -27.5q-39 0 -65.5 27t-26.5 66q0 10 1 19t7 21h-2q37 80 95 144.5t131 108.5 t157 69t172 25q94 0 193.5 -34t180 -96.5t132 -150.5t51.5 -195q0 -84 -28 -164.5t-77 -148.5q72 -72 107 -161t35 -189q0 -123 -51.5 -230.5t-136.5 -188.5t-196.5 -128t-230.5 -47q-109 0 -213 36t-185 103.5t-130 162.5t-49 212z" />
<glyph unicode="4" horiz-adv-x="1247" d="M35 530q0 25 12 50l586 1001q39 53 86 53q35 0 65.5 -25.5t30.5 -66.5q0 -10 -2 -22.5t-12 -26.5q-127 -213 -253 -429t-253 -431h59h78h70t66.5 -1t76.5 -3v166q0 41 26.5 66.5t65.5 25.5q37 0 65.5 -25.5t28.5 -66.5v-172q33 -2 66 -2h68h34t37 2q18 0 39 1t41 1 q41 0 68.5 -24t27.5 -69q0 -35 -17 -55t-42 -29.5t-53.5 -10.5t-52.5 -1h-17h-55h-45q-20 0 -44 1t-55 1v-424q0 -41 -28.5 -66.5t-65.5 -25.5q-39 0 -65.5 25.5t-26.5 66.5v430q-70 4 -139 5h-137q-31 0 -59.5 -1.5t-57.5 -3.5t-60.5 -3t-60.5 -1q-41 0 -68.5 21.5 t-27.5 68.5z" />
<glyph unicode="5" horiz-adv-x="1247" d="M57 485q0 41 27 67t66 26q35 0 65.5 -26t30.5 -67q0 -78 30.5 -146.5t84 -119.5t124 -79.5t150.5 -28.5q88 0 165 32.5t135 90t92 135t34 166.5q0 82 -38 149.5t-99.5 113.5t-139 71.5t-155.5 25.5q-59 0 -105.5 -5t-87.5 -18.5t-79 -37t-83 -60.5l-4 -2 q-18 -10 -33.5 -17t-29.5 -7q-45 0 -69.5 28.5t-22.5 67.5q0 2 1 4t1 4q2 35 5 68.5t7 66.5q6 55 10 109.5t4 109.5q0 33 -6 72t-12 80t-11 82t-5 88q0 23 3 48.5t14 45.5t30.5 33.5t52.5 13.5q35 0 68.5 -1t68.5 -1q35 -2 70 -2h71q68 0 134.5 1t134.5 1q61 2 139 2h143 q39 0 65.5 -23.5t26.5 -66.5q0 -41 -26.5 -67.5t-65.5 -26.5q-72 0 -141.5 -1t-140.5 -3q-72 -2 -144 -2h-141h-111h-18h-8h-8h-19q0 -4 2 -12.5t2 -12.5q6 -59 12.5 -118.5t6.5 -129.5v-49v-35q0 -16 -1 -35.5t-3 -52.5q72 29 148.5 39t154.5 10q115 0 226.5 -38.5 t198.5 -111.5t141 -174t54 -224q0 -125 -49 -236t-133 -195t-195.5 -133t-236.5 -49q-119 0 -223.5 45t-183 122t-125 179.5t-46.5 216.5z" />
<glyph unicode="6" horiz-adv-x="1247" d="M57 618q0 90 22.5 202t65.5 225.5t105.5 222t142.5 192.5t176.5 135.5t204.5 51.5q41 0 67.5 -26t26.5 -67q0 -45 -22.5 -63t-57.5 -29q-8 -2 -20 -2q-10 0 -16 -2q-29 -4 -52.5 -9t-58.5 -24q-66 -35 -124 -99t-106.5 -146t-84 -172t-56.5 -174q76 61 172.5 94t188.5 33 q111 0 212 -40t179 -112t124 -169t46 -210q0 -115 -47 -209t-126 -163.5t-180.5 -107.5t-207.5 -38q-98 0 -187.5 31.5t-161 89t-122.5 138.5t-74 177q-16 66 -22.5 135.5t-6.5 134.5zM264 436q0 -74 30 -136t81 -107.5t116.5 -71t139.5 -25.5q70 0 137.5 24.5t119.5 70 t85 105.5t33 134q0 76 -31 139.5t-83 109.5t-119.5 71.5t-141.5 25.5q-72 0 -137.5 -25.5t-116.5 -71.5t-82 -107.5t-31 -135.5z" />
<glyph unicode="7" horiz-adv-x="1247" d="M-41 1546q0 37 17.5 57.5t44 29.5t55.5 9h53h16q96 0 191.5 -2t191.5 -6t188.5 -6t190.5 -2q66 0 140 6q35 2 73.5 4t75.5 2t65.5 -23.5t28.5 -64.5q0 -29 -18 -55l-404 -602q51 0 107 6q6 0 11 1t11 1q10 2 23.5 3t30.5 1q39 0 68.5 -23.5t29.5 -68.5q0 -39 -20.5 -59.5 t-55.5 -30.5q-39 -10 -85 -13t-97 -3h-53q-27 0 -50 2q-18 0 -21 1t-19 1q-127 -188 -252 -374.5t-252 -373.5q-31 -41 -78 -41q-39 0 -65.5 26.5t-26.5 65.5q0 18 4 29.5t10 22.5l440 655q-39 2 -79 2h-80q-16 0 -28.5 -1t-27.5 -1h-55q-41 0 -67.5 23.5t-26.5 68.5 q0 33 12 52.5t31.5 28.5t42 11t41.5 2q98 0 179 -2t177 -6q51 76 95 140.5t87 128t87.5 130t97.5 144.5h-103q-84 0 -168 2t-168 6t-164.5 6t-164.5 2q-25 0 -46.5 -1t-45.5 -1q-23 -2 -52 -2h-49q-41 0 -67.5 25.5t-26.5 66.5z" />
<glyph unicode="8" horiz-adv-x="1247" d="M35 397q0 70 18.5 136.5t52 124t82 105.5t107.5 81q-78 61 -126 151t-48 197q0 100 42 183t110.5 142.5t157.5 92t183 32.5q96 0 186.5 -33.5t160 -94t111.5 -144.5t42 -186q0 -106 -53 -192.5t-131 -145.5q121 -61 201.5 -166.5t80.5 -255.5q0 -115 -51 -208 t-134 -158.5t-187.5 -100.5t-208.5 -35q-98 0 -203.5 31t-193 91t-143.5 148.5t-56 204.5zM221 397q0 -72 40 -126t100.5 -91t132 -55.5t137.5 -18.5q70 0 139.5 22t126.5 62.5t93 100t36 133.5q0 57 -22.5 104t-61.5 84t-88 62.5t-100 42.5q-12 4 -43 11t-41 7h-2 q-10 -6 -21 -6q-25 -4 -54.5 -5t-55.5 -1q-66 0 -123.5 -26.5t-100.5 -70.5t-67.5 -103.5t-24.5 -125.5zM307 1192q0 -57 23.5 -105.5t63.5 -84t92.5 -55t107.5 -19.5q10 0 22.5 -1t22.5 -1q10 -2 16 -2h13q4 0 26.5 7t28.5 11q82 33 143.5 93.5t61.5 148.5q0 61 -27 111.5 t-72 87t-101 56t-114 19.5q-57 0 -112.5 -19.5t-98.5 -54t-69.5 -84t-26.5 -108.5z" />
<glyph unicode="9" horiz-adv-x="1247" d="M53 1116q0 113 46 208t124 166t177.5 110.5t207.5 39.5q115 0 214.5 -36.5t178.5 -116.5q59 -59 96.5 -132t59 -151t29.5 -159.5t8 -159.5q0 -96 -24.5 -205t-69.5 -216.5t-110.5 -204.5t-147.5 -172t-181.5 -120t-209.5 -45q-41 0 -68 25.5t-27 66.5q0 80 82 92 q10 2 20.5 3.5t20.5 3.5q31 4 56.5 9t56.5 17q78 33 141.5 95.5t113.5 142.5t85 171t55 181q-78 -70 -177 -105.5t-202 -35.5q-111 0 -211 40t-177 110.5t-122 166.5t-45 211zM240 1116q0 -74 30.5 -137.5t81.5 -109.5t118 -71.5t138 -25.5q70 0 137.5 25.5t121 69.5 t85 106.5t31.5 136.5q0 76 -31.5 139.5t-84 109.5t-120 71.5t-139.5 25.5q-70 0 -136 -25.5t-117.5 -71.5t-83 -107.5t-31.5 -135.5z" />
<glyph unicode=":" horiz-adv-x="606" d="M119 76q0 59 43 99t100 40t101.5 -40t44.5 -99t-44.5 -99t-101.5 -40t-100 39.5t-43 99.5zM119 483q0 59 43 100.5t100 41.5t101.5 -41.5t44.5 -100.5t-44.5 -99t-101.5 -40t-100 40t-43 99z" />
<glyph unicode=";" horiz-adv-x="346" d="M-106 -338q0 39 25.5 64.5t60.5 25.5q25 0 45 15.5t36.5 39t28.5 53t21 58.5v-2q16 70 16 131q0 39 25.5 64.5t60.5 25.5q33 0 60.5 -25.5t27.5 -64.5q0 -78 -19.5 -161t-59.5 -153.5t-100.5 -115.5t-141.5 -45q-35 0 -60.5 25.5t-25.5 64.5zM66 481q0 59 44 101.5 t101 42.5t100 -43.5t43 -100.5q0 -59 -43 -100t-100 -41t-101 41t-44 100z" />
<glyph unicode="&#x3c;" horiz-adv-x="968" d="M152 719q0 14 2 29.5t18 31.5l-4 -6q74 98 148.5 193.5t148.5 193.5q27 37 74 37q35 0 65.5 -26.5t30.5 -65.5q0 -35 -25 -59l4 6q-70 -90 -129 -167t-129 -167q66 -84 129.5 -165t126.5 -165q23 -34 23 -59q0 -39 -31 -65.5t-65 -26.5q-43 0 -74 36l-297 390l4 -7 q-16 16 -18 32t-2 30z" />
<glyph unicode="=" horiz-adv-x="1779" d="M395 602q0 41 27 64.5t65 23.5h807q37 0 66 -23.5t29 -64.5q0 -39 -29 -64.5t-66 -25.5h-807q-39 0 -65.5 25.5t-26.5 64.5zM395 819q0 90 90 90h809q37 0 66 -25.5t29 -64.5q0 -41 -29 -64.5t-66 -23.5h-809q-90 0 -90 88z" />
<glyph unicode="&#x3e;" horiz-adv-x="968" d="M336 338q0 39 22 61l-4 -6q70 90 129.5 166t128.5 166q-66 84 -130 167t-128 167l4 -6q-23 23 -22 61q0 39 28.5 65.5t65.5 26.5q45 0 74 -37l299 -389l-4 6q22 -22 22 -61q0 -10 -4 -24.5t-14 -28.5l-299 -391q-29 -35 -74 -35q-37 0 -65.5 26.5t-28.5 65.5z" />
<glyph unicode="?" horiz-adv-x="1091" d="M-63 1188q0 111 47 194.5t123.5 140t173 84t192.5 27.5t193.5 -27.5t174.5 -84t125 -140t48 -194.5q0 -86 -25.5 -150.5t-67.5 -112.5t-94.5 -84t-103.5 -69q-57 -35 -106.5 -75t-67.5 -83q-20 -55 -21 -122q0 -29 11 -64q4 -23 10 -43t6 -43q0 -41 -31.5 -69.5 t-68.5 -28.5q-45 0 -69 29.5t-24 68.5q0 6 -3 26.5t-7 39.5q-10 45 -10 84q0 90 18.5 151.5t51 106.5t80 80.5t104.5 76.5v-2q16 10 31.5 21.5t31.5 23.5q66 45 117 100.5t51 137.5q0 68 -32.5 117t-82.5 80.5t-113.5 48t-125.5 16.5q-61 0 -122.5 -16.5t-113 -48t-83 -81 t-31.5 -116.5q0 -39 -28.5 -65.5t-65.5 -26.5q-39 0 -65.5 26.5t-26.5 65.5zM338 80q0 59 44 100t101 41t100.5 -41t43.5 -100q0 -57 -43 -100t-101 -43q-57 0 -101 41.5t-44 101.5z" />
<glyph unicode="@" horiz-adv-x="1568" d="M51 819q0 152 58.5 283t159 228t233.5 152.5t282 55.5q150 0 284 -55.5t234.5 -152.5t160 -228t59.5 -283q0 -68 -21.5 -138.5t-64.5 -126.5t-104.5 -93t-141.5 -37q-55 0 -104.5 21.5t-81.5 62.5q-47 -39 -105.5 -61.5t-124.5 -22.5q-80 0 -147.5 31.5t-117.5 85 t-79 123t-29 147.5q0 76 29 146.5t79 124t117.5 85t147.5 31.5q104 0 197 -57q8 23 27.5 37t56.5 14t65.5 -26.5t28.5 -65.5v-457q0 -35 41 -35q35 0 61.5 20.5t45 52.5t27.5 68.5t9 69.5q0 113 -44 210t-118.5 169t-175 114t-211.5 42t-210 -42t-173.5 -114t-118.5 -169 t-44 -210t44 -210t118.5 -169.5t174 -114.5t209.5 -42q37 0 66 -27t29 -66t-29 -65.5t-66 -26.5q-150 0 -282.5 56.5t-233 154t-159 228.5t-58.5 282zM588 811q0 -41 14 -77t39 -64.5t58.5 -45t74.5 -16.5t76 16.5t59.5 45t39 64.5t14.5 77q0 39 -14.5 76t-39 65.5t-59.5 45 t-76 16.5t-74.5 -16.5t-58.5 -45t-39 -65.5t-14 -76z" />
<glyph unicode="A" horiz-adv-x="1501" d="M-92 127q0 39 14.5 72.5t38 59.5t55 40t66.5 14q41 0 67.5 -25.5t26.5 -72.5q0 -49 -21.5 -67.5t-50.5 -28.5q10 -4 25 -4h27q100 0 157.5 62.5t85 155.5t33.5 202.5t6 201.5v197q-14 -4 -25.5 -12.5t-21.5 -14.5l2 2q-16 -12 -31.5 -20t-33.5 -8q-39 0 -65.5 29.5 t-26.5 68.5q0 45 28 74v-2q37 41 82 61.5t92 24.5q0 33 1 63.5t3 61.5q2 43 3 85t1 87q0 63 11.5 143t41 150.5t81 118.5t131.5 48q82 0 128 -51t68.5 -123.5t27.5 -153.5t5 -141q0 -86 -5 -168.5t-11 -166.5q0 -12 -1 -16.5t-1 -8.5q0 -2 -1 -7t-1 -18h2q16 0 30.5 12.5 t28.5 26.5q20 20 38.5 33.5t47.5 13.5q37 0 65.5 -31.5t28.5 -68.5q0 -16 -6 -34.5t-22 -35.5v2q-41 -45 -95.5 -79.5t-115.5 -34.5h-17q-6 -111 -6 -219q0 -66 3 -153t20.5 -167t55.5 -135t107 -55q45 0 85 22.5t69 59t45 86t16 102.5q0 25 -12 47.5t-31 22.5l-4 -17 q-10 -35 -24.5 -60.5t-67.5 -25.5q-39 0 -65.5 25.5t-26.5 73.5q0 90 56.5 145t131.5 55q51 0 93.5 -22.5t73 -59.5t47 -85t16.5 -99q0 -96 -31 -180t-85 -148.5t-127 -101.5t-159 -37q-88 0 -149.5 35t-102 92t-65.5 132t-36 156t-14 160.5t-3 147.5q0 70 1 119t5 117 q-20 6 -45 16q-12 4 -16.5 5t-7.5 3t-8 3t-19 5v-145q0 -96 -5.5 -195.5t-20.5 -193.5t-46 -177t-83 -145.5t-129 -98.5t-185 -36q-37 0 -81 12.5t-81 37t-61.5 64.5t-24.5 95zM625 1114q27 -6 45 -12t35 -12l30 -13q6 90 12.5 179.5t6.5 179.5q0 23 -1 66.5t-5.5 86.5 t-12.5 75t-24 32q-25 0 -40.5 -30t-23.5 -72t-11 -87t-3 -73q0 -45 -1 -90.5t-3 -92.5q0 -23 -1 -39t-2 -30.5t-1 -30.5v-37z" />
<glyph unicode="B" horiz-adv-x="1536" d="M-92 1253q0 160 68.5 281t175 203t234.5 123t249 41q109 0 226.5 -31t216 -96.5t163 -172t64.5 -255.5q0 -86 -20.5 -171t-59.5 -157q119 -84 191.5 -212t72.5 -296q0 -125 -39 -232.5t-108.5 -187.5t-164 -126t-206.5 -46q-61 0 -115.5 21.5t-97.5 59.5t-75 89t-48 113 q-25 -61 -59.5 -113.5t-83 -89.5t-112 -58.5t-142.5 -21.5q-37 0 -81 12.5t-81 37t-61.5 64.5t-24.5 95q0 37 14 73t38 63.5t55.5 45t66.5 17.5q41 0 67.5 -30t26.5 -71q0 -55 -23.5 -71.5t-52.5 -24.5q-2 0 -2 -2h-2h-2q0 -8 23.5 -10t38.5 -2q94 0 148 52t83 133t37 178 t8 188v102q0 51 -2 104t-3 107.5t-1 107.5q0 41 2 122t11 172.5t29.5 179.5t59.5 143q-102 -6 -200 -43q-59 -20 -115.5 -58t-102 -91.5t-72 -119t-26.5 -139.5q0 -27 12.5 -51t32 -43.5t42 -32t44.5 -12.5q25 0 43.5 17.5t31.5 43t19.5 56.5t6.5 59q0 47 26.5 73t65.5 26 q41 0 67.5 -26t26.5 -73q0 -66 -19.5 -131t-56.5 -118.5t-90 -87t-121 -33.5q-57 0 -113.5 26.5t-101.5 72.5t-73.5 106.5t-28.5 127.5zM698 1059q33 35 77 55.5t79 20.5q47 0 99.5 -9.5t97.5 -21.5q67 104 67 238q0 82 -41 151q-41 78 -111.5 121t-148.5 65v-6 q0 -41 -28.5 -69.5t-65.5 -28.5q-8 0 -12 -53.5t-7.5 -128t-4.5 -157.5t-1 -140v-37zM700 563q37 41 87.5 64.5t107.5 23.5q41 0 67.5 -28.5t26.5 -69.5t-26.5 -69.5t-67.5 -28.5t-66.5 -35t-25.5 -82q0 -45 12 -86t33.5 -71.5t53.5 -48t69 -17.5q72 0 133 30.5t105 85 t69 126t25 153.5q0 115 -57.5 208t-143.5 148q-51 -43 -121 -66.5t-127 -23.5q-35 0 -78 18.5t-76 53.5v-6q0 -45 1 -89t1 -87q0 -27 -1 -52.5t-1 -50.5z" />
<glyph unicode="C" horiz-adv-x="1105" d="M-92 1417q0 111 42 200t111.5 152.5t155.5 98.5t176 35q37 0 65.5 -29t28.5 -70q63 47 135 73t156 26q57 0 103.5 -26t78 -69t48 -97t16.5 -112q0 -158 -62.5 -283.5t-163 -213.5t-226.5 -134t-250 -46q-16 0 -31 1t-29 3q-8 -61 -11 -125t-3 -123q0 -98 26.5 -197.5 t75.5 -181.5t122 -133t165 -51q47 0 95 17.5t86 50t62.5 79.5t24.5 107q0 33 -15.5 59.5t-39.5 26.5q-20 0 -25 -17q-10 -29 -25.5 -52.5t-62.5 -23.5q-39 0 -65.5 28t-26.5 75t19.5 82t49 58.5t65.5 34.5t71 11q51 0 95 -23.5t77 -63.5t51.5 -91t18.5 -104 q0 -102 -40 -186.5t-104.5 -142.5t-146.5 -90t-164 -32q-135 0 -241.5 66.5t-181.5 175t-114 244t-39 274.5q0 84 5.5 166t17.5 160q-94 72 -135 181t-41 232zM94 1417q0 -47 10.5 -94t30.5 -88q37 129 98.5 251t147.5 220q-53 -2 -104.5 -23.5t-92.5 -58.5t-65.5 -90 t-24.5 -117zM299 1118h23q88 0 180 33t166.5 95.5t122 151t47.5 201.5q0 37 -15.5 72t-44.5 35q-96 0 -173 -54.5t-137 -139.5t-102 -189t-67 -205z" />
<glyph unicode="D" horiz-adv-x="1425" d="M-92 113q0 53 25.5 90t63.5 60.5t81 34.5t78 11q66 0 123 -25.5t114 -58.5q66 88 91.5 206t25.5 235q0 55 -1 110t-3 113q-2 25 -2 47q0 25 -2 49q-37 -82 -99.5 -137t-160.5 -55q-80 0 -142.5 42t-105.5 107.5t-64.5 147t-21.5 159.5q0 147 60.5 268t157.5 207 t217 133.5t237 47.5q166 0 315 -74t262 -200t179.5 -295t66.5 -359q0 -117 -14.5 -240t-46 -240.5t-84 -223t-126 -184.5t-173 -125t-226.5 -46q-86 0 -159.5 20.5t-151.5 55.5q-61 -41 -128 -58.5t-138 -17.5q-35 0 -78 10.5t-81 33t-63.5 59t-25.5 92.5zM94 1249 q0 -41 9.5 -87t28 -84t46 -63.5t64.5 -25.5q41 0 67.5 34t42 82t21.5 103.5t6 98.5q0 47 26.5 72.5t65.5 25.5q23 0 43 -10q10 88 30.5 173t59.5 138q-6 0 -12 1t-12 1q-84 0 -170 -33t-157 -93t-115 -144t-44 -189zM565 141q41 -16 82 -21t86 -5q92 0 165 39t126 104.5 t90 151.5t59.5 182t33 195.5t10.5 189.5q0 115 -31 220.5t-86.5 193.5t-130 156.5t-162.5 109.5q-6 -35 -32.5 -58.5t-59.5 -23.5q-6 0 -11.5 -47t-7.5 -114.5t-3 -140.5t-1 -124v-70v-104q0 -49 2 -101q2 -53 3 -104t1 -104q0 -137 -28.5 -274.5t-104.5 -250.5z" />
<glyph unicode="E" horiz-adv-x="1067" d="M-92 1540q0 82 48 148.5t117.5 113.5t146.5 73t136 26q37 0 66 -29t29 -70v-10q66 51 138.5 80t141.5 29q111 0 180.5 -68t69.5 -197q0 -70 -23.5 -126t-63.5 -100t-92 -77t-110 -57q45 -16 82 -50t37 -91q0 -47 -19.5 -81t-50 -56.5t-67.5 -34t-70 -11.5 q-53 0 -104 21.5t-97 56.5q-88 -53 -137 -150.5t-49 -215.5q0 -100 27.5 -198.5t79 -176.5t124 -126t164.5 -48q45 0 92.5 21.5t86 58t62.5 86t24 104.5q0 25 -12.5 47.5t-30.5 22.5q-23 0 -30 -6.5t-9 -12.5v2q-8 -29 -23.5 -50t-58.5 -21q-47 0 -74 35.5t-27 80.5 q0 41 25 72t59.5 52.5t72.5 32.5t65 11q49 0 91 -22.5t72.5 -59.5t48 -85t17.5 -99q0 -98 -40 -184t-103.5 -148.5t-144.5 -98.5t-163 -36q-133 0 -239.5 64.5t-183 170t-117.5 238.5t-41 273q0 164 63.5 299t188.5 221q-6 10 -8.5 15t-6.5 18q-55 8 -118.5 29.5t-118 61.5 t-89 97t-34.5 135zM94 1540q0 -49 47.5 -77t96.5 -40q4 78 34.5 150t81.5 131q-29 0 -72.5 -13.5t-84.5 -35t-72 -51t-31 -64.5zM424 1411q51 6 115.5 21.5t121 42t95.5 66.5t39 95q0 68 -64 68q-86 0 -164 -57.5t-118 -143.5h2q-10 -23 -18.5 -46t-8.5 -46z" />
<glyph unicode="F" horiz-adv-x="751" d="M-92 1300q0 143 72.5 255t182 190t234.5 119t230 41q61 0 123.5 -11.5t128.5 -23.5q55 -10 112.5 -19.5t118.5 -9.5q37 0 65.5 -29.5t28.5 -70.5t-28.5 -70t-65.5 -29q-61 0 -124.5 10.5t-127.5 24.5q-14 2 -27.5 4t-25.5 7q0 -4 1 -9.5t1 -9.5q0 -47 -28.5 -72.5 t-65.5 -25.5q-4 0 -7.5 -20.5t-5.5 -54.5t-4 -77t-2 -88q20 39 50 65.5t75 26.5q35 0 63.5 -16t48 -43t31 -60.5t11.5 -66.5q0 -45 -10 -96h2q41 0 67.5 -30t26.5 -71q0 -37 -23.5 -61.5t-56.5 -39.5t-65.5 -21.5t-53.5 -6.5h-16t-17 2q-29 -27 -62.5 -46t-66.5 -36 q2 -33 2 -83v-82q0 -123 -17 -256.5t-66.5 -244t-138.5 -181t-232 -70.5q-39 0 -82 11.5t-80 37t-61.5 64.5t-24.5 94q0 39 14.5 72.5t39 59.5t55 40t65.5 14q37 0 65.5 -28.5t28.5 -69.5q0 -47 -21.5 -66.5t-47.5 -29.5q10 -2 24 -2h25q88 0 141 54t82 136t37 180.5 t8 184.5q0 23 -1 45t-1 45v32h-33q-16 0 -43.5 7.5t-56.5 23t-49.5 37t-20.5 49.5q0 8 4 25q-37 -14 -88 -15q-74 0 -132 32t-99 84t-63.5 122t-22.5 147zM94 1300q0 -35 9.5 -68.5t25.5 -60t41 -43t55 -16.5q35 0 56.5 31t34 76t16.5 94t4 86q0 41 26.5 69.5t65.5 28.5 q37 0 65.5 -28.5t28.5 -69.5v-23q10 100 31.5 189.5t60.5 142.5q-72 -2 -162 -31.5t-169.5 -82t-134 -127t-54.5 -167.5zM414 1004q12 -2 25.5 -7.5t23.5 -9.5q8 -4 16 -4q18 0 29 2v68v100q0 55 4 115q-10 -72 -32.5 -141.5t-65.5 -122.5z" />
<glyph unicode="G" horiz-adv-x="1265" d="M-92 1411q0 111 42 201t110.5 153.5t154.5 97t172 33.5q37 0 65.5 -25.5t28.5 -72.5v-2q61 47 132 73.5t153 26.5q57 0 102 -26.5t76 -69.5t47.5 -97t16.5 -110q0 -158 -61.5 -282.5t-160 -213.5t-222.5 -136.5t-249 -47.5q-16 0 -28.5 1t-28.5 4q-8 -59 -11 -124 t-3 -124q0 -98 26.5 -197.5t75.5 -181.5t120 -133.5t161 -51.5q39 0 70.5 23t53 59.5t33 81.5t11.5 90q0 23 -1 44.5t-1 44.5v90q0 41 26.5 70.5t65.5 29.5q37 0 65.5 -29.5t28.5 -70.5v-105q0 -43 2 -81t3 -80t5 -103q70 72 129 162q6 10 10.5 18t10.5 19v-2q8 14 15 28.5 t17 26.5l-2 -2q29 41 76 41q37 0 65.5 -32t28.5 -69q0 -25 -14 -47q-63 -117 -145 -214t-193 -189q4 -111 7 -219.5t3 -218.5q0 -78 -3 -164t-13 -171t-32.5 -161t-61.5 -134.5t-98.5 -93t-143.5 -34.5q-80 0 -147.5 45t-115.5 118.5t-74.5 167t-26.5 189.5q0 172 51 291 t131 209q76 84 188 164q4 4 10.5 7t10.5 7q-12 -2 -23.5 -3t-21.5 -1q-131 0 -236.5 67.5t-179.5 176t-113 244.5t-39 274q0 84 5.5 168t17.5 161q-86 72 -130 181.5t-44 230.5zM94 1411q0 -47 9 -94t32 -88q37 127 96.5 251t145.5 222q-53 -2 -103.5 -22.5t-90.5 -58.5 t-64.5 -91t-24.5 -119zM295 1110h20q88 0 179.5 33t164 95t118.5 151t46 204q0 35 -14 72t-43 37q-94 0 -170 -55.5t-134.5 -141.5t-100.5 -191.5t-66 -203.5zM471 -766q0 -53 13.5 -106.5t36 -96.5t55 -69.5t69.5 -26.5q57 0 90 48t48.5 120t18.5 153.5t3 149.5v98 q0 39 -1 76t-2 77t-3 95q-16 -14 -30.5 -26.5t-31.5 -26.5q-53 -43 -101 -86t-85 -97.5t-58.5 -122t-21.5 -159.5z" />
<glyph unicode="H" horiz-adv-x="1660" d="M-92 1493q0 100 43 176t108.5 126t145.5 75.5t153 25.5q53 0 118 -28.5t124 -57.5q8 -4 10 -4h2t4 -1t9 -3q35 41 81 66.5t101 25.5q31 0 68.5 -9t69.5 -28.5t53.5 -53.5t21.5 -83q0 -47 -21.5 -79.5t-53.5 -54t-68.5 -32t-69.5 -10.5q-47 0 -86 8q-16 -66 -20.5 -130 t-4.5 -130v-100q23 27 66 27q29 0 51.5 -15.5t32.5 -42.5q20 117 57 245t97.5 235.5t148.5 178t209 70.5q59 0 101 -33.5t68.5 -84t39 -109.5t12.5 -109q0 -131 -54.5 -231t-137 -175t-183 -127t-192.5 -89q-2 -16 -2 -33v-33q0 -45 5 -118.5t17 -156.5t31.5 -168 t46.5 -152.5t63.5 -110.5t81.5 -43t83 22.5t66 59.5t42 85t14 101q0 25 -11 47.5t-30 22.5q-2 0 -6 -17q-10 -35 -24.5 -60.5t-67.5 -25.5q-39 0 -65.5 25.5t-26.5 73.5q0 45 16.5 81.5t42 63.5t60 41t71.5 14q49 0 91 -22.5t73 -59.5t47.5 -85t16.5 -99q0 -92 -29 -176 t-80 -148.5t-123 -102.5t-160 -38q-100 0 -172.5 71.5t-122 181.5t-79 240t-43.5 246q-29 -38 -74 -38q-41 0 -61.5 18t-26.5 47q-23 -121 -62 -250t-101 -235.5t-151.5 -177t-209.5 -72.5q-61 0 -105.5 34.5t-71 86t-39 112t-12.5 109.5q0 133 55.5 235.5t141.5 178 t188.5 130t198.5 91.5q0 92 1 182t1 182q0 86 6 167t27 161q-6 4 -12.5 7t-12.5 7h2q-43 23 -90 45.5t-72 22.5q-41 0 -88 -13.5t-86 -39t-64.5 -65.5t-25.5 -91q0 -47 24.5 -90t63.5 -43q29 0 53.5 19.5t24.5 54.5q0 43 26.5 69.5t65.5 26.5q37 0 65.5 -26.5t28.5 -69.5 q0 -61 -22.5 -110.5t-60 -85.5t-85 -54.5t-96.5 -18.5q-61 0 -111.5 28t-86 73t-56 104.5t-20.5 122.5zM113 293q0 -16 2 -40t6 -46.5t11 -38.5t20 -16q72 0 126 54t93 136t65.5 179t42.5 181q-63 -31 -128.5 -69.5t-118 -88.5t-86 -112.5t-33.5 -138.5zM1040 1155 q61 29 124 67t114 87t83 110t32 135q0 14 -2 38t-6.5 46.5t-10.5 38t-16 15.5q-70 0 -122 -53.5t-91 -133.5t-64.5 -174t-40.5 -176z" />
<glyph unicode="I" horiz-adv-x="778" d="M-92 1491q0 100 43 177t108.5 127t145.5 75.5t153 25.5q55 0 119 -27.5t117 -56.5l29 -14q35 41 82 67.5t102 26.5q31 0 68.5 -9t69.5 -29.5t53.5 -54.5t21.5 -81t-21.5 -80.5t-53.5 -54t-68.5 -30t-69.5 -9.5q-47 0 -86 8q-16 -66 -20.5 -131t-4.5 -131q0 -88 1 -176 t1 -176q2 -78 2 -178v-176q0 -121 -20.5 -241t-70.5 -214t-136 -152.5t-217 -58.5q-37 0 -81 12.5t-81 37t-61.5 64.5t-24.5 95q0 39 14.5 72.5t38 59.5t55 40t66.5 14q41 0 67.5 -28.5t26.5 -69.5q0 -47 -21.5 -66.5t-45.5 -29.5q10 -4 22 -4h25q80 0 130 43t79 111.5 t39 151.5t10 163v178t-2 176q0 88 -1 176t-1 176q0 84 6 167t27 163q-8 4 -13.5 7t-13.5 7q-41 23 -87 44.5t-71 21.5q-41 0 -88 -13.5t-86 -39t-64.5 -65.5t-25.5 -91q0 -47 24.5 -90t63.5 -43q29 0 53.5 19.5t24.5 54.5q0 41 26.5 69.5t65.5 28.5q37 0 65.5 -28.5 t28.5 -69.5q0 -61 -22.5 -110.5t-60 -84.5t-85 -54.5t-96.5 -19.5q-61 0 -111.5 28t-86 74t-56 104t-20.5 122z" />
<glyph unicode="J" d="M-92 1489q0 98 42 175t107.5 128t145.5 77.5t155 26.5q55 0 118 -27.5t116 -56.5q10 -6 12 -8t19 -8q35 45 81 70.5t103 25.5q33 0 69.5 -9t68.5 -28.5t53.5 -53.5t21.5 -83q0 -47 -21.5 -80.5t-53.5 -55t-68.5 -32t-69.5 -10.5q-41 0 -86 10q-16 -66 -20.5 -132 t-4.5 -132q0 -154 1 -288t2 -266t5.5 -267t10.5 -289q41 37 77.5 78t63.5 88q4 8 7 13t7 14q4 10 11.5 22t11.5 21q29 49 78 49q35 0 65.5 -32t30.5 -69q0 -10 -1 -17t-9 -17q-27 -66 -64 -121t-82 -102.5t-93 -89.5t-97 -81q0 -10 1 -19t1 -19q2 -29 3 -66t1 -66v-417 q0 -92 -19.5 -202t-60.5 -205t-103.5 -158.5t-148.5 -63.5q-84 0 -146.5 58.5t-104.5 148.5t-63.5 196.5t-21.5 202.5q0 145 40 254t104.5 191.5t143.5 146t157 119.5l24 18q-10 311 -14 617.5t-4 617.5q0 80 6 166t27 166q-8 4 -13.5 7t-13.5 7q-41 23 -88 45.5t-70 22.5 q-41 0 -88 -13.5t-86 -40t-64.5 -66.5t-25.5 -91q0 -47 23.5 -90t64.5 -43q29 0 53.5 19.5t24.5 54.5q0 43 26.5 69.5t65.5 26.5q37 0 65.5 -26.5t28.5 -69.5q0 -61 -22.5 -111.5t-60 -85.5t-85 -54.5t-96.5 -19.5q-61 0 -111.5 27.5t-87 74t-56 105.5t-19.5 123zM248 -678 q0 -47 2 -90t12 -80q6 -35 19.5 -72.5t32 -70.5t39 -53.5t42.5 -20.5q39 0 65.5 44t44 107.5t26 134t8.5 124.5v417v37q-53 -41 -105.5 -87t-93.5 -102t-66.5 -128t-25.5 -160z" />
<glyph unicode="K" horiz-adv-x="1517" d="M-94 1491q0 100 43 176t108.5 126t146.5 75.5t154 25.5q59 0 119 -28.5t119 -57.5q2 -2 12 -6t17 -8q35 45 80 72.5t102 27.5q33 0 69.5 -9t68.5 -30.5t52.5 -55.5t20.5 -81t-20.5 -79.5t-52.5 -54t-68.5 -32t-69.5 -10.5q-23 0 -46.5 1t-43.5 5q-12 -61 -16.5 -128.5 t-4.5 -129.5v-102q0 -49 2 -98q25 10 50.5 17t48.5 7q31 0 64.5 -5t62.5 -15q23 59 28.5 129.5t5.5 136.5q0 100 28 195.5t81 171t129 121.5t174 46q63 0 110.5 -25.5t78 -69.5t46 -101.5t15.5 -118.5q0 -41 -26.5 -70.5t-67.5 -29.5t-66.5 29.5t-25.5 70.5q0 43 -14.5 82 t-49.5 39q-55 0 -97 -31t-69.5 -80t-42 -109.5t-14.5 -119.5q0 -92 -17.5 -195.5t-54.5 -189.5q35 -53 46.5 -105.5t11.5 -111.5v-418q0 -39 9 -79t27.5 -72.5t45 -54t61.5 -21.5q45 0 84 22.5t67.5 59t44 86t15.5 102.5q0 25 -11.5 46.5t-29.5 21.5l-4 -17l2 4 q-6 -35 -21.5 -62.5t-72.5 -27.5q-41 0 -68 26.5t-27 69.5q0 90 57.5 145.5t133.5 55.5q49 0 91 -21.5t72.5 -58.5t47 -84t16.5 -98q0 -92 -30.5 -177t-84 -148.5t-126 -101.5t-156.5 -38q-76 0 -137.5 37t-104.5 97.5t-65.5 135t-22.5 152.5v201q0 51 1 100t1 100 q0 20 -1 38t-5 34q-35 -20 -69.5 -28.5t-75.5 -8.5q-47 0 -99 29v-221q0 -121 -19.5 -240t-69.5 -213t-136 -153.5t-217 -59.5q-37 0 -81 12.5t-81 38t-61.5 64.5t-24.5 92q0 39 13.5 75t37 63.5t55 44t68.5 16.5q41 0 67.5 -30t26.5 -71q0 -55 -23.5 -71.5t-51.5 -24.5 q-2 0 -2 -2h-2h-2q0 -6 25.5 -9t35.5 -3q80 0 129 43t78 111.5t39 152.5t10 164v352q0 88 -1 176t-1 178q0 80 7 166t30 164q-23 12 -49.5 25.5t-53 24.5t-49 18.5t-37.5 7.5q-39 0 -85 -12.5t-86 -37t-66.5 -63.5t-26.5 -92q0 -47 23.5 -90t64.5 -43q29 0 52.5 18.5 t23.5 53.5q0 47 26.5 72.5t67.5 25.5q92 0 92 -98q0 -59 -21.5 -109.5t-58 -85.5t-84 -54.5t-98.5 -19.5q-61 0 -111.5 28t-87 74t-57 105t-20.5 123z" />
<glyph unicode="L" horiz-adv-x="1110" d="M-92 113q0 57 26.5 94t65.5 58.5t83 30.5t79 9q70 0 117 -17.5t100 -47.5q23 41 36 92t19 104t8 106.5t2 100.5q0 70 -5 135.5t-9 132.5q0 8 -1 7.5t-1 -3.5v-4v9h-47q-94 0 -170 38.5t-130 106.5t-84 157t-30 191q0 111 42 200t111.5 151.5t155.5 97t177 34.5 q37 0 65.5 -28.5t28.5 -69.5v-12q53 51 124.5 79.5t159.5 28.5q57 0 104.5 -24.5t80.5 -65.5t50 -95t17 -114q0 -123 -36.5 -225t-101 -182t-149.5 -137.5t-182 -89.5q0 -2 1 -6.5t1 -6.5q6 -76 10.5 -151.5t4.5 -153.5q0 -123 -15.5 -253t-70.5 -240q47 -16 103.5 -25.5 t107.5 -9.5q39 0 74.5 18.5t66.5 45t56.5 58t45.5 58.5q31 39 53.5 64.5t57.5 25.5q37 0 65.5 -27.5t28.5 -68.5q0 -31 -18 -58q-37 -55 -83 -111.5t-100.5 -100.5t-116 -71.5t-130.5 -27.5q-92 0 -174 16.5t-166 57.5q-53 -41 -116.5 -57.5t-127.5 -16.5q-31 0 -77 11.5 t-87 35t-70.5 60t-29.5 86.5zM154 1413q0 -59 15 -113.5t45 -95.5t72 -65.5t95 -24.5q12 0 15 -1t4 -2t3 -1q4 0 17 4q-4 78 -7 151.5t-3 155.5q0 168 71 283q-20 -4 -28 -4q-55 0 -108.5 -19.5t-95.5 -56.5t-68.5 -90t-26.5 -121zM596 1350q0 -29 1 -56.5t2 -57.5t3 -71 q59 27 113.5 69t94.5 96t63.5 120.5t23.5 144.5q0 41 -16.5 72t-49.5 31q-111 0 -173 -74t-62 -203v-71z" />
<glyph unicode="M" horiz-adv-x="1906" d="M-92 127q0 86 53 136t125 50q41 0 67.5 -25.5t26.5 -72.5q0 -55 -24.5 -72.5t-53.5 -25.5q8 -2 21 -2h24q68 0 117 29.5t82 78.5t52.5 114.5t29.5 139.5q35 276 56.5 545.5t39.5 546.5q2 45 9.5 101t26 106.5t55 84t98.5 33.5q51 0 80.5 -21.5t45 -55t19.5 -75.5t6 -81 q0 -10 1 -16.5t1 -14.5q6 -109 11.5 -222.5t11.5 -221.5q8 -158 15 -311.5t18 -309.5q14 270 31.5 536.5t41.5 534.5q4 39 11.5 84t25 84t49 64.5t86.5 25.5q59 0 96 -26.5t57.5 -67.5t28 -91t7.5 -97q0 -25 -2 -51.5t-4 -49.5t-3 -45t-1 -45q0 -102 -7 -203.5t-14 -199.5 q-8 -98 -14 -196.5t-6 -196.5q0 -66 3 -153t20.5 -167t55 -135t107.5 -55q45 0 85 22.5t68.5 59t45 85t16.5 101.5q0 27 -12.5 49.5t-30.5 22.5q-2 -2 -2 -4t-1 -5.5t-1 -5.5q-10 -35 -24.5 -61.5t-67.5 -26.5q-39 0 -65.5 27t-26.5 70q0 90 56 145t132 55q51 0 93 -21.5 t73 -58.5t47 -85t16 -101q0 -94 -30.5 -178t-85 -147.5t-127 -100.5t-158.5 -37q-88 0 -149.5 34t-102.5 91t-65.5 132t-36 155t-14.5 159.5t-3 149.5q0 98 5 196.5t14 196.5q6 84 12 166t8 168q-18 -233 -31.5 -463.5t-25.5 -464.5q-2 -35 -4 -75.5t-4 -75.5 q0 -10 -1 -22.5t-1 -24.5q-2 -49 -6.5 -106.5t-20.5 -106.5t-50 -82t-95 -33q-49 0 -81 23.5t-49.5 59.5t-24.5 81t-7 88v102q0 4 -1 7.5t-1 9.5q-10 156 -18.5 313.5t-16.5 310.5q-4 78 -7 155t-6 155v-2q-4 39 -6 76.5t-6 76.5q-16 -231 -35.5 -460.5t-48.5 -458.5 q-14 -109 -47 -205t-90 -169t-138 -115t-190 -42q-41 0 -82.5 11.5t-76.5 36t-57.5 63.5t-22.5 96z" />
<glyph unicode="N" horiz-adv-x="1284" d="M-92 127q0 39 14.5 72.5t38 59.5t55 40t66.5 14q39 0 65.5 -28.5t26.5 -69.5q0 -47 -21.5 -66.5t-46.5 -29.5q10 -4 23 -4h25q63 0 108 29.5t72.5 78.5t43 112.5t21.5 133.5q16 274 20.5 559t4.5 559q0 43 5 96.5t21.5 99.5t50.5 77.5t93 31.5q51 0 83 -24.5t49 -62.5 t25.5 -82t12.5 -83q35 -264 67.5 -528t67.5 -526q10 -70 18.5 -140.5t18.5 -140.5q0 -4 1 -10t1 -12q2 -20 6 -49t7 -56.5t5 -47t0 -19.5q6 0 9.5 16t5.5 37.5t2 44.5v39q0 145 -1 287.5t-1 287.5q0 63 -1 137t-1 150v152v139q0 90 10 178t43 157.5t94.5 112.5t165.5 43 q74 0 139.5 -32.5t113.5 -89t75.5 -131t27.5 -156.5q0 -61 -24.5 -109.5t-62.5 -81t-86 -49t-95 -16.5q-31 0 -63.5 10t-59 29.5t-44 50.5t-17.5 74q0 47 28.5 72.5t61.5 25.5q47 0 61.5 -21.5t24.5 -46.5h2q2 0 3 1t3 1q25 0 53.5 15.5t28.5 44.5q0 43 -12.5 82t-36 68.5 t-54 47t-67.5 17.5q-43 0 -68.5 -26.5t-39 -67.5t-17.5 -91.5t-4 -97.5v-285q0 -141 2 -282q0 -141 1 -282.5t1 -282.5q0 -49 -6 -113t-26.5 -121t-60.5 -96t-108 -39q-55 0 -91 33t-57.5 82t-32.5 106.5t-17 104.5q-2 8 -3 19t-3 17q-37 272 -72 541.5t-70 544.5 q-2 -229 -6 -455.5t-20 -453.5q-8 -109 -35 -206t-79 -170t-130 -116t-186 -43q-37 0 -80 12.5t-80 37t-61.5 64.5t-24.5 95z" />
<glyph unicode="O" horiz-adv-x="1349" d="M-92 907q0 137 20.5 268.5t66.5 249t120.5 217t181.5 173.5q20 20 57 20q20 0 38 -11.5t30 -27.5q55 51 124.5 79t153.5 28q102 0 189.5 -44t157 -120t123 -175.5t90 -209t54 -220t17.5 -208.5q0 -176 -45 -356.5t-135 -326t-223 -236.5t-307 -91q-182 0 -316.5 86 t-222.5 225.5t-131 317.5t-43 362zM94 907q0 -145 31 -287.5t95.5 -254t163.5 -181t237 -69.5q131 0 229 75.5t162.5 193.5t97.5 262.5t33 279.5q0 111 -28 246t-83 253.5t-138 198.5t-194 80q-66 0 -114.5 -28.5t-82.5 -78t-51.5 -115t-17.5 -139.5q0 -23 8.5 -41t22.5 -18 q8 0 15 13.5t10.5 32t5.5 39t2 36.5q0 47 26.5 72.5t65.5 25.5q37 0 65.5 -25.5t28.5 -72.5q0 -49 -13.5 -105.5t-40 -103.5t-68.5 -79t-97 -32q-47 0 -87 21.5t-68.5 57.5t-45 83t-16.5 96q0 100 24 191q-49 -59 -83.5 -134t-55 -158t-30 -168t-9.5 -167z" />
<glyph unicode="P" horiz-adv-x="800" d="M-92 1327q0 141 67.5 246.5t170 176.5t222 105.5t222.5 34.5q111 0 229.5 -24.5t217 -86t163 -166t64.5 -263.5q0 -90 -23.5 -179.5t-71 -160t-117 -113.5t-161.5 -43q-37 0 -75 14.5t-68.5 41t-51 65.5t-20.5 86q0 41 26.5 69.5t65.5 28.5q55 0 67.5 -21.5t18.5 -52.5 v-8q0 -2 12 -22q4 -4 25 -4q47 0 82 27.5t58.5 70.5t34.5 96t11 105q0 74 -25.5 128t-66.5 93t-95 63.5t-112 38.5v-6q0 -43 -28.5 -69.5t-65.5 -26.5q-8 0 -12 -53.5t-7 -128t-4.5 -155.5t-1.5 -138v-78q0 -43 1.5 -86t1.5 -86q2 -41 2 -92v-90q0 -88 -7.5 -176.5 t-26 -171.5t-51 -155.5t-85 -125.5t-125 -84t-170.5 -31q-39 0 -82 11.5t-80 37t-60.5 64.5t-23.5 94q0 78 50 132t122 54q41 0 67.5 -25.5t26.5 -72.5t-22.5 -66.5t-49.5 -29.5q10 -4 25 -4h27q94 0 149 52t84 133t37 177t8 187q0 55 -1 108t-3 109q-2 47 -2 108v115 q0 39 2 114.5t11.5 162.5t28.5 172t56 141q-82 -2 -178 -35q-49 -16 -101 -46t-96 -72t-72 -96t-28 -118q0 -55 21.5 -96t68.5 -41q23 0 43.5 22.5t34.5 54t22.5 67.5t8.5 63q0 41 26.5 69.5t65.5 28.5q37 0 65.5 -28.5t28.5 -69.5q0 -61 -21.5 -133t-60.5 -132.5 t-93 -100.5t-120 -40t-117 26.5t-86.5 73t-54 106.5t-18.5 130z" />
<glyph unicode="Q" horiz-adv-x="1349" d="M-92 901q0 139 20.5 270.5t67.5 248t123 216t184 172.5q20 14 51 15q20 0 38 -10.5t30 -26.5q55 49 124.5 77.5t153.5 28.5q76 0 143.5 -24.5t126 -69.5t106.5 -105.5t89 -129.5l6 247q20 84 93 84q41 0 67.5 -31.5t26.5 -68.5q0 -4 -1 -6t-1 -6l-64 -2634 q-16 -80 -90 -80q-37 0 -65.5 30t-28.5 68v11l25 1038q-90 -133 -218.5 -215t-293.5 -82q-182 0 -316.5 85t-222.5 223.5t-131 315.5t-43 359zM94 901q0 -143 31 -283.5t95.5 -252t163.5 -181t237 -69.5q131 0 229 74.5t162.5 191.5t97.5 260t33 279q0 111 -28 244.5 t-83 251.5t-138 197t-194 79q-66 0 -114.5 -29t-82.5 -78t-51.5 -113.5t-17.5 -136.5q0 -23 8.5 -41t22.5 -18q8 0 15 13.5t10.5 31.5t5.5 38.5t2 37.5q0 41 26.5 69.5t65.5 28.5q37 0 65.5 -28.5t28.5 -69.5q0 -51 -13.5 -106.5t-40 -102.5t-68.5 -78t-97 -31 q-47 0 -87 21.5t-68.5 57.5t-45 82t-16.5 95q0 98 24 189q-49 -59 -83.5 -134t-55 -156t-30 -166t-9.5 -167z" />
<glyph unicode="R" horiz-adv-x="1806" d="M-92 1249q0 164 69.5 286t178 204t238.5 122t253 40q109 0 224.5 -32t212 -100.5t159 -174t62.5 -253.5q0 -106 -32 -211.5t-95 -185.5q41 -57 57 -124.5t16 -139.5v-338q0 -39 9.5 -79t27 -72.5t44 -54t61.5 -21.5q45 0 85 22.5t67.5 59t44 85t16.5 101.5 q0 27 -12.5 48.5t-30.5 21.5l-4 -17q-10 -35 -24.5 -61.5t-68.5 -26.5q-39 0 -65.5 29t-26.5 69q0 90 56.5 145.5t132.5 55.5q49 0 91 -21.5t72.5 -57.5t48 -84t17.5 -101q0 -94 -30.5 -178t-84 -147.5t-126 -100.5t-158.5 -37q-78 0 -138.5 37t-102.5 97.5t-64.5 135 t-22.5 152.5v338q0 37 -7 71.5t-24 63.5q-41 -20 -86 -31.5t-90 -11.5q-35 0 -81 21.5t-81 56.5q0 -8 1 -15.5t1 -15.5q0 -39 1 -76.5t1 -74.5q0 -131 -17 -264.5t-67.5 -241t-142.5 -175t-240 -67.5q-37 0 -80.5 11.5t-80.5 37t-61.5 64.5t-24.5 94q0 39 14 72.5t37.5 59.5 t55.5 40t67 14q41 0 67.5 -25.5t26.5 -72.5q0 -49 -21.5 -67.5t-50.5 -28.5q10 -4 25 -4h26q94 0 149.5 53t84.5 135t37 179.5t8 185.5q0 49 -1 97t-3 97t-2 101v100q0 31 1 86t5 123q-2 -66 -22.5 -129.5t-57.5 -113.5t-89 -82t-118 -32q-57 0 -113.5 28t-101.5 74 t-73.5 106.5t-28.5 125.5zM94 1249q0 -27 12.5 -51t31 -43.5t42 -31t45.5 -11.5q25 0 43.5 16.5t31.5 43t19.5 57.5t6.5 59q0 43 26.5 69.5t65.5 26.5q37 0 65.5 -26.5t28.5 -69.5v-12q4 57 11 117.5t19.5 118t31 107.5t42.5 85q-86 -4 -178 -35t-168.5 -87t-126 -139 t-49.5 -194zM696 1061q35 35 80 53.5t80 18.5q51 0 100.5 -15.5t90.5 -40.5q41 47 56 123t15 141q0 63 -22.5 115.5t-59.5 93.5t-84 72t-98 49q-10 4 -19.5 6t-19.5 6q2 -6 2 -16q0 -43 -28.5 -69.5t-65.5 -26.5q-8 0 -13 -55.5t-8.5 -135.5t-4.5 -168t-1 -151z" />
<glyph unicode="S" horiz-adv-x="796" d="M-92 127q0 39 14.5 72.5t38 59.5t55 40t66.5 14q41 0 67.5 -28.5t26.5 -69.5q0 -47 -20.5 -67.5t-46.5 -28.5q10 -4 22 -4h25q94 0 152.5 52t90 132t42 178t10.5 191q0 66 -3.5 127t-7.5 123h-10q-94 0 -170 38.5t-130 106t-84 158t-30 192.5q0 109 42 198t112 152.5 t156 98t176 34.5q37 0 65.5 -28.5t28.5 -69.5q0 -29 -12 -49q49 68 122.5 108.5t178.5 40.5q55 0 102 -25.5t83 -67.5t56.5 -97.5t20.5 -112.5q0 -127 -44 -234.5t-116 -190.5t-166 -140t-194 -86q0 -25 1 -47.5t3 -46.5l4 -90t2 -92q0 -133 -19.5 -266.5t-74 -241 t-147.5 -175t-240 -67.5q-37 0 -81 12.5t-81 37t-61.5 64.5t-24.5 95zM203 1413q0 -59 15 -113.5t45 -95.5t72 -65.5t95 -24.5h6q0 76 6.5 158t20.5 164t39.5 157.5t66.5 137.5q-12 -16 -30.5 -23.5t-36.5 -7.5q-55 0 -108.5 -20.5t-95.5 -57.5t-68.5 -90t-26.5 -119z M625 1151q63 25 123.5 67t107.5 99t74.5 126.5t27.5 151.5q0 37 -20 72t-53 35q-88 0 -139.5 -54.5t-78 -136t-34.5 -178t-8 -182.5z" />
<glyph unicode="T" horiz-adv-x="1103" d="M-223 1487q0 74 43 145.5t111.5 128t152.5 91t168 34.5q86 0 137 -23.5t98 -62.5q125 92 277 92q41 0 85 -16t80 -45t59.5 -72t23.5 -94q0 -53 -20.5 -93t-52.5 -68.5t-73 -43t-82 -14.5q-84 0 -153.5 26.5t-132.5 71.5q-66 -80 -113 -183.5t-76.5 -217t-43 -230 t-13.5 -225.5q0 -117 25.5 -220t79 -182t133 -125t188.5 -46q47 0 88 21.5t71.5 58t48 85t17.5 103.5q0 27 -11 48.5t-30 21.5q-18 0 -22 -6.5t-6 -12.5q-10 -31 -24.5 -52.5t-66.5 -21.5q-39 0 -65.5 27t-26.5 74t20.5 83t51.5 59.5t67.5 34.5t71.5 11q49 0 91 -22.5 t73 -59.5t47.5 -85t16.5 -99q0 -94 -33 -178t-89.5 -147.5t-131 -101.5t-158.5 -38q-152 0 -265.5 60.5t-191.5 165t-116.5 244.5t-38.5 300q0 123 16 256t51 261t89 246t128 212q-23 18 -49.5 32.5t-50.5 14.5q-45 0 -95.5 -19.5t-92.5 -50t-69.5 -69.5t-27.5 -76 q0 -23 10 -29q14 8 25 37q14 33 33.5 60.5t72.5 27.5q47 0 68 -30.5t22 -67.5q-8 -39 -29.5 -76t-53 -65.5t-71.5 -46t-87 -17.5q-94 6 -136 65.5t-42 133.5zM653 1675q61 -35 131 -35q12 0 26.5 6.5t14.5 18.5q0 16 -22.5 24.5t-38.5 8.5q-27 0 -56.5 -6t-54.5 -17z" />
<glyph unicode="U" horiz-adv-x="1902" d="M-92 1368q0 86 23.5 178t70.5 169t114.5 126t157.5 49q78 0 133.5 -41t90 -104.5t51 -138t16.5 -144.5v-964q0 -68 17.5 -135.5t51.5 -123t83 -90t110 -34.5t111.5 30.5t84.5 80.5t52.5 115t18.5 132v1323q0 41 26.5 69.5t65.5 28.5q37 0 65.5 -28.5t28.5 -69.5v-1413 q0 -51 15.5 -99t43 -86t66.5 -60.5t84 -22.5t85 22.5t67.5 59t44 85t16.5 101.5q0 27 -12.5 49.5t-30.5 22.5l-4 -17q-10 -35 -24.5 -60.5t-67.5 -25.5q-39 0 -66 27t-27 70q0 90 56.5 145t132.5 55q51 0 93 -21.5t72.5 -58.5t47 -85t16.5 -101q0 -94 -30.5 -178t-84 -147.5 t-126 -100.5t-158.5 -37q-100 0 -183 50t-137 141q-59 -92 -145 -141.5t-197 -49.5q-104 0 -187 51.5t-141.5 133t-89 185t-30.5 208.5v528q-35 -49 -83 -80t-110 -31q-80 0 -133 46.5t-84.5 114t-46 146t-14.5 146.5zM94 1368q0 -31 4 -75t14.5 -84t28 -68.5t45.5 -28.5 q20 0 37 17.5t27 44t15 56.5t5 54q0 47 26.5 72.5t65.5 25.5q10 0 17 -2v82q0 31 -5 72t-17.5 76t-33 59.5t-49.5 24.5q-45 0 -78.5 -34t-56 -83t-34 -105.5t-11.5 -103.5z" />
<glyph unicode="V" horiz-adv-x="1351" d="M-92 1368q0 86 23.5 178t70.5 168t114.5 125t157.5 49q78 0 133.5 -41t90 -103.5t51 -138t16.5 -143.5v-964q0 -68 17.5 -135.5t51.5 -123t83 -90t110 -34.5q70 0 120 41t84 108.5t54.5 152.5t31.5 172t14.5 170t3.5 144q0 131 -8.5 261t-32.5 253h-27q-49 0 -105.5 15.5 t-105.5 48t-81 84t-32 121.5q0 55 22.5 93t57.5 62.5t76 35.5t80 11q51 0 90 -20.5t69.5 -54t52 -76.5t38.5 -86q35 16 59.5 36.5t59.5 49.5l-5 -2q16 16 33 22t33 6q37 0 65.5 -31.5t28.5 -68.5q0 -33 -23.5 -63.5t-58.5 -56t-73.5 -47t-69.5 -36.5q29 -139 36 -278.5 t7 -278.5q0 -86 -6 -192.5t-24.5 -216t-52.5 -213t-89 -184.5t-134 -130t-188 -49q-104 0 -187 51t-141.5 134t-89 186.5t-30.5 208.5v520q-35 -47 -82 -75t-107 -28q-80 0 -133 46.5t-86.5 114t-48 146t-14.5 146.5zM94 1368q0 -31 4 -75t15.5 -84t30 -68.5t46.5 -28.5 q20 0 36 17.5t26 43t15 56.5t5 55q0 41 29 69.5t66 28.5q8 0 12 -2v82q0 31 -5 72t-17.5 76t-33 59.5t-49.5 24.5q-45 0 -78.5 -34t-56 -83t-34 -106.5t-11.5 -102.5zM930 1686q0 -16 11 -28.5t27.5 -22t36 -14.5t37.5 -7q-12 31 -27.5 55.5t-35.5 24.5q-10 0 -29.5 -2 t-19.5 -6z" />
<glyph unicode="W" horiz-adv-x="2082" d="M-92 1368q0 86 23.5 178t70.5 168t114.5 125t157.5 49q78 0 133.5 -41t90 -103.5t51 -138t16.5 -143.5v-964q0 -68 17.5 -135.5t51.5 -123t83 -90t110 -34.5t108.5 27.5t81.5 73.5t52 107.5t23 129.5q2 25 2 47v49v1247q0 43 26.5 69.5t65.5 26.5q37 0 65.5 -26.5 t28.5 -69.5v-1362q0 -66 18.5 -123t52 -101t80 -69.5t101.5 -25.5q70 0 120 41t83.5 108.5t55 152.5t33 172t14.5 170t3 144q0 135 -8 262t-31 252h-28q-49 0 -105.5 15.5t-106 48t-81 84t-31.5 121.5q0 55 22.5 93t56.5 62.5t75 35.5t79 11q49 0 89 -20.5t71 -54 t54.5 -76.5t39.5 -86q29 16 57.5 37.5t59.5 48.5l-4 -2q16 16 32.5 22t33.5 6q37 0 65.5 -31.5t28.5 -68.5q0 -33 -23.5 -63.5t-58.5 -56t-74 -47t-69 -36.5q29 -139 36 -278.5t7 -278.5q0 -86 -6.5 -192.5t-26 -216t-53 -213t-88 -184.5t-134.5 -130t-188 -49 q-115 0 -203 56.5t-147 154.5q-59 -100 -148.5 -155.5t-206.5 -55.5q-104 0 -187 51t-141.5 134t-89 186.5t-30.5 208.5v528q-35 -49 -83 -80t-112 -31q-80 0 -132 46.5t-85 115t-46 147.5t-13 144zM94 1368q0 -29 4 -73t13.5 -85t27 -69.5t45.5 -28.5q20 0 36 17.5t26 43 t15 56.5t5 55q0 41 28.5 69.5t65.5 28.5q4 0 9.5 -1t9.5 -1v82q0 31 -5 72t-17.5 76t-33 59.5t-49.5 24.5q-45 0 -78.5 -34t-56 -83t-34 -106.5t-11.5 -102.5zM1636 1686q0 -33 38 -49.5t73 -20.5q-12 31 -28.5 54.5t-35.5 23.5q-10 0 -28.5 -2t-18.5 -6z" />
<glyph unicode="X" horiz-adv-x="1636" d="M-92 1497q0 80 31.5 153.5t90 129t140.5 88.5t180 33q100 0 176 -48.5t131.5 -125t92 -173t57.5 -190.5q33 98 78 193.5t108.5 169t147.5 118.5t192 45q68 0 114 -33.5t75.5 -84t43 -109.5t13.5 -109q0 -133 -62.5 -233t-157.5 -175t-211 -127t-220 -89q-2 -16 -2 -33 v-31q0 -45 6 -118.5t20.5 -156.5t37 -168t54 -152.5t74.5 -110.5t99 -43q55 0 99 22.5t75.5 59.5t49 85t17.5 101q0 25 -14 47.5t-39 22.5q-10 0 -12 -5.5t-4 -11.5q-10 -35 -25.5 -60.5t-73.5 -25.5q-41 0 -68.5 25.5t-27.5 73.5q0 45 17.5 81.5t47 63.5t67.5 41t79 14 q53 0 99 -22.5t80 -59.5t53.5 -85t19.5 -99q0 -92 -32 -176t-90 -148.5t-139 -102.5t-179 -38q-74 0 -135.5 31t-110.5 84t-86 123.5t-64 148.5q-20 59 -34.5 117.5t-24.5 114.5q-33 -113 -83 -220.5t-120 -190.5t-158 -133t-198 -50q-70 0 -119 39t-81 97t-46 124.5 t-14 124.5q0 164 72.5 283.5t183.5 207.5q100 78 216.5 136.5t227.5 91.5v38q0 39 -6 100.5t-20.5 131.5t-37 141.5t-55 129t-75.5 93t-99 35.5q-55 0 -100 -18.5t-77 -49t-49.5 -70.5t-17.5 -83q0 -18 14.5 -34.5t39.5 -16.5q14 0 18 14l-2 -4q8 29 24.5 53.5t75.5 24.5 q39 0 69 -25.5t30 -66.5q0 -39 -18.5 -72t-49.5 -56.5t-69.5 -36.5t-77.5 -13q-55 0 -101.5 19.5t-80 52t-52 74.5t-18.5 87zM147 330q0 -18 3.5 -47t9.5 -56.5t16 -47t27 -19.5q90 0 156.5 65.5t114.5 163.5t81 213t53 213q-78 -35 -158.5 -80t-147 -104.5t-110 -134 t-45.5 -166.5zM961 1153q72 29 146.5 65.5t135 86t99 110.5t38.5 139q0 14 -2 38t-7 46.5t-14 38t-24 15.5q-82 0 -143.5 -53.5t-106.5 -133.5t-74.5 -175t-47.5 -177z" />
<glyph unicode="Y" horiz-adv-x="1511" d="M-92 1366q0 84 23.5 176t70.5 169t114.5 127t157.5 50q78 0 133.5 -42t90 -105.5t51 -139t16.5 -145.5v-967q0 -68 17.5 -136t51.5 -124.5t83 -91.5t110 -35t111.5 31t84.5 82t52.5 116.5t18.5 133.5v1331q0 41 26.5 68.5t65.5 27.5q41 0 67.5 -28.5t26.5 -69.5v-1651 q66 74 109 174l6 11q6 10 6 12q0 4 4 14q14 35 38.5 71t67.5 36q35 0 66 -30t31 -69q0 -4 -1 -12t-10 -24l5 6q-51 -145 -130 -260t-192 -201v-248q0 -145 -26.5 -304t-86 -292t-153.5 -219t-232 -86q-78 0 -138 43t-102 111.5t-64.5 155.5t-22.5 177q0 145 46 252 t118.5 187t162.5 140t179 114q43 27 70.5 42t62.5 42v24q-115 -104 -267 -104q-104 0 -187 52t-141.5 135t-89 187.5t-30.5 208.5v531q-35 -49 -83 -79t-110 -30q-80 0 -133 46.5t-84.5 115t-46 148t-14.5 145.5zM94 1366q0 -31 4 -75t14.5 -86t28 -70.5t45.5 -28.5 q20 0 36 18.5t26 44t15 56t5 55.5q0 41 28.5 70.5t65.5 29.5q10 0 17 -2v78q0 33 -5 74t-17.5 78t-33 61.5t-49.5 24.5q-45 0 -78.5 -34t-56 -83t-34 -106.5t-11.5 -104.5zM641 -791q0 -47 10.5 -94t28.5 -86t44 -64.5t58 -27.5q82 8 141.5 79t97.5 172t55.5 217t17.5 218 v119l-41 -25l2 2q-70 -41 -142.5 -89t-133 -108.5t-99.5 -137t-39 -175.5z" />
<glyph unicode="Z" horiz-adv-x="1320" d="M-92 109q0 55 24.5 92t61.5 59.5t79 31.5t77 9q41 0 77.5 -6t71.5 -16q23 41 42 86t40 92q16 41 34.5 83t39.5 81v-3q23 43 41 87.5t39 87.5q6 14 13 27.5t13 27.5q-16 -2 -31.5 -8t-27.5 -13q-16 -6 -19.5 -11t-31.5 -5q-39 0 -66 26.5t-27 67.5q0 31 27 57.5t61.5 45 t71.5 30t55 11.5t37 -2.5t39 -8.5q37 82 70 161t67 165q12 29 24.5 59.5t25.5 61.5q6 18 10 28.5t7 19.5t8 20.5t13 29.5q-88 20 -173 42t-173 44l4 -2q-10 2 -22 5t-27 7q-18 4 -35.5 8.5t-35.5 4.5q-41 0 -88.5 -12.5t-86 -38t-64.5 -64.5t-26 -92q0 -47 25 -90t64 -43 q29 0 53 19.5t24 53.5q0 43 27 70t66 27q37 0 65.5 -27t28.5 -70q0 -61 -22.5 -110t-60.5 -84t-85 -54.5t-96 -19.5q-61 0 -111.5 27.5t-86.5 74t-56.5 104.5t-20.5 122q0 98 43 174t108.5 127t145.5 76.5t154 25.5q72 0 140.5 -16.5t133.5 -36.5q25 -8 52.5 -16.5 t52.5 -14.5q53 -14 84.5 -22t85.5 -21q39 55 91 89t122 34q31 0 68.5 -9t69 -29.5t53 -54.5t21.5 -81q0 -45 -21.5 -78t-53 -54.5t-68.5 -31.5t-69 -10q-29 0 -54.5 1t-58.5 7q-14 -33 -28.5 -72.5t-31.5 -78.5q-10 -27 -21 -53.5t-22 -53.5v2q-18 -47 -34.5 -87t-31.5 -79 t-32.5 -77.5t-38.5 -83.5q33 -12 66 -13q10 0 28 6h5q0 2 3 3t12 2.5t34 1.5q39 0 65.5 -28t26.5 -69q0 -33 -21.5 -54.5t-50 -34.5t-57.5 -19t-45 -6q-41 0 -76 10t-70 26q-6 -14 -12 -27.5t-12 -25.5h2q-25 -53 -50.5 -104t-50.5 -103q-20 -41 -36.5 -78.5t-34.5 -78.5 q-16 -37 -32.5 -75t-35.5 -75q117 -43 228.5 -74.5t234.5 -31.5q68 0 129.5 42t102.5 107l-3 -6q4 10 10.5 18.5t10.5 18.5q6 14 12 26.5t10 16.5v-2q16 23 32 37t48 14q37 0 66 -29.5t29 -68.5q0 -6 -5 -23v-6q-29 -72 -75.5 -134.5t-105 -108.5t-125 -72.5t-136.5 -26.5 q-131 0 -260 37t-248 78q-10 4 -16 6t-11.5 3t-11.5 3l-18 6q-41 -49 -101.5 -91t-123.5 -42q-35 0 -77 10.5t-79 33t-62.5 59t-25.5 90.5z" />
<glyph unicode="[" horiz-adv-x="638" d="M244 -147v1646q0 39 26.5 65.5t65.5 26.5h289q37 0 65.5 -26.5t28.5 -65.5t-28.5 -65.5t-65.5 -26.5h-195v-1462h195q37 0 65.5 -26.5t28.5 -65.5t-28.5 -66t-65.5 -27h-289q-39 0 -65.5 27t-26.5 66z" />
<glyph unicode="\" d="M215 1542q0 41 26.5 67.5t67.5 26.5q74 0 90 -71l-2 2q90 -381 181.5 -763t183.5 -763q-2 4 -6 8q-2 2 -2 4l14 -37q0 -37 -28.5 -65.5t-65.5 -28.5q-74 0 -90 72l2 -2q-92 385 -182.5 760.5t-182.5 760.5q-6 12 -6 29zM762 41q4 -8 4 -16q-4 12 -4 16z" />
<glyph unicode="]" horiz-adv-x="638" d="M-78 -147q0 39 26.5 65.5t65.5 26.5h197v1462h-197q-39 0 -65.5 26.5t-26.5 65.5t26.5 65.5t65.5 26.5h289q37 0 65.5 -26.5t28.5 -65.5v-1646q0 -39 -28.5 -66t-65.5 -27h-289q-39 0 -65.5 27t-26.5 66z" />
<glyph unicode="^" horiz-adv-x="796" d="M254 961q0 35 25.5 62.5t46.5 43.5l4 4q33 31 52 51.5t34 36.5q16 23 46 52.5t70 29.5q27 0 62 -22q10 -10 21.5 -24.5t21.5 -25.5v2q39 -43 75 -82.5t68 -68.5q29 -28 29 -59q0 -41 -28.5 -65t-65.5 -24q-18 0 -41 13.5t-46.5 35t-46 45t-40.5 46.5l-9 8 q-23 -23 -49 -48.5t-53 -48t-49.5 -37t-34.5 -14.5q-39 0 -65.5 24t-26.5 65z" />
<glyph unicode="_" horiz-adv-x="1212" d="M-29 -76q0 35 26 65.5t66 30.5h1055q41 0 67.5 -30.5t26.5 -65.5q0 -39 -28.5 -65.5t-65.5 -26.5h-1055q-39 0 -65.5 26.5t-26.5 65.5z" />
<glyph unicode="`" horiz-adv-x="796" d="M262 1147q0 41 26.5 64.5t65.5 23.5q16 0 31.5 -5t34.5 -22q10 -10 22.5 -20t22.5 -21q27 -27 53.5 -50t56.5 -44h-4q4 -2 10.5 -5t10.5 -5q29 -16 59.5 -40t30.5 -67q0 -39 -28.5 -64.5t-65.5 -25.5q-12 0 -42 17.5t-66 44t-74.5 59.5t-70.5 63.5t-52.5 57.5t-20.5 39z " />
<glyph unicode="a" horiz-adv-x="974" d="M-92 315q0 80 29.5 153t82 126t123 85t152.5 32q113 0 209 -64q8 25 27.5 41.5t60.5 16.5q37 0 65.5 -26t28.5 -65v-460q0 -16 3 -33t13 -17q20 0 46 27t50.5 62.5t45 72.5t30.5 60l-2 -2q12 27 32 55.5t69 28.5q35 0 65.5 -26t30.5 -65q0 -16 -2 -22t-6 -14v2 q-12 -23 -19 -39q-10 -23 -22 -45.5t-31 -48.5q-27 -41 -59.5 -82t-69.5 -73t-77 -52.5t-81 -20.5q-117 0 -163 84q-51 -41 -114 -62.5t-130 -21.5q-82 0 -152.5 31t-123 85t-82 126t-29.5 151zM94 315q0 -43 15.5 -80.5t43 -66.5t63.5 -46.5t79 -17.5t80 17.5t64.5 46.5 t44 66.5t16.5 80.5t-16.5 81t-44 68t-64.5 47t-80 17t-79 -17t-63.5 -47t-43 -68t-15.5 -81zM1059 274q0 5 2 7q-2 -4 -2 -5v-2z" />
<glyph unicode="b" horiz-adv-x="708" d="M-115 1102q0 45 6.5 123t20.5 166t37.5 178t56.5 163.5t79 119.5t103 46q76 0 130.5 -55t88 -135t49 -169t15.5 -157q0 -127 -37 -267t-92 -281.5t-118.5 -273.5t-119.5 -241q4 -41 13.5 -78.5t26 -67.5t41 -48.5t59.5 -18.5q43 0 74.5 28t54.5 65q-53 47 -77 115.5 t-24 134.5q0 39 10.5 79.5t32 74.5t56.5 55.5t84 21.5q47 0 78.5 -21.5t51 -54.5t28 -71.5t8.5 -73.5q0 -29 -2.5 -58.5t-6.5 -58.5q4 4 9 12v-2q16 33 32.5 49.5t55.5 16.5t65.5 -25.5t26.5 -64.5q0 -6 -3 -18.5t-7 -22.5q-29 -76 -96.5 -115t-145.5 -41 q-45 -90 -119 -149.5t-186 -59.5q-80 0 -137.5 30t-96.5 80t-60.5 118.5t-27.5 146.5q-14 199 -25.5 399.5t-11.5 405.5zM70 899q0 -37 2 -81t8 -120q37 80 73.5 168t66.5 178.5t48.5 177t18.5 160.5q0 33 -5.5 87.5t-16.5 105.5t-30.5 88t-46.5 37q-6 0 -12 -14.5t-14 -34 t-14.5 -42t-12.5 -40.5q-2 -8 -4 -14.5t-4 -10.5q-27 -104 -41 -218t-14 -224q0 -76 -1 -120t-1 -83z" />
<glyph unicode="c" horiz-adv-x="673" d="M-92 315q0 80 29.5 153t82 126t123 85t152.5 32q18 0 60 -10.5t85 -29.5t75 -44t32 -54q0 -39 -29 -64.5t-65 -25.5q-23 0 -60 19l2 -2q-18 8 -44.5 18t-55.5 10q-43 0 -79 -17t-63.5 -46t-43 -68t-15.5 -82t15.5 -80.5t43 -66.5t63.5 -46.5t79 -17.5q86 0 144.5 47.5 t103.5 122.5v-2q12 23 24.5 44.5t26.5 43.5l-2 -2q12 23 28.5 37.5t51.5 14.5t65.5 -27t30.5 -66q0 -10 -1 -19t-11 -19q-31 -72 -76 -136.5t-102.5 -113.5t-129 -78t-153.5 -29t-152.5 31t-123 85t-82 126t-29.5 151z" />
<glyph unicode="d" horiz-adv-x="978" d="M-92 324q0 80 29.5 151.5t82 125.5t123 85t152.5 31q53 0 106.5 -15.5t98.5 -42.5q0 135 1 263.5t1 263.5q0 39 26.5 65.5t65.5 26.5q37 0 65.5 -26.5t28.5 -65.5l-4 -963v-33q0 -18 2 -37.5t6 -33t10 -13.5q16 0 26.5 9.5t27.5 25.5q0 2 2 4q37 45 72.5 103.5t54.5 93.5 l-2 -2q0 2 2 4q14 25 31.5 48.5t62.5 23.5q39 0 65.5 -25.5t26.5 -64.5q0 -10 -1 -19.5t-7 -21.5q-27 -53 -77 -133t-109 -140q-41 -41 -78 -65.5t-97 -24.5q-57 0 -97 25.5t-62 66.5q-100 -92 -248 -92q-82 0 -152.5 33t-123 88t-82 128t-29.5 153zM94 324q0 -43 15.5 -82 t42 -69t63.5 -48.5t80 -18.5t81 18.5t65.5 48.5t43 69t15.5 82t-15.5 80.5t-43 66.5t-65.5 45t-81 16t-80 -16t-63.5 -45t-42 -66.5t-15.5 -80.5z" />
<glyph unicode="e" horiz-adv-x="737" d="M-92 315q0 84 29.5 156t82 125t125 84t156.5 31q49 0 105.5 -16.5t104.5 -49.5t80 -79t32 -105q0 -70 -30 -122t-78 -88t-108.5 -54.5t-121.5 -18.5q-41 0 -80 5t-74 16q29 -43 70 -69t94 -26q98 0 179 40t134 126q2 4 5 10.5t8 16.5q8 16 19 35.5t25.5 36t32 28 t39.5 11.5q35 0 66 -26t31 -65q0 -10 -1.5 -18t-9.5 -18q-76 -166 -210 -262.5t-318 -96.5q-80 0 -150.5 32t-123 86t-83 125t-30.5 150zM106 401q45 -23 85 -31t94 -8q25 0 51 6.5t49 18.5t37 30.5t14 43.5q0 14 -14 27.5t-35.5 21.5t-45.5 13t-40 5q-66 0 -118 -34.5 t-77 -92.5z" />
<glyph unicode="f" horiz-adv-x="481" d="M-113 -336q0 113 3.5 225.5t11.5 223.5v43q0 23 2 45q2 23 3 44t1 44v762q0 43 3 122.5t12 173t26.5 190.5t47.5 177t74 130t105 50q80 0 138.5 -56t95 -138t54 -173t17.5 -161q0 -121 -30.5 -247t-77.5 -250t-104.5 -243.5t-112.5 -226.5q-12 -27 -26.5 -53.5 t-27.5 -54.5q31 -35 68 -63.5t74 -28.5q45 0 72.5 37.5t54.5 80.5v-2q6 10 13 21.5t13 21.5q33 51 84 52q37 0 65.5 -29t28.5 -66v-12t-4 -16v-2q-18 -43 -45.5 -87t-62.5 -81t-78 -63.5t-92 -37.5q41 -82 71.5 -165.5t57.5 -169.5q35 -106 53.5 -217t18.5 -216 q0 -82 -13.5 -174t-45.5 -170t-87 -129t-139 -51q-76 0 -129 52.5t-88 135t-56.5 187t-31.5 209t-13.5 199t-3.5 157.5zM76 -373q0 -39 1 -104.5t5 -141t11 -154.5t22.5 -143.5t38 -104.5t55.5 -40q31 0 50.5 34t28.5 82t12 101t3 92q0 111 -28.5 235t-71.5 249 q-27 76 -55.5 146.5t-63.5 129.5q0 -10 -1 -22.5t-1 -22.5q-2 -78 -4 -167t-2 -169zM96 715q37 78 72 160.5t62.5 166.5t45 166t17.5 158q0 37 -7 92t-20.5 107.5t-36 90.5t-53.5 38q-20 0 -33.5 -40t-22.5 -102.5t-13.5 -139.5t-7.5 -147.5t-3 -129.5v-84v-336z" />
<glyph unicode="g" horiz-adv-x="950" d="M-92 307q0 80 29.5 154t82 129t123 88t152.5 33q57 0 110.5 -17.5t100.5 -48.5q8 25 26.5 41t59.5 16q37 0 65.5 -25.5t28.5 -66.5v-452q39 29 78 66.5t67 74.5q4 8 9.5 13t9.5 14q4 8 9 15t11 17q31 43 78 43q35 0 65.5 -26.5t30.5 -65.5q0 -10 -3 -24.5t-11 -24.5 q-63 -106 -168 -197h2q-16 -14 -32.5 -27t-32.5 -26v2q-29 -23 -56.5 -46t-56.5 -52v-586q0 -55 -4 -121.5t-15.5 -135t-30 -134t-48 -116t-71.5 -81t-97 -30.5q-86 0 -139.5 53t-82 134t-38.5 177.5t-10 184.5q0 96 23.5 188t62 177t88 162t100.5 142q-60 -22 -124 -22h-5 q-82 0 -152.5 32.5t-123 88t-82 128t-29.5 152.5zM94 307q0 -43 15.5 -82t42 -68.5t63.5 -48t80 -18.5t81 18.5t65.5 48t43 68.5t15.5 82t-15.5 83t-43 69.5t-65.5 48t-81 18.5t-80 -18.5t-63.5 -48t-42 -69.5t-15.5 -83zM336 -741q0 -45 2 -101.5t10 -106.5t24.5 -85 t47.5 -35q29 0 45 46t23.5 110.5t9.5 131t2 109.5v361q-63 -92 -113.5 -203t-50.5 -227z" />
<glyph unicode="h" horiz-adv-x="794" d="M-106 844q0 180 8 357t53 358q12 43 31.5 99t49.5 108.5t72 88t99 35.5q86 0 146.5 -55t98 -136t56 -172t18.5 -165q0 -88 -17 -181.5t-46 -172.5q-23 -70 -53.5 -138.5t-79.5 -160.5q86 -23 134 -97.5t48 -165.5v-262q0 -25 2 -50t6 -25q18 0 40 19t43.5 48t41 62.5 t33.5 62.5q10 18 18.5 36.5t16.5 31.5q14 23 34.5 36t45.5 13q35 0 65.5 -26.5t30.5 -65.5l-4 -19q-18 -49 -54 -114.5t-84.5 -125t-106.5 -101.5t-120 -42q-68 0 -105.5 31t-58 77t-25.5 99t-5 98v217q0 31 -16.5 58.5t-51.5 27.5q-12 0 -27.5 -17t-32 -43t-34 -57.5 t-31.5 -60.5v2q-14 -29 -23.5 -48t-19.5 -34v-18q0 -6 2 -16q4 -53 7 -109.5t3 -114.5q0 -41 -26.5 -67.5t-67.5 -26.5q-35 0 -53 11.5t-27.5 30t-11.5 40t-2 41.5q0 47 -3 96t-7 99q-8 135 -9 286.5t-1 317.5zM84 719q0 -14 2 -64q4 10 14 23q33 53 61.5 109.5t55.5 115.5 q47 111 83 227.5t36 231.5q0 39 -5 83t-17.5 86t-32 79t-48.5 59q-16 16 -26 17q-10 0 -20.5 -22t-19.5 -51.5t-16.5 -60t-11.5 -49.5q-41 -160 -47 -326.5t-6 -340.5q0 -49 -1 -64.5t-1 -26.5v-26z" />
<glyph unicode="i" horiz-adv-x="518" d="M-92 315q0 25 12 50.5t23 48.5l8 16q14 29 21.5 56.5t15.5 56.5q4 10 5 21t5 22v-6q2 16 8 38.5t18.5 42t31 34t48.5 14.5q51 0 72 -35t21 -62v-434q0 -23 3 -48.5t13 -25.5q41 0 77 35t64 82q4 4 8.5 13.5t6.5 13.5q14 23 26.5 41t22.5 39l4 4q2 2 2 4t2 4l-2 -6 q12 25 31.5 49.5t60.5 24.5q29 0 62.5 -22t33.5 -69q0 -23 -17 -52l-34 -58q-8 -10 -11 -16.5t-5 -10.5l-8 -16q-8 -12 -19.5 -29.5t-7.5 -13.5q-25 -37 -55.5 -73t-68.5 -63.5t-81 -45t-92 -17.5q-68 0 -107.5 31t-61 77t-28 98t-6.5 95h-10q-39 0 -65.5 26.5t-26.5 65.5z M-2 870q0 47 30.5 81t80.5 34q47 0 81.5 -34t34.5 -81t-34.5 -80.5t-81.5 -33.5q-49 0 -80 33.5t-31 80.5z" />
<glyph unicode="j" horiz-adv-x="485" d="M-356 -737q0 117 32.5 217t84 185t112.5 157t119 135l8 10q2 0 10 10v242h-10q-39 0 -65.5 26.5t-26.5 65.5v17q0 8 4 16q2 6 4 13.5t4 11.5q16 41 33.5 83t34.5 87q2 8 4 14t4 18q4 16 7 34t13 40l-2 -4q10 37 33 53.5t57 16.5q41 0 67 -31t26 -66v-495q41 37 83 82 t76 90q6 8 11.5 15t11.5 16q8 10 15 21t16 22q30 38 73 38h2q37 0 66 -26.5t29 -65.5q0 -10 -4.5 -24.5t-14.5 -28.5l2 4q-63 -104 -158.5 -196.5t-191.5 -176.5l-8 -6q2 0 -8 -8v-518q0 -49 -5.5 -115.5t-18.5 -137.5t-32.5 -139.5t-49.5 -122.5t-68.5 -88t-90.5 -34 q-74 0 -129 53t-90 134t-52 176.5t-17 179.5zM-168 -737q0 -41 5 -95.5t17.5 -104.5t32 -85t45.5 -35q25 0 39.5 51.5t23.5 119t12 137t3 106.5v313q-35 -41 -66.5 -86t-56 -95t-40 -106.5t-15.5 -119.5zM-2 870q0 47 30.5 81t80.5 34q47 0 81.5 -34t34.5 -81t-34.5 -80.5 t-81.5 -33.5q-49 0 -80 33.5t-31 80.5z" />
<glyph unicode="k" horiz-adv-x="798" d="M-117 1059q0 47 6.5 128t20.5 174t36.5 189.5t57.5 174t82 127t109 49.5q80 0 138 -59.5t97 -145.5t58.5 -179.5t19.5 -160.5q0 -78 -19.5 -170t-54.5 -187q-25 -72 -53.5 -141.5t-69.5 -148.5q88 -14 147.5 -74t59.5 -158q0 -74 -37 -131q18 -35 21.5 -65.5t3.5 -71.5 v-29q0 -16 1 -32.5t2 -29t3 -12.5q25 0 49.5 22t47 52.5t41 65.5t32.5 61q4 4 3 5t3 5v-2q8 10 14.5 20.5t10.5 22.5q35 57 84 58q35 0 65.5 -26.5t30.5 -65.5q0 -10 -3 -24.5t-11 -25.5l2 7q-25 -49 -60 -112t-80 -118t-102 -92t-127 -37q-61 0 -99 32t-57.5 79t-26.5 99 t-7 93q-45 -10 -84 -10q-43 0 -82 14.5t-62 49.5q-4 -4 -4 -7q4 -63 4 -129v-129q0 -41 -28.5 -66.5t-65.5 -25.5q-39 0 -65.5 25.5t-26.5 66.5q0 113 -4 228.5t-8 238.5q-4 137 -8.5 280.5t-4.5 297.5zM76 860q0 -37 1 -80t5 -116q2 2 2 4q0 4 2 6q57 111 113 244v-3 q49 121 82.5 236t33.5 205q0 33 -7 90t-21.5 113.5t-38 97.5t-53.5 41q-10 0 -19.5 -20.5t-19 -49.5t-16.5 -57.5t-11 -46.5q-29 -113 -41 -228.5t-12 -236.5v-119v-80zM205 485q10 2 19 3t20 1q23 0 45 -3t43 -11v2q0 27 -22.5 39t-51.5 12q-12 0 -25.5 -12t-27.5 -31z" />
<glyph unicode="l" horiz-adv-x="542" d="M-117 1124q0 43 6.5 118t19.5 160t36.5 173t57.5 159.5t80 116.5t105 45t105.5 -27.5t81.5 -71.5t58.5 -101.5t38.5 -115.5t22.5 -114.5t7.5 -99.5q0 -98 -30 -217t-74 -238.5t-95 -231.5t-92 -194q-2 -4 -3 -7t-3 -7q-25 -49 -49.5 -95t-59.5 -85q6 -33 17.5 -65.5 t29 -59.5t41 -43.5t54.5 -16.5q25 0 46 14.5t41.5 37t39 49t34.5 53.5q4 6 6.5 10t6.5 11q31 57 58.5 97t70.5 40q37 0 65.5 -25.5t28.5 -66.5q0 -14 -2 -22.5t-4 -14.5q-16 -35 -40 -75t-59 -87q-29 -39 -59.5 -76t-65 -65.5t-76.5 -46t-91 -17.5q-88 0 -149.5 39 t-100.5 98.5t-58.5 132t-21.5 138.5q2 16 2 35v38q0 66 -4 147t-8 173q-4 102 -9.5 205.5t-5.5 195.5zM74 1130q0 -109 5 -229.5t9 -230.5q41 86 81 181t71.5 187t51 177t19.5 151q0 74 -14 137q-6 29 -16.5 62.5t-24.5 62.5t-31.5 48.5t-36.5 19.5q-6 0 -14 -15.5t-15 -37 t-14 -47t-14 -44.5v2q-2 -6 -3 -14t-3 -12v2q-29 -98 -40 -197.5t-11 -202.5z" />
<glyph unicode="m" horiz-adv-x="1400" d="M-92 315q0 18 8 37t18 43l7 13h-2q12 27 22 54t19 48q4 10 6 16t4 13q12 31 31.5 60.5t46 54t59.5 39t70 14.5q76 0 120 -43q35 20 76 31.5t82 11.5q51 0 96 -13.5t82 -46.5q72 59 164 60q53 0 103.5 -16.5t88.5 -48.5t60.5 -78t22.5 -103v-234q0 -18 1 -39.5t5 -40 t14 -31t29 -12.5q14 0 39.5 30t52.5 71t51.5 84t36.5 69q29 49 80 50q35 0 65.5 -26t30.5 -65q0 -10 -1 -19t-11 -19q-16 -37 -46 -85.5t-65 -95.5q-53 -70 -113.5 -123t-119.5 -53q-72 0 -118 25.5t-72.5 68.5t-37 98.5t-10.5 112.5v234q0 35 -25.5 49t-60.5 14 t-57.5 -30.5t-22.5 -65.5v-414q0 -39 -28.5 -65.5t-65.5 -26.5q-39 0 -65.5 26.5t-26.5 65.5v414q0 45 -15.5 70.5t-60.5 25.5q-29 0 -61.5 -17.5t-32.5 -45.5v-447q0 -39 -28.5 -65.5t-65.5 -26.5q-39 0 -65.5 26.5t-26.5 65.5v453v35q0 23 2 22q-12 0 -29.5 -42t-34.5 -89 q-12 -31 -24.5 -61.5t-27.5 -55t-35.5 -39t-45.5 -14.5q-39 0 -65.5 26.5t-26.5 65.5z" />
<glyph unicode="n" horiz-adv-x="1036" d="M-102 307q0 6 6 25.5t14 41t16.5 41t14.5 29.5q4 10 5 19.5t5 21.5q4 10 10 26.5t11 27.5q12 31 31.5 61.5t46 55t59.5 40t71 15.5q72 0 115 -47q33 23 72 35t78 12q53 0 102 -16.5t86 -49.5t59.5 -79t22.5 -105v-234q0 -18 1 -39.5t7 -40t16.5 -31t28.5 -12.5 q12 0 36 29t47.5 66t44 74.5t30.5 56.5q2 4 4 6t4 6q16 27 34.5 46.5t59.5 19.5q39 0 65.5 -26t26.5 -65q0 -10 -8 -34.5t-16 -34.5q-18 -35 -54 -89.5t-81 -107.5t-95.5 -91t-97.5 -38q-72 0 -118 25.5t-73.5 68.5t-37.5 98.5t-10 112.5v234q0 35 -25 51t-59 16 q-35 0 -58.5 -31.5t-23.5 -68.5v-414q0 -39 -27 -65.5t-65 -26.5q-37 0 -66 26.5t-29 65.5v453v33q0 25 2 28q-16 -2 -29.5 -37.5t-23.5 -68.5v2q-4 -14 -7 -25.5t-7 -21.5q-2 -4 -4 -10.5t-6 -20.5q-6 -20 -16.5 -43.5t-24 -43t-33 -32t-43.5 -12.5q-37 0 -65.5 26.5 t-28.5 65.5z" />
<glyph unicode="o" horiz-adv-x="819" d="M-92 315q0 80 29.5 153t82 126t123 85t152.5 32t152.5 -32t124 -85t84 -126t30.5 -153v-2q16 6 26.5 17.5t20.5 21.5q16 23 33.5 39.5t52.5 16.5q37 0 65.5 -26t28.5 -65v-12t-4 -16v-4q-35 -72 -101.5 -115t-143.5 -43h-25q-53 -96 -143 -150.5t-201 -54.5 q-82 0 -152.5 31t-123 85t-82 126t-29.5 151zM94 315q0 -43 15.5 -80.5t43 -66.5t63.5 -46.5t79 -17.5q53 0 99 27t75 74q-39 37 -62.5 84t-23.5 102t25 103q-50 34 -110 34h-3q-43 0 -79 -17t-63.5 -47t-43 -68t-15.5 -81z" />
<glyph unicode="p" horiz-adv-x="860" d="M-92 307q0 8 1 17.5t7 21.5l-4 -8q6 20 15.5 40.5t17.5 41.5q10 27 21 53.5t20 52.5q0 6 2 13q0 4 4 24q4 18 9 35.5t15 46.5q12 27 31 45.5t57 18.5q43 0 66 -25q27 12 53.5 17.5t55.5 5.5q55 0 105 -16.5t87 -49.5t58.5 -79t21.5 -105v-240q0 -20 1 -42.5t5 -41 t14.5 -31t28.5 -12.5q10 0 28.5 23.5t39.5 52.5q29 41 56.5 85t41.5 73q12 29 30.5 52t63.5 23q35 0 65.5 -25.5t30.5 -64.5q0 -16 -10 -41v-6q-18 -39 -48 -86t-69 -100l2 2q-20 -29 -38.5 -50.5t-38.5 -41.5q-35 -35 -72 -57.5t-82 -22.5q-74 0 -120 27.5t-71.5 72.5 t-34.5 100.5t-9 110.5v240q0 35 -26 50t-60 15q-35 0 -58.5 -32.5t-23.5 -67.5l2 -1608q0 -39 -29 -65.5t-66 -26.5q-39 0 -65.5 26.5t-26.5 65.5l-2 1401h-10q-39 0 -65.5 26.5t-26.5 65.5z" />
<glyph unicode="q" horiz-adv-x="976" d="M-92 307q0 80 29.5 152.5t82 129t123 89.5t152.5 33q113 0 209 -64q8 25 27.5 42.5t60.5 17.5t67.5 -29t26.5 -66v-471q0 -18 3 -34.5t13 -16.5q20 0 46 26.5t50.5 63.5t45 75t30.5 60q2 4 4.5 7.5t4.5 7.5q12 27 31.5 48t60.5 21q35 0 65.5 -23.5t30.5 -66.5v-12 q0 -6 -4 -16v10v-8q-16 -45 -54 -109.5t-88.5 -124t-108.5 -101.5t-114 -42q-4 0 -5 -1t-3 -1h-2h-2q-4 0 -4 2q-2 -274 -3 -549t-3 -549q-2 -37 -30.5 -64.5t-63.5 -27.5q-39 0 -65.5 26.5t-26.5 65.5l4 1157q-94 -59 -203 -59q-82 0 -152.5 32.5t-123 88t-82 128 t-29.5 152.5zM94 307q0 -43 15.5 -82t42 -68.5t63.5 -48t80 -18.5t81 18.5t65.5 48t43 68.5t15.5 82t-15.5 83t-43 69.5t-65.5 48t-81 18.5t-80 -18.5t-63.5 -48t-42 -69.5t-15.5 -83z" />
<glyph unicode="r" horiz-adv-x="819" d="M-109 295q0 8 9.5 32.5t17.5 37.5q18 41 36.5 86t33.5 86q-29 29 -45.5 65.5t-16.5 75.5q0 33 6.5 65.5t23.5 58t45 41t71 15.5q66 0 102.5 -44t36.5 -101v-27q16 2 29.5 3t27.5 1q39 0 86 -9t86 -31.5t65.5 -59.5t26.5 -92q0 -49 -12 -92.5t-24 -83.5q-12 -37 -22.5 -73 t-10.5 -71q0 -29 19.5 -50.5t45.5 -21.5q33 0 72 41t64 86v-2q6 12 13 24.5t13 23.5q10 18 21.5 34.5t23.5 44.5v-2q23 53 82 54q35 0 65.5 -26t30.5 -65v-10q0 -2 -4 -12v-4q-12 -29 -25.5 -53.5t-27.5 -49.5q-10 -16 -22 -36q-27 -43 -61 -85t-72.5 -74t-83 -52.5 t-89.5 -20.5q-53 0 -98 20.5t-80 56.5t-54.5 82t-19.5 97q0 49 10.5 91t26.5 85q12 37 22.5 73t10.5 71q0 6 -29.5 7t-48.5 1q-23 0 -41 -3t-34 -7q-10 -4 -11 -4q0 2 -12 0q-12 -41 -31.5 -89.5t-40.5 -91.5l-2 -2l-10 -20q-16 -31 -38.5 -58.5t-61.5 -27.5q-37 0 -66 26.5 t-29 65.5z" />
<glyph unicode="s" horiz-adv-x="808" d="M-92 317q0 6 10 34t25.5 65t32 74.5t28.5 62.5q-53 55 -53 139q0 72 42 120t118 48q63 0 107 -43t44 -106q0 -12 -5 -28.5t-11 -35.5q63 -16 130.5 -41.5t124 -66.5t92.5 -99.5t36 -136.5q0 -51 -13 -102q23 23 38.5 41t31.5 45q2 4 6 14t8 14q8 14 15.5 28.5t15.5 25.5 q16 23 29.5 32t46.5 9q35 0 65.5 -26t30.5 -65v-10q0 -2 -4 -12v-4q-74 -174 -205 -272.5t-319 -98.5h-90q-41 0 -97.5 19.5t-108.5 52.5t-89 77t-37 95q0 35 24 63q-31 8 -50 32t-19 56zM68 256q37 -6 49 -27.5t20 -48.5q2 -4 2 -6t2 -6v4q6 -10 24.5 -22.5t40 -21.5 t44 -15.5t35.5 -6.5q37 0 66.5 17.5t49 45.5t30.5 62.5t11 71.5t-26.5 65.5t-67.5 50t-89 36t-89 24.5q-4 -12 -10 -28.5t-13 -32.5q-10 -25 -20.5 -48t-20.5 -48q-6 -16 -14 -34t-24 -32zM217 584q6 6 10 20q-4 -6 -6 -11t-4 -9z" />
<glyph unicode="t" horiz-adv-x="505" d="M-92 276v922q0 39 28.5 65.5t65.5 26.5q39 0 65.5 -26.5t26.5 -65.5v-233h316q39 0 65.5 -27t26.5 -66t-26.5 -65.5t-65.5 -26.5h-316v-504q0 -66 35 -118t102 -52q20 0 46 27t49.5 62.5t44 73.5t30.5 61q2 4 5.5 7t5.5 7q16 29 34.5 50.5t59.5 21.5q39 0 65.5 -25.5 t26.5 -64.5v-13q0 -8 -4 -16q-16 -47 -54 -110.5t-87.5 -123t-107.5 -100.5t-114 -41q-78 0 -137 29t-101 78t-63.5 113.5t-21.5 133.5z" />
<glyph unicode="u" horiz-adv-x="968" d="M-92 315q0 18 15.5 58.5t31.5 81.5q4 12 9 25.5t9 23.5q6 12 11 24q2 4 4 11.5t6 29.5v-2q8 31 15 61.5t30 53.5q27 27 65 27q41 0 67 -31t26 -66v-372q0 -66 51 -101t114 -35q33 0 58.5 19.5t42 49.5t25 65.5t8.5 68.5v305q0 39 26.5 66t65.5 27q37 0 65.5 -27t28.5 -66 v-458q0 -16 3 -33t13 -17q18 0 40 21.5t43.5 52.5t41 62.5t29.5 50.5q4 8 9 15t9 18q4 6 6.5 13t6.5 13q4 8 8 15q31 43 78 43q35 0 65.5 -26t30.5 -65q0 -14 -6 -26v-6q-23 -45 -58.5 -107.5t-83 -119t-102.5 -96.5t-117 -40q-106 0 -153 70q-39 -33 -85 -51.5t-98 -18.5 q-66 0 -128 20.5t-111 59.5t-80 94.5t-33 126.5h-10q-39 0 -65.5 26.5t-26.5 65.5z" />
<glyph unicode="v" horiz-adv-x="872" d="M-92 315q0 12 10 45t24.5 68t29 67.5t20.5 45.5q12 23 29.5 51.5t39 54t51 43t66.5 17.5q45 0 73 -21.5t42 -54.5t19 -69t5 -64q0 -23 -1 -42.5t-1 -39.5q-2 -20 -2 -39v-39q0 -33 2 -73t11.5 -75.5t29 -60.5t54.5 -25q41 0 79.5 19.5t61.5 52.5q-33 25 -55.5 59.5 t-36 71.5t-19.5 73t-6 60q0 39 6 85t24.5 85t53.5 64.5t92 25.5q51 0 85 -32.5t54.5 -77.5t28.5 -95.5t8 -82.5v-39q0 -16 -2 -35q8 6 13 16v-2q16 33 32.5 49.5t55.5 16.5q37 0 65.5 -25.5t28.5 -64.5q0 -6 -3 -18.5t-7 -22.5q-35 -66 -102.5 -108t-137.5 -48 q-47 -98 -126 -153.5t-193 -55.5q-96 0 -151.5 41t-84.5 103.5t-37 138.5t-8 143v25q-23 -59 -53.5 -104.5t-75.5 -45.5q-39 0 -65.5 26.5t-26.5 65.5z" />
<glyph unicode="w" horiz-adv-x="1312" d="M-92 315q0 12 10 45t23.5 70t28 68.5t20.5 44.5v-2q2 4 3 5t3 5q12 25 28.5 51.5t38 50t49 39t62.5 15.5q45 0 72.5 -21.5t42 -54.5t19.5 -69t5 -64v-258q0 -23 6.5 -46.5t17.5 -44t27.5 -33t38.5 -12.5q63 0 97.5 36t50.5 90.5t19 116t3 114.5v151q0 39 27 66t66 27 q37 0 65.5 -27t28.5 -66v-372q0 -23 6 -46.5t17.5 -44t27.5 -33t39 -12.5q41 0 79 18.5t60 53.5q-33 25 -55.5 59.5t-35.5 71.5t-19.5 73t-6.5 60q0 39 6.5 85t26 85t54 64.5t92.5 25.5q51 0 84.5 -32.5t53 -77.5t28 -95.5t8.5 -82.5v-39q0 -20 -2 -37q10 6 14 18v-2 q16 33 32.5 49.5t55.5 16.5t65.5 -25.5t26.5 -64.5q0 -6 -3 -18.5t-7 -22.5q-35 -68 -101.5 -110t-136.5 -46q-47 -98 -125.5 -153.5t-193.5 -55.5q-66 0 -116 26.5t-87 71.5q-47 -49 -109.5 -73.5t-134.5 -24.5q-63 0 -114 27.5t-88 73t-56.5 102.5t-19.5 115v125 q-20 -57 -48 -99.5t-77 -42.5q-39 0 -65.5 26.5t-26.5 65.5z" />
<glyph unicode="x" horiz-adv-x="1263" d="M-92 315q0 16 12 46t27.5 62t32 59.5t26.5 41.5q55 90 128 138.5t183 48.5q92 0 168 -34t129 -106q53 66 129 103t166 37q72 0 150 -29t127 -86q25 -31 24 -61q0 -39 -28.5 -65t-65.5 -26q-14 0 -28.5 8.5t-32.5 18.5q-25 16 -65 36.5t-81 20.5q-43 0 -78.5 -17 t-63.5 -47t-43 -68t-15 -81t15 -80.5t43 -66.5t63.5 -46.5t78.5 -17.5q51 0 89 18.5t66 47.5t48.5 62.5t36.5 64.5q27 47 50.5 79t64.5 32q37 0 65.5 -26t28.5 -65v-12t-4 -16q-31 -74 -73 -139.5t-96.5 -116.5t-123 -81t-152.5 -30q-86 0 -163.5 38t-131.5 99 q-53 -72 -128.5 -104.5t-168.5 -32.5q-43 0 -85 14.5t-80.5 39t-70.5 56t-54 64.5q-16 25 -17 54q0 41 26.5 64.5t65.5 23.5q25 0 48.5 -18.5t46.5 -41.5t55.5 -48.5t64.5 -25.5q43 0 80 17.5t64.5 46.5t44 66.5t16.5 80.5t-16.5 81t-44 68t-64.5 47t-80 17q-39 0 -65.5 -11 t-45 -29.5t-32.5 -44t-27 -54.5q-14 -29 -29.5 -58.5t-39.5 -64.5q-14 -18 -31.5 -30.5t-46.5 -12.5q-39 0 -65.5 26.5t-26.5 65.5z" />
<glyph unicode="y" horiz-adv-x="954" d="M-92 307q0 10 1 19.5t7 21.5q4 10 8 18.5t8 18.5l-2 -2q16 39 30.5 75t25.5 72q4 8 8 35q2 27 22 76l-2 -2q10 29 29.5 49.5t60.5 20.5t67 -31t26 -66v-383q0 -68 49 -103.5t114 -35.5q35 0 60.5 20.5t42 51.5t24 67.5t7.5 69.5v311q0 41 26.5 66.5t65.5 25.5 q37 0 65.5 -25.5t28.5 -66.5v-506q35 35 77 83.5t70 88.5q4 4 7.5 10.5t7.5 10.5q4 6 6 10q16 31 31 51q31 41 75 41q35 0 66 -26.5t31 -65.5q0 -27 -15 -47l2 4q-66 -125 -156.5 -220t-201.5 -177v-481q0 -51 -5 -120t-18.5 -142.5t-33 -145.5t-49 -129t-69.5 -92t-91 -35 q-78 0 -127 60.5t-76 149.5t-36 190.5t-9 183.5q0 113 35 213t88 186q39 63 82 119.5t86 97.5q-49 -16 -97 -16q-68 0 -130 21.5t-109 62.5t-78 97t-33 128h-10q-39 0 -65.5 26.5t-26.5 65.5zM352 -692q0 -41 1 -101.5t7.5 -119t18.5 -99.5t35 -41q14 0 26.5 24.5t21.5 63.5 t15 88.5t9 96.5t5.5 88t2.5 65v289l-2 -4q-2 -4 -6.5 -8t-4.5 -6q-51 -66 -90 -147t-39 -189z" />
<glyph unicode="z" horiz-adv-x="804" d="M-88 309q0 4 8 32t19 60q12 35 26.5 76t18.5 53q-29 29 -46.5 67t-17.5 79q0 33 8.5 65.5t26.5 59t47 43t70 16.5q33 0 58.5 -14.5t42.5 -36t26.5 -50t9.5 -54.5q0 -16 -2 -25q16 4 30.5 6t30.5 2q43 0 88 -10t83 -33.5t62.5 -61.5t24.5 -91q0 -43 -17 -95.5t-34 -99.5 q-8 -18 -16 -39.5t-13 -38.5q-2 -12 -7 -24.5t-9 -24.5q12 2 27 2h24q63 0 111 -33q29 39 54.5 75t43.5 77q0 6 6 12q4 10 8.5 22.5t18.5 34.5q12 18 27.5 30.5t50.5 12.5q37 0 65.5 -26.5t28.5 -65.5q0 -8 -1 -15t-7 -20q-31 -86 -78 -156.5t-104 -135.5q20 -72 37.5 -159 t30.5 -177t20.5 -179.5t7.5 -164.5q0 -82 -16.5 -183.5t-53.5 -189.5t-96.5 -148.5t-145.5 -60.5q-84 0 -143 58.5t-97 145.5t-55.5 187.5t-17.5 184.5q2 117 23.5 212t58.5 176t87 153.5t112 146.5q-27 -6 -56.5 -20.5t-50.5 -24.5q-23 -12 -46 -22.5t-42 -10.5 q-39 0 -65.5 23.5t-26.5 64.5l2 14q10 41 30.5 92.5t43.5 106.5q35 84 64.5 163t29.5 120q0 6 -26.5 8t-45.5 2q-27 0 -67 -10q-10 -2 -19.5 -4.5t-19.5 -4.5q-6 -27 -15.5 -58.5t-18.5 -61t-20.5 -56t-23.5 -45.5q-14 -20 -27.5 -32.5t-52.5 -12.5t-65.5 26.5t-26.5 65.5z M369 -702q0 -43 7 -103.5t21.5 -117t38 -96.5t53.5 -40q33 0 56.5 41t38 99.5t20.5 120t6 102.5q0 121 -11 247.5t-42 241.5q-39 -53 -72.5 -106.5t-59.5 -112.5t-41 -127t-15 -149z" />
<glyph unicode="{" horiz-adv-x="491" d="M-66 557q0 51 29 67.5t66 24.5q8 2 18 7.5t6 0.5q27 18 42.5 60.5t21.5 92.5t7 100.5t1 82.5q0 39 -1 77t-1 79v158q0 53 5 127.5t28.5 142.5t70.5 116t131 48q37 0 66 -26.5t29 -65.5q0 -55 -30 -71.5t-65 -25.5q-4 -2 -8 -3t-8 -3l6 2q-14 -6 -22.5 -36.5t-11.5 -68.5 t-4 -76t-1 -60v-80t2 -78q0 -41 1 -79t1 -77q0 -49 -2 -107.5t-11 -116.5t-28.5 -113.5t-56.5 -98.5q35 -43 53.5 -97t27.5 -112.5t11 -116t2 -104.5q0 -43 -1 -87t-1 -85q-2 -43 -2 -84v-84q0 -20 1 -55t5 -70t11.5 -63.5t21.5 -36.5q4 -4 14 -4q35 -8 65 -25t30 -70 q0 -39 -29 -65.5t-66 -26.5q-84 0 -131 48.5t-71.5 116t-30.5 142t-6 127.5v84q0 41 2 82q0 31 1 81t1 83q0 29 -2 76t-8.5 95t-18.5 88t-35 57q-4 2 -16 6q-18 4 -36.5 11t-35 18.5t-27 28.5t-10.5 42zM51 655q2 0 2 2z" />
<glyph unicode="|" horiz-adv-x="356" d="M86 14v1456q0 39 26.5 66t65.5 27q37 0 65.5 -27t28.5 -66v-1456q0 -39 -28.5 -65.5t-65.5 -26.5q-39 0 -65.5 26.5t-26.5 65.5z" />
<glyph unicode="}" horiz-adv-x="491" d="M41 -537q0 29 8 45.5t21.5 26.5t30 14.5t32.5 8.5q4 0 10.5 2t8.5 4q12 14 18 42.5t10 60.5t5 63.5t1 52.5q0 43 -1 85t-1 85v170q0 49 2 106.5t11.5 115.5t28 113.5t53.5 98.5q-37 43 -56.5 99.5t-29 115.5t-11.5 117.5t-2 107.5v82t2 82q0 31 1 79t1 81q0 20 -1 57 t-5 73t-13 65.5t-28 37.5q4 -2 -2 -2q-4 0 -8 2q-31 8 -58.5 24.5t-27.5 70.5q0 39 26.5 65.5t65.5 26.5q82 0 129 -48t71.5 -116t31 -141.5t6.5 -124.5q0 -41 -1 -80t-1 -80v-160q0 -31 1 -82t7 -102t20.5 -93t38.5 -55q4 -2 7 -3t10 -3q37 -10 71.5 -26.5t34.5 -69.5 q0 -25 -10 -42t-26.5 -28.5t-36 -18.5t-37.5 -11q-4 -2 -9.5 -3t-7.5 -3q-23 -16 -35 -57.5t-18 -91.5t-7 -99t-1 -80v-82q0 -39 2 -80q0 -41 1 -80t1 -80q0 -53 -7.5 -126.5t-32 -141.5t-72.5 -115t-130 -47q-39 0 -65.5 27t-26.5 65z" />
<glyph unicode="~" horiz-adv-x="1179" d="M31 1073v21q0 10 8 20q29 59 83 100t126 41q66 0 113 -24.5t92 -52.5q33 -23 64.5 -40.5t64.5 -17.5q37 0 59 39v-2q27 47 82 47q35 0 65.5 -23.5t30.5 -66.5q0 -37 -26.5 -68.5t-64.5 -54t-79 -35t-67 -12.5q-74 0 -131.5 28.5t-104.5 59.5h2q-29 18 -54.5 32.5 t-45.5 14.5q-6 0 -14.5 -11t-18.5 -21v2q-16 -25 -35.5 -44.5t-54.5 -19.5q-37 0 -65.5 23.5t-28.5 64.5z" />
<glyph unicode="&#xa8;" horiz-adv-x="737" d="M20 915q0 59 44.5 99.5t101.5 40.5q35 0 64.5 -15.5t48.5 -42.5q20 27 50.5 42.5t65.5 15.5q59 0 100.5 -40.5t41.5 -99.5t-41 -99t-101 -40q-35 0 -65.5 15.5t-50.5 42.5q-18 -27 -48 -42.5t-65 -15.5q-57 0 -101.5 40t-44.5 99z" />
<glyph unicode="&#xab;" d="M125 371q0 16 5 33.5t17 29.5l-2 -4q74 90 150 178t149 178h-2q27 33 74 33q37 0 65.5 -26.5t28.5 -65.5q0 -14 -5 -27.5t-15 -29.5l-250 -299q59 -72 123.5 -146.5t124.5 -146.5l-2 4q24 -25 24 -62q0 -39 -28.5 -65.5t-65.5 -26.5q-47 0 -74 33h2q-74 88 -149.5 176 t-149.5 176l2 -4q-23 23 -22 62zM412 371q0 16 5 33.5t17 29.5l-2 -4q74 90 149.5 178t149.5 178h-2q27 33 74 33q37 0 65.5 -26.5t28.5 -65.5q0 -14 -5 -27.5t-15 -29.5l-250 -299q59 -72 123.5 -146.5t123.5 -146.5l-2 4q25 -25 25 -62q0 -39 -28.5 -65.5t-65.5 -26.5 q-47 0 -74 33h2q-74 88 -149.5 176t-149.5 176l2 -4q-23 23 -22 62z" />
<glyph unicode="&#xad;" horiz-adv-x="1458" d="M201 352q0 41 26.5 67.5t65.5 26.5h870q37 0 65.5 -26.5t28.5 -67.5t-26.5 -66.5t-67.5 -25.5h-870q-39 0 -65.5 26.5t-26.5 65.5z" />
<glyph unicode="&#xb0;" horiz-adv-x="491" d="M51 1262q0 45 17.5 80.5t47 61.5t67.5 40t79 14t79 -14t67.5 -40t48 -61.5t18.5 -80.5t-18.5 -82t-48 -62.5t-67.5 -40t-79 -14.5t-79 14.5t-67.5 40t-47 62.5t-17.5 82zM238 1262q0 -10 7 -15.5t17 -5.5t18.5 5.5t8.5 15.5q0 8 -8.5 13t-18.5 5t-17 -5t-7 -13z" />
<glyph unicode="&#xb2;" horiz-adv-x="272" d="M-92 12q0 39 26.5 64.5t65.5 25.5q18 0 39.5 20.5t43 50.5t41 60.5t30.5 49.5v-2l12 24l-2 -6q16 31 38.5 63.5t67.5 32.5q35 0 66 -25.5t31 -64.5l-5 -20q-18 -43 -56 -105.5t-87 -120t-106.5 -97.5t-112.5 -40q-39 0 -65.5 25.5t-26.5 64.5z" />
<glyph unicode="&#xb4;" horiz-adv-x="405" d="M0 1100q0 14 10 34.5t23 41.5q16 25 32.5 56.5t16.5 49.5q0 8 -7 21.5t-14 23.5v-2q-10 14 -17 25.5t-7 33.5q0 39 28.5 66t65.5 27q29 0 53.5 -22.5t43 -54.5t29.5 -65t11 -53t-17.5 -65.5t-44 -91.5t-56 -80.5t-56.5 -34.5q-37 0 -65.5 25.5t-28.5 64.5z" />
<glyph unicode="&#xb8;" horiz-adv-x="763" d="M199 -315q0 39 27.5 63.5t62.5 26.5v20q0 8 1 15.5t5 17.5q14 70 14 162q0 39 29 64.5t65 25.5q37 0 66 -25.5t29 -64.5v-45t-4 -45q31 -10 61.5 -30t56 -45.5t41 -56t15.5 -63.5q0 -45 -22.5 -78t-56.5 -54.5t-74 -31.5t-75 -10q-63 0 -129.5 22.5t-101.5 88.5 q-8 10 -9 20t-1 23zM395 -283q14 -6 45 -6q8 0 24.5 -1t16.5 -5q0 8 -19.5 15.5t-31.5 7.5q-4 0 -6 -2q-8 -2 -14.5 -4.5t-14.5 -4.5z" />
<glyph unicode="&#xba;" horiz-adv-x="1024" />
<glyph unicode="&#xbb;" d="M129 20q0 39 23 62l-2 -4q35 41 65.5 76.5t59 69.5t59.5 70t65 77q-63 74 -124.5 148.5t-124.5 148.5l2 -4q-12 12 -17.5 29.5t-5.5 33.5q0 39 26.5 65.5t65.5 26.5q47 0 74 -33h-2q74 -90 150.5 -179t150.5 -179q10 -16 15 -29.5t5 -27.5q0 -37 -24 -62l2 4 q-74 -88 -149.5 -176t-149.5 -176h2q-27 -33 -74 -33q-39 0 -65.5 27t-26.5 65zM416 20q0 39 22 62l-2 -4q35 41 65.5 76.5t59.5 69.5t59.5 70t65.5 77q-63 74 -124.5 148.5t-125.5 148.5l2 -4q-12 12 -17 29.5t-5 33.5q0 39 26.5 65.5t65.5 26.5q47 0 74 -33h-2 q74 -90 150.5 -179t150.5 -179q10 -16 15 -29.5t5 -27.5q0 -37 -24 -62l2 4q-74 -88 -150 -176t-149 -176h2q-27 -33 -74 -33q-39 0 -65.5 27t-26.5 65z" />
<glyph unicode="&#xc0;" horiz-adv-x="1501" d="M-92 111q0 72 53 121t123 49q92 0 92 -93q0 -35 -13 -53t-32 -29h27q100 0 156.5 54.5t84 135.5t33.5 176t6 175v164q-23 -8 -49 -23q-14 -10 -26.5 -16t-32.5 -6q-37 0 -65.5 28.5t-28.5 65.5q0 39 28 68q35 33 81 51t93 22q0 25 1 52.5t3 52.5q2 39 3 75t1 76 q0 53 12.5 121t40 129.5t75 106.5t118.5 51q-33 29 -64.5 59.5t-56 58t-40 49t-15.5 34.5q0 39 29.5 65.5t66.5 26.5q20 0 31.5 -2t24.5 -14q2 -4 20.5 -25t26.5 -31q14 -16 27.5 -30.5t29.5 -28.5t39 -30.5t45 -33.5q10 -8 21.5 -17t21.5 -17q39 -33 39 -72 q0 -29 -15.5 -51.5t-37.5 -34.5q20 -35 31.5 -78t16.5 -86t6 -84t1 -74q0 -84 -6 -166t-12 -163v-2h2q18 0 33.5 12t29.5 22h-2q18 16 36.5 28.5t47.5 12.5q39 0 65.5 -28.5t26.5 -65.5q0 -39 -26 -65q-41 -41 -94.5 -71t-116.5 -30q-6 0 -8.5 -1t-0.5 -1q-2 0 -4 1t-6 1 q-4 -47 -4 -92v-92q0 -55 3 -131t20.5 -145.5t55.5 -118t107 -48.5q45 0 85 19.5t68 51.5t44 74t16 87q0 20 -11 36.5t-29 16.5q-4 0 -5 -10q-10 -31 -24 -55.5t-68 -24.5q-37 0 -65.5 25.5t-28.5 66.5q0 39 15.5 73t42 58.5t61.5 39t72 14.5q49 0 91 -19.5t72.5 -53.5 t47 -77t16.5 -90q0 -84 -31 -159t-84 -132t-125.5 -91t-159.5 -34q-88 0 -149 31t-102 82t-66 117.5t-37 138t-15 142.5t-3 130q0 53 2 100.5t6 100.5q-10 4 -22.5 7t-22.5 7h-2q-14 4 -18.5 6t-6.5 3t-8 1q-4 0 -18 5v-123q0 -127 -12.5 -259t-59.5 -241t-140.5 -178.5 t-254.5 -69.5q-39 0 -83 10.5t-81 34t-61.5 59t-24.5 85.5zM625 983q20 -4 39.5 -11t40.5 -11l32 -11q8 80 12.5 159t4.5 157q0 18 -1 54t-4.5 71.5t-11.5 62.5t-22 27q-25 0 -41.5 -25.5t-25.5 -61.5t-12 -74t-3 -63q0 -39 -1 -78.5t-3 -80.5q0 -20 -1 -32.5l-2 -25 t-1 -24.5v-33z" />
<glyph unicode="&#xc1;" horiz-adv-x="1501" d="M-92 111q0 37 14.5 67.5t39 53t56 36t66.5 13.5q92 0 92 -93q0 -35 -13 -53t-32 -29h27q100 0 156.5 54.5t84 135.5t33.5 176t6 175v164q-27 -8 -47 -23q-16 -10 -27.5 -16t-33.5 -6q-37 0 -65.5 28.5t-28.5 65.5q0 29 9 42t21 26q76 70 172 76q0 27 1 51t3 51q2 39 3 75 t1 76q0 35 5.5 76t15.5 84t28.5 84t43.5 74q-47 31 -47 82q0 41 36 72q10 8 19.5 15t19.5 15q37 29 68 51.5t63 57.5q4 8 13 16q18 25 44.5 49.5t63.5 24.5t65.5 -26.5t28.5 -65.5q0 -12 -15 -34t-39.5 -49.5t-56.5 -58t-65 -59.5q76 -6 117 -53t60.5 -111.5t22.5 -133.5 t3 -118q0 -84 -6 -166t-12 -163v-2h2q18 0 33.5 12t29.5 22h-2q18 16 36.5 28.5t47.5 12.5q39 0 65.5 -28.5t26.5 -65.5q0 -39 -26 -65q-41 -41 -94.5 -71t-116.5 -30h-9h-10q-4 -47 -4 -92v-92q0 -55 3 -131t20.5 -145.5t55.5 -118t107 -48.5q45 0 85 19.5t68 51.5t44 74 t16 87q0 20 -11 36.5t-29 16.5q-4 0 -5 -10q-10 -31 -24 -55.5t-68 -24.5q-37 0 -65.5 25.5t-28.5 66.5q0 39 15.5 73t42 58.5t61.5 39t72 14.5q49 0 91 -19.5t72.5 -53.5t47 -77t16.5 -90q0 -84 -31 -159t-84 -132t-125.5 -91t-159.5 -34q-88 0 -149 31t-103 82t-66 117.5 t-36 137t-15 142.5t-3 131q0 53 2 100.5t6 100.5q-10 4 -22.5 7t-22.5 7h-2q-14 4 -18.5 6t-6.5 3t-8 1q-4 0 -18 5v-123q0 -127 -12.5 -259t-59.5 -241t-140.5 -178.5t-254.5 -69.5q-39 0 -83 10.5t-81 34t-61.5 59t-24.5 85.5zM625 983q20 -4 39.5 -11t40.5 -11l32 -11 q8 80 12.5 159t4.5 157q0 18 -1 54t-4.5 71.5t-11.5 62.5t-22 27q-25 0 -41.5 -25.5t-25.5 -61.5t-12 -74t-3 -63q0 -39 -1 -78.5t-3 -80.5q0 -20 -1 -32.5l-2 -25t-1 -24.5v-33z" />
<glyph unicode="&#xc2;" horiz-adv-x="1597" d="M-92 287q0 59 22.5 112.5t62.5 93t93 63.5t113 24q43 0 83 -15.5t71.5 -43t50 -66.5t18.5 -84q0 -39 -26.5 -65.5t-65.5 -26.5q-31 0 -48.5 7t-25.5 18t-12 26.5t-6 31.5l2 -4q-4 8 -4 13q-10 23 -37 22q-45 0 -75 -31.5t-30 -74.5q0 -76 50.5 -128.5t127.5 -52.5 q109 0 157 53.5t69 162.5q12 61 15 120.5t3 116.5v197q-16 -4 -32.5 -12.5t-28.5 -14.5q-37 -20 -58 -20q-37 0 -65.5 28.5t-28.5 65.5q0 39 29 67q37 35 86 51.5t98 20.5q0 35 -1 66.5t-1 66.5v182q0 55 12.5 127t43 134.5t81.5 105.5t131 43q25 0 49 -6q-16 18 -30.5 37.5 t-26.5 36.5v-2l-8 8q-23 -25 -51.5 -53.5t-55 -53t-49 -41t-30.5 -16.5q-37 0 -66 26.5t-29 65.5q0 20 9.5 37.5t21.5 33t25.5 28t21.5 20.5v-2q23 20 41.5 42.5t38.5 51.5q8 12 20.5 27.5t28 30t33.5 24.5t41 10q29 0 59 -24q20 -16 33.5 -34t26.5 -38q8 -10 13 -19.5 t15 -19.5q12 -18 24.5 -31.5t25.5 -23.5q12 -12 27.5 -25.5t27.5 -27.5q10 -10 16 -26t6 -34q0 -39 -26.5 -65.5t-65.5 -26.5q23 -35 35 -78t17.5 -88t6.5 -87t1 -75q0 -86 -5.5 -170t-11.5 -168q-2 -12 -3 -24.5t-1 -24.5h4q16 0 34.5 13.5t33.5 23.5q18 16 33.5 26.5 t44.5 10.5q39 0 65.5 -26.5t26.5 -65.5q0 -33 -25 -64q-39 -41 -94 -73.5t-119 -32.5q-8 0 -9 -1l-1 -1h-2l-8 2q-2 -31 -2 -64v-61q0 -55 3 -131t20.5 -145.5t55 -118t107.5 -48.5q43 0 76 18.5t58.5 48.5t45 63.5t35.5 64.5q27 49 53.5 84t67.5 35q39 0 65.5 -26.5 t26.5 -65.5q0 -23 -10 -43q-31 -66 -68 -130.5t-86 -115.5t-113.5 -84t-150.5 -33q-88 0 -149.5 31t-102.5 82t-65.5 117.5t-37 138t-15.5 142.5t-3 130v74q0 37 4 74q-4 2 -11 3t-11 3q-16 4 -21.5 6t-9.5 3t-9 2t-22 5v-174q0 -76 -4 -152.5t-18 -147.5t-42 -132 t-76 -106.5t-118.5 -72t-171.5 -26.5q-76 0 -142.5 29t-115.5 78t-77.5 115.5t-28.5 142.5zM700 1069q0 -47 1 -74.5t1 -72.5q18 -4 39 -10.5t37 -10.5l10 -4h3l1 -1t11 -3q18 191 18 375q0 18 -1 54t-4 72t-11 61.5t-23 25.5q-25 0 -41 -25.5t-25 -61.5t-12.5 -74t-3.5 -63 v-188z" />
<glyph unicode="&#xc3;" horiz-adv-x="1501" d="M-92 111q0 37 14.5 67.5t39 53t56 36t66.5 13.5q92 0 92 -93q0 -35 -13 -53t-32 -29h27q100 0 156.5 54.5t84 135.5t33.5 176t6 175v164q-27 -8 -47 -23q-16 -10 -27.5 -16t-33.5 -6q-37 0 -65.5 28.5t-28.5 65.5q0 29 9 42t21 26q76 70 172 76q0 27 1 51t3 51q2 39 3 75 t1 76q0 53 11.5 120t39 128.5t73.5 105.5t114 54q-16 16 -30.5 32.5t-24.5 33.5q-6 8 -11.5 15t-9.5 13q-4 -4 -9 -11t-11 -15q-25 -29 -50.5 -53.5t-60.5 -24.5q-37 0 -66.5 28.5t-29.5 65.5q0 20 27.5 55t65.5 67t76 55.5t58 23.5q66 0 105 -34t67 -75q20 -31 33 -41 q6 4 10 9.5t13 11.5q31 23 53 46t63 23q39 0 65.5 -28.5t26.5 -65.5q0 -18 -21.5 -45t-51 -53.5t-63.5 -50t-58 -33.5q33 -33 51.5 -79t26.5 -97.5t10 -100.5t2 -88q0 -84 -6 -166t-12 -163v-2h2q18 0 33.5 12t29.5 22h-2q18 16 36.5 28.5t47.5 12.5q39 0 65.5 -28.5 t26.5 -65.5q0 -39 -26 -65q-41 -41 -94.5 -71t-116.5 -30q-6 0 -8.5 -1t-0.5 -1q-2 0 -4 1t-6 1q-4 -47 -4 -92v-92q0 -55 3 -131t20.5 -145.5t55.5 -118t107 -48.5q45 0 85 19.5t68 51.5t44 74t16 87q0 20 -11 36.5t-29 16.5q-4 0 -5 -10q-10 -31 -24 -55.5t-68 -24.5 q-37 0 -65.5 25.5t-28.5 66.5q0 39 15.5 73t42 58.5t61.5 39t72 14.5q49 0 91 -19.5t72.5 -53.5t47 -77t16.5 -90q0 -84 -31 -159t-84 -132t-125.5 -91t-159.5 -34q-88 0 -149 31t-103 82t-66 117.5t-36 137t-15 142.5t-3 131q0 53 2 100.5t6 100.5q-10 4 -22.5 7t-22.5 7 h-2q-14 4 -18.5 6t-6.5 3t-8 1q-4 0 -18 5v-123q0 -127 -12.5 -259t-59.5 -241t-140.5 -178.5t-254.5 -69.5q-39 0 -83 10.5t-81 34t-61.5 59t-24.5 85.5zM625 983q20 -4 39.5 -11t40.5 -11l32 -11q8 80 12.5 159t4.5 157q0 18 -1 54t-4.5 71.5t-11.5 62.5t-22 27 q-25 0 -41.5 -25.5t-25.5 -61.5t-12 -74t-3 -63q0 -39 -1 -78.5t-3 -80.5q0 -20 -1 -32.5l-2 -25t-1 -24.5v-33z" />
<glyph unicode="&#xc4;" horiz-adv-x="1501" d="M-92 111q0 37 14.5 67.5t39 53t56 36t66.5 13.5q92 0 92 -93q0 -35 -13 -53t-32 -29h27q100 0 156.5 54.5t84 135.5t33.5 176t6 175v164q-27 -8 -47 -23q-16 -10 -27.5 -16t-33.5 -6q-37 0 -65.5 26.5t-28.5 65.5q0 27 9 42t21 28q76 70 172 76q0 23 1 50t3 50 q2 37 3 73.5t1 77.5q0 37 6.5 83t18.5 92.5t32.5 89.5t51.5 75q-41 16 -69.5 53.5t-28.5 82.5q0 59 44 100t101 41q74 0 113 -60q43 59 116 60q59 0 100.5 -41t41.5 -100q0 -47 -30 -86t-75 -54q27 -35 41.5 -80t21.5 -92t8 -92t1 -80q0 -84 -6 -165t-12 -160v-2v-2h2 q18 0 33.5 12t29.5 22h-2q18 16 36.5 28.5t47.5 12.5q39 0 65.5 -28.5t26.5 -65.5q0 -39 -26 -65q-41 -41 -93.5 -72t-117.5 -31q-6 0 -8.5 -1t-0.5 -1q-2 0 -4 1t-6 1q-4 -47 -4 -92v-90q0 -55 3 -131t20.5 -145.5t55.5 -118t107 -48.5q45 0 85 19.5t68 51.5t44 74t16 87 q0 20 -11 36.5t-29 16.5q-4 0 -5 -10q-10 -31 -24 -55.5t-68 -24.5q-37 0 -65.5 25.5t-28.5 66.5q0 39 15.5 73t42 58.5t61.5 39t72 14.5q49 0 91 -19.5t72.5 -53.5t47 -77t16.5 -90q0 -84 -31 -159t-84 -132t-125.5 -91t-159.5 -34q-131 0 -205.5 66.5t-111.5 164t-46 209 t-9 201.5q0 53 2 100.5t6 100.5q-10 4 -20.5 6t-20.5 6q-12 4 -17.5 6t-9.5 3t-10 2t-20 6v-125q0 -84 -5.5 -172t-20.5 -171t-46 -156t-83 -128t-129 -87t-183 -32q-39 0 -83 10.5t-81 34t-61.5 59t-24.5 85.5zM625 979q18 -4 38.5 -10t38.5 -11q12 -4 15 -4q2 0 3 -1t4 -2 t15 -3q6 80 10.5 158t4.5 160q0 18 -1 53t-4.5 70.5t-11.5 62.5t-22 27q-25 0 -41.5 -26t-25.5 -61.5t-12 -73.5t-3 -63q0 -39 -1 -78.5t-3 -78.5q0 -20 -1 -33.5t-2 -26t-1 -26.5v-33z" />
<glyph unicode="&#xc5;" horiz-adv-x="1501" d="M-92 111q0 37 14.5 67.5t39 53t56 36t66.5 13.5q92 0 92 -93q0 -35 -13 -53t-32 -29h27q100 0 156.5 54.5t84 135.5t33.5 175t6 174v164q-27 -8 -47 -23q-16 -10 -27.5 -16t-33.5 -6q-37 0 -65.5 26.5t-28.5 65.5q0 27 9 42t21 28q76 70 172 75q0 23 1 50.5t3 50.5 q2 37 3 73.5t1 77.5q0 43 7.5 96.5t26 105.5t47 98t71.5 75q-35 25 -55.5 60.5t-20.5 83.5q0 39 15.5 71.5t42 55t60.5 36t71 13.5t70.5 -13.5t60 -36t42 -55t15.5 -71.5q0 -45 -20.5 -81t-53.5 -61q43 -29 65.5 -77t34 -102t13.5 -109.5t2 -96.5q0 -84 -6 -165t-12 -160v-2 v-3h2q18 0 33.5 12.5t29.5 22.5h-2q18 16 36.5 28.5t47.5 12.5q39 0 65.5 -28.5t26.5 -65.5q0 -39 -26 -66q-41 -41 -94.5 -70.5t-116.5 -29.5q-6 0 -8.5 -1t-0.5 -1q-2 0 -4 1t-6 1q-4 -47 -4 -92v-92q0 -55 3 -131t20.5 -144.5t55.5 -117t107 -48.5q45 0 85 18.5t68 50.5 t44 74t16 87q0 20 -11 37.5t-29 17.5q-4 0 -5 -10q-10 -31 -24 -55.5t-68 -24.5q-37 0 -65.5 25.5t-28.5 66.5q0 39 15.5 73t42 58.5t61.5 37.5t72 13q49 0 91 -19t72.5 -53t47 -77t16.5 -90q0 -84 -31 -159t-84 -131t-125.5 -90t-159.5 -34q-88 0 -149 31t-102 81 t-66 116.5t-37 137t-15 142.5t-3 131q0 53 2 100.5t6 100.5q-10 4 -20.5 6t-20.5 6q-12 4 -17.5 6t-9.5 3t-10 2t-20 6v-125q0 -127 -12.5 -258.5t-59.5 -240t-140.5 -177t-254.5 -68.5q-39 0 -83 10.5t-81 34t-61.5 59t-24.5 85.5zM625 981q20 -4 39.5 -11t40.5 -12l32 -10 q8 80 12.5 159t4.5 157q0 18 -1 53t-4.5 70.5t-11.5 62.5t-22 27q-25 0 -41.5 -26t-25.5 -61.5t-12 -73.5t-3 -63q0 -41 -1 -79.5t-3 -79.5q0 -20 -1 -32.5t-2 -24t-1 -25.5v-31zM694 1772q0 -14 17 -15q18 1 18 15q0 6 -6 9t-12 3q-16 0 -17 -12z" />
<glyph unicode="&#xc6;" horiz-adv-x="1736" d="M-92 287q0 59 22.5 112.5t61.5 93t92 62.5t113 23q43 0 84 -15.5t72.5 -42t50 -65.5t18.5 -84q0 -41 -28.5 -66.5t-65.5 -25.5q-39 0 -65.5 25.5t-26.5 66.5q0 10 -12.5 16t-26.5 6q-45 0 -74 -30.5t-29 -75.5q0 -76 49.5 -128.5t126.5 -52.5q109 0 157 48.5t69 152.5 q16 80 20 160t4 158q0 23 -1 44t-1 44q-2 10 -2 20v21q-16 -4 -29.5 -10.5t-23.5 -12.5q-16 -10 -30.5 -16t-31.5 -6q-37 0 -65.5 26.5t-28.5 65.5t29 67q35 33 85 53.5t97 24.5v109q0 18 -1 34.5t-1 34.5q-2 16 -2 39v41q0 61 7 141t35 150t81 118t145 48q49 0 89 -21.5 t69 -56.5t45 -77t23 -85q37 55 90 101.5t112.5 78t122 49t115.5 17.5q49 0 95 -15.5t82 -45t56.5 -74.5t20.5 -102q0 -51 -18.5 -95.5t-50 -81t-73.5 -64.5t-87 -44q51 -23 87.5 -62t36.5 -102q0 -53 -27.5 -88t-69.5 -57.5t-88 -31.5t-83 -9q-78 0 -143.5 30.5t-112.5 83.5 q-86 -59 -128 -152t-42 -202q0 -88 34 -169t92 -143.5t135 -99.5t165 -37q45 0 92 18.5t86 49.5t62.5 73t23.5 89q0 20 -11 37.5t-28 17.5q-35 0 -40 -6t-7 -10q-8 -29 -20 -45.5t-55 -16.5q-47 0 -75 35t-28 74q0 47 25.5 76.5t60.5 47t74 23.5t65 6q47 0 88 -19t72 -53 t48.5 -77t17.5 -90q0 -86 -40 -162t-104.5 -132t-145.5 -89t-163 -33q-131 0 -238.5 50t-187.5 135t-128 198t-56 238v-2q-2 12 -2 24v31v51v41q0 27 2 43q-6 0 -15 4v-176q0 -113 -11 -225.5t-55 -203.5t-130 -148.5t-236 -57.5q-78 0 -143.5 29t-114.5 78t-76.5 115.5 t-27.5 142.5zM702 979q0 -29 3 -59q10 -4 18 -5q8 0 25 -2q4 25 10 51.5t10 51.5q20 92 37.5 182t17.5 186q0 12 -2 27.5t-7 30t-13 25t-19 10.5q-31 0 -46 -32t-23 -76t-9.5 -90t-1.5 -75v-164v-61zM967 1065q8 4 12 8l-6 19q-2 -10 -6 -27zM1139 1241q0 -47 12 -90 q29 8 55.5 11t55.5 7q-8 16 -9 43q0 41 27 67t66 26q25 0 54.5 9t55 26.5t43 40t17.5 49.5t-21.5 39t-46.5 12q-47 0 -101.5 -20.5t-100.5 -54.5t-76.5 -77t-30.5 -88zM1286 985q20 -6 43 -6h21h26q14 0 20 1l15 1q0 2 -9 3t-21.5 2t-24.5 1h-21h-24t-25 -2z" />
<glyph unicode="&#xc7;" horiz-adv-x="1179" d="M-92 1237q0 98 42 178t111.5 136.5t155.5 87t176 30.5q39 0 65.5 -24.5t28.5 -65.5q63 41 135 65.5t156 24.5q57 0 103.5 -23.5t78 -62.5t48 -88t16.5 -98q0 -139 -62.5 -250t-163 -188.5t-226.5 -119.5t-250 -42h-31q-18 0 -31 2q-8 -53 -10 -105.5t-2 -105.5 q0 -88 26.5 -175t76.5 -156t124 -112t168 -43q47 0 94 15.5t84 43t60.5 67.5t23.5 89q0 27 -15.5 48.5t-39.5 21.5q-16 0 -20.5 -5t-6.5 -9q-10 -25 -24.5 -45.5t-61.5 -20.5q-92 0 -92 92q0 43 19.5 76t49 54.5t65.5 31.5t71 10q51 0 95 -20.5t77 -56t51.5 -82t18.5 -95.5 q0 -80 -30 -147.5t-80 -118.5t-116.5 -82.5t-140.5 -44.5q0 -4 -1 -5t-1 -5q33 -10 64.5 -29.5t56 -45t40 -57.5t15.5 -69q0 -47 -22.5 -80.5t-56.5 -56t-73.5 -34t-74.5 -11.5q-66 0 -132.5 24.5t-101.5 92.5q-8 10 -8 20v25q0 39 26.5 64.5t65.5 25.5h2q-2 8 -3 14t-1 15 v20t8 18q4 16 5.5 36t3.5 40q-115 23 -203 88.5t-148.5 156.5t-92.5 199.5t-32 217.5q0 70 4.5 140.5t18.5 141.5q-90 63 -133 159.5t-43 207.5zM94 1237q0 -41 11.5 -82t31.5 -76q35 109 94.5 213.5t141.5 190.5q-53 -4 -102.5 -21.5t-89.5 -49.5t-63.5 -76t-23.5 -99z M301 981h21q90 0 182 28.5t165.5 82t121 130.5t47.5 175q0 29 -15.5 58.5t-44.5 29.5q-94 0 -170 -46t-136 -120t-102 -163t-69 -175zM623 -279q14 -6 49 -6h24q16 0 17 -2q0 10 -18.5 17.5t-30.5 7.5q2 0 1 -1t-3 -1q-10 -4 -19.5 -8t-19.5 -7z" />
<glyph unicode="&#xc8;" horiz-adv-x="1067" d="M-92 1346q0 74 48 133t118.5 101t147.5 64.5t136 22.5q39 0 66 -25.5t27 -66.5v-4q49 35 104 57.5t109 32.5q-33 29 -66 60.5t-59.5 60t-43 51t-16.5 33.5q0 39 30 65.5t66 26.5q45 0 72 -33h-2q8 -10 15.5 -17t15.5 -18q14 -16 28.5 -31.5t32.5 -31.5q12 -10 28.5 -22.5 t33.5 -24.5q16 -12 33.5 -24.5t33.5 -24.5q35 -29 35 -74q0 -20 -8 -37q41 -29 64.5 -77t23.5 -113q0 -59 -22.5 -108.5t-60.5 -87.5t-87 -67.5t-104 -50.5q41 -16 72.5 -47t31.5 -78q0 -41 -19.5 -72.5t-50 -52t-66.5 -31t-69 -10.5q-55 0 -105 18.5t-95 51.5 q-92 -47 -140.5 -130t-48.5 -185q0 -86 27.5 -171t80 -152t126 -109t163.5 -42q45 0 92.5 18.5t85 49.5t61.5 73t24 89q0 20 -11.5 37.5t-29.5 17.5q-29 0 -34 -5t-7 -11l2 4q-8 -25 -23.5 -45.5t-58.5 -20.5q-47 0 -75 35t-28 74q0 37 25 65.5t60.5 48t73.5 29.5t65 10 q49 0 90 -19t71.5 -53t48 -77t17.5 -90q0 -88 -39 -164t-102.5 -131t-144.5 -87t-163 -32q-133 0 -240.5 57.5t-183 149.5t-117.5 210t-42 241q0 141 65.5 263t184.5 195q-4 6 -5.5 9.5t-5.5 9.5q-57 8 -120.5 27.5t-118 55.5t-89 86t-34.5 120zM94 1346q0 -20 13.5 -36 t34 -27t46 -19.5t50.5 -14.5q4 66 32.5 124.5t75.5 109.5q-31 -2 -74 -13.5t-82.5 -30t-67.5 -43t-28 -50.5zM424 1241q51 6 114.5 18.5t121 35t96.5 55.5t39 80q0 53 -62 53q-41 0 -83 -13.5t-80 -37t-69.5 -55t-51.5 -68.5q-10 -16 -16.5 -34t-8.5 -34z" />
<glyph unicode="&#xc9;" horiz-adv-x="1067" d="M-92 1346q0 74 48 133t118.5 101t147.5 64.5t136 22.5q39 0 66 -25.5t27 -66.5v-4q10 8 20 14t21 12q-14 20 -15 50q0 20 10.5 38.5t25.5 35t32.5 29.5t32.5 24q2 0 6 4t11 8t11 8l-2 -2q23 16 44.5 34.5t43.5 43.5q2 0 2 2t2 4l4 4q16 20 42 45t63 25t65.5 -29t28.5 -66 q0 -10 -14.5 -30.5t-37 -46t-52 -55t-60.5 -56.5q111 -2 178.5 -61.5t67.5 -175.5q0 -59 -22.5 -108.5t-60.5 -87.5t-87 -67.5t-104 -50.5q41 -16 72.5 -47t31.5 -78q0 -41 -19.5 -72.5t-50 -52t-66.5 -31t-69 -10.5q-55 0 -105 18.5t-95 51.5q-92 -47 -140.5 -130 t-48.5 -185q0 -86 27.5 -171t80 -152t126 -109t163.5 -42q45 0 92.5 18.5t85 49.5t61.5 73t24 89q0 20 -11.5 37.5t-29.5 17.5q-29 0 -34 -5t-7 -11l2 4q-8 -25 -23.5 -45.5t-58.5 -20.5q-47 0 -75 35t-28 74q0 37 25 65.5t60.5 48t73.5 29.5t65 10q49 0 90 -19t71.5 -53 t48 -77t17.5 -90q0 -88 -39 -164t-102.5 -131t-144.5 -87t-163 -32q-133 0 -240.5 57.5t-183 149.5t-117.5 210t-42 241q0 141 65.5 263t184.5 195q-4 6 -5.5 9.5t-5.5 9.5q-57 8 -120.5 27.5t-118 55.5t-89 86t-34.5 120zM94 1346q0 -20 13.5 -36t34 -27t46 -19.5 t50.5 -14.5q4 66 32.5 124.5t75.5 109.5q-31 -2 -74 -13.5t-82.5 -30t-67.5 -43t-28 -50.5zM424 1241q51 6 114.5 18.5t121 35t96.5 55.5t39 80q0 53 -62 53q-41 0 -83 -13.5t-80 -37t-69.5 -55t-51.5 -68.5q-10 -16 -16.5 -34t-8.5 -34z" />
<glyph unicode="&#xca;" horiz-adv-x="1067" d="M-92 1346q0 68 42 123t103.5 96t133 67.5t132.5 32.5v4q0 20 9.5 37.5t21.5 33t25.5 28t21.5 20.5v-2q23 20 41.5 42.5t38.5 51.5q8 12 20.5 27.5t28 30t34 24.5t40.5 10q29 0 59 -24q20 -16 34 -34t26 -38q8 -10 13 -19.5t16 -19.5q12 -18 24 -31.5t25 -23.5 q12 -12 27.5 -25.5t27.5 -27.5q10 -10 16 -26t6 -34q0 -10 -2 -17t-4 -16q53 -29 83 -80t30 -126q0 -59 -22.5 -108.5t-60.5 -87.5t-87 -67.5t-104 -50.5q41 -16 72.5 -47t31.5 -78q0 -41 -19.5 -72.5t-50 -52t-66.5 -31t-69 -10.5q-55 0 -105 18.5t-95 51.5 q-92 -47 -140.5 -130t-48.5 -185q0 -86 27.5 -171t80 -152t126 -109t163.5 -42q45 0 92.5 18.5t85 49.5t61.5 73t24 89q0 20 -11.5 37.5t-29.5 17.5q-29 0 -34 -5t-7 -11l2 4q-8 -25 -23.5 -45.5t-58.5 -20.5q-47 0 -75 35t-28 74q0 37 25 65.5t60.5 48t73.5 29.5t65 10 q49 0 90 -19t71.5 -53t48 -77t17.5 -90q0 -88 -39 -164t-102.5 -131t-144.5 -87t-163 -32q-133 0 -240.5 57.5t-183 149.5t-117.5 210t-42 241q0 141 65.5 263t184.5 195q-4 6 -5.5 9.5t-5.5 9.5q-57 8 -120.5 27.5t-118 55.5t-89 86t-34.5 120zM94 1346q0 -20 13.5 -36 t34 -27t46 -19.5t50.5 -14.5q4 66 32.5 124.5t75.5 109.5q-31 -2 -74 -13.5t-82.5 -30t-67.5 -43t-28 -50.5zM424 1241q51 6 114.5 18.5t121 35t96.5 55.5t39 80q0 53 -62 53q-41 0 -83 -13.5t-80 -37t-69.5 -55t-51.5 -68.5q-10 -16 -16.5 -34t-8.5 -34zM449 1595 q0 -4 1 -10t1 -10v-4q51 35 106 57.5t109 32.5q-16 18 -30.5 37.5t-27.5 36.5v-2l-8 8q-33 -37 -77 -80t-74 -66z" />
<glyph unicode="&#xcb;" horiz-adv-x="1067" d="M-92 1346q0 66 41 121t102.5 97t132 67.5t129.5 31.5q-16 33 -16 68q0 59 44 100t101 41q74 0 113 -60q43 59 117 60q59 0 100 -41t41 -100q0 -39 -18 -70q86 -16 136 -73.5t50 -157.5q0 -59 -22.5 -108.5t-60.5 -87.5t-87 -67.5t-104 -50.5q41 -16 72.5 -47t31.5 -78 q0 -41 -19.5 -72.5t-50 -52t-66.5 -31t-69 -10.5q-55 0 -105 18.5t-95 51.5q-92 -47 -140.5 -130t-48.5 -185q0 -86 27.5 -171t80 -152t126 -109t163.5 -42q45 0 92.5 18.5t85 49.5t61.5 73t24 89q0 20 -11.5 37.5t-29.5 17.5q-29 0 -34 -5t-7 -11l2 4q-8 -25 -23.5 -45.5 t-58.5 -20.5q-47 0 -75 35t-28 74q0 37 25 65.5t60.5 48t73.5 29.5t65 10q49 0 90 -19t71.5 -53t48 -77t17.5 -90q0 -88 -39 -164t-102.5 -131t-144.5 -87t-163 -32q-133 0 -240.5 57.5t-183 149.5t-117.5 210t-42 241q0 141 65.5 263t184.5 195q-4 6 -5.5 9.5t-5.5 9.5 q-57 8 -120.5 27.5t-118 55.5t-89 86t-34.5 120zM94 1346q0 -20 13.5 -36t34 -27t46 -19.5t50.5 -14.5q4 66 32.5 124.5t75.5 109.5q-31 -2 -74 -13.5t-82.5 -30t-67.5 -43t-28 -50.5zM424 1241q51 6 114.5 18.5t121 35t96.5 55.5t39 80q0 53 -62 53q-41 0 -83 -13.5 t-80 -37t-69.5 -55t-51.5 -68.5q-10 -16 -16.5 -34t-8.5 -34zM449 1587q0 -4 1 -6t1 -6v-4q10 6 17 12t17 10q-16 -6 -36 -6zM522 1614l22.5 9l22.5 9q-4 6 -12 15q-13 -21 -33 -33z" />
<glyph unicode="&#xcc;" horiz-adv-x="778" d="M-92 1313q0 90 42 157.5t108.5 112.5t146.5 67.5t155 22.5q23 0 45.5 -4t45.5 -10q-35 29 -68 60.5t-60.5 61t-44 52t-16.5 33.5q0 39 30 65.5t66 26.5q45 0 72 -33h-2q8 -10 15.5 -17t15.5 -18q14 -16 28.5 -31.5t32.5 -31.5q12 -10 28.5 -22.5t33.5 -24.5 q16 -12 33.5 -24.5t33.5 -24.5q35 -29 35 -74q0 -4 -1 -9.5t-1 -9.5q55 33 127 33q31 0 67.5 -9t68.5 -27.5t53.5 -48.5t21.5 -73t-20.5 -73.5t-52.5 -50t-68.5 -28.5t-69.5 -9q-23 0 -44.5 1t-43.5 5q-12 -53 -18.5 -113.5t-6.5 -109.5v-156t2 -156q0 -78 1 -155.5 t1 -155.5q0 -109 -19 -214t-69.5 -188t-136.5 -135.5t-217 -52.5q-39 0 -83 10.5t-81 34t-61.5 59t-24.5 85.5q0 37 14.5 67.5t39 53t56.5 36t66 13.5q92 0 92 -93q0 -37 -14 -54t-33 -28h29q80 0 129 38t78 96.5t39 130t10 141.5q0 78 -1 155.5t-1 155.5q-2 70 -2 156v156 q0 72 6 144.5t25 139.5q-23 10 -49.5 22.5t-51 23t-46 17.5t-34.5 7q-41 0 -87 -11.5t-86 -33t-66.5 -54t-26.5 -77.5q0 -39 24.5 -75t65.5 -36q29 0 52.5 15.5t23.5 42.5q0 41 26.5 66.5t67.5 25.5q92 0 92 -92q0 -55 -21.5 -99.5t-58 -76t-83.5 -49t-99 -17.5 q-61 0 -112.5 24.5t-87 65.5t-56 94t-20.5 111z" />
<glyph unicode="&#xcd;" horiz-adv-x="778" d="M-92 1313q0 90 42 157.5t108.5 112.5t146.5 67.5t155 22.5h13q8 0 14 -2q6 33 37 58q10 8 19.5 15t19.5 15q37 29 67.5 51.5t63.5 57.5q4 8 12 16q18 25 45 49.5t64 24.5t65.5 -26.5t28.5 -65.5q0 -14 -23.5 -45t-59.5 -68t-78 -75t-79 -66q6 -4 19 -8q10 -4 16 -7.5 t21 -7.5q70 82 184 82q31 0 67.5 -9t68.5 -27.5t53.5 -48.5t21.5 -73t-20.5 -73.5t-52.5 -50t-68.5 -28.5t-69.5 -9q-23 0 -44.5 1t-43.5 5q-12 -53 -18.5 -113.5t-6.5 -109.5v-156t2 -156q0 -78 1 -155.5t1 -155.5q0 -109 -19 -214t-69.5 -188t-136.5 -135.5t-217 -52.5 q-39 0 -83 10.5t-81 34t-61.5 59t-24.5 85.5q0 37 14.5 67.5t39 53t56.5 36t66 13.5q92 0 92 -93q0 -37 -14 -54t-33 -28h29q80 0 129 38t78 96.5t39 130t10 141.5q0 78 -1 155.5t-1 155.5q-2 70 -2 156v156q0 72 6 144.5t25 139.5q-23 10 -49.5 22.5t-51 23t-46 17.5 t-34.5 7q-41 0 -87 -11.5t-86 -33t-66.5 -54t-26.5 -77.5q0 -39 24.5 -75t65.5 -36q29 0 52.5 15.5t23.5 42.5q0 41 26.5 66.5t67.5 25.5q92 0 92 -92q0 -55 -21.5 -99.5t-58 -76t-83.5 -49t-99 -17.5q-61 0 -112.5 24.5t-87 65.5t-56 94t-20.5 111z" />
<glyph unicode="&#xce;" horiz-adv-x="778" d="M-92 1313q0 76 30.5 136t82 104t115 72t130.5 40v4q0 20 9.5 37.5t21.5 33t25.5 28t21.5 20.5v-2q23 20 41 42.5t39 51.5q8 12 20.5 27.5t27.5 30t33.5 24.5t41.5 10q29 0 59 -24q20 -16 33.5 -34t26.5 -38q8 -10 13 -19.5t15 -19.5q12 -18 24.5 -31.5t24.5 -23.5 q12 -12 27.5 -25.5t28.5 -27.5q18 -23 22 -58q31 -2 67 -11t64.5 -28.5t48 -49.5t19.5 -69q0 -43 -20.5 -73.5t-52.5 -50t-68.5 -28.5t-69.5 -9q-23 0 -44.5 1t-43.5 5q-12 -53 -18.5 -112.5t-6.5 -108.5v-158q0 -78 2 -156q0 -78 1 -155.5t1 -155.5q0 -109 -19 -214 t-69.5 -188t-136.5 -135.5t-217 -52.5q-39 0 -83 10.5t-81 34t-61.5 59t-24.5 85.5q0 37 14.5 67.5t39 53t56.5 36t66 13.5q92 0 92 -93q0 -37 -14 -54t-33 -28h29q80 0 129 38t78 96.5t39 130t10 141.5q0 78 -1 155.5t-1 155.5q-2 70 -2 156v158q0 72 6 143.5t25 138.5 q-23 10 -49.5 22.5t-51 23t-46 17.5t-34.5 7q-41 0 -87 -11.5t-86 -33t-66.5 -54t-26.5 -77.5q0 -39 24.5 -75t65.5 -36q29 0 52.5 15.5t23.5 42.5q0 41 26.5 66.5t67.5 25.5q92 0 92 -92q0 -55 -21.5 -99.5t-58 -76t-83.5 -49t-99 -17.5q-61 0 -112.5 24.5t-87 65.5t-56 94 t-20.5 111zM463 1655q33 -10 63.5 -24.5t61.5 -26.5q10 -4 16.5 -7.5t20.5 -7.5q12 16 28 29q-27 25 -51 56.5t-47 60.5v-2l-8 8q-18 -20 -40 -43t-44 -43z" />
<glyph unicode="&#xcf;" horiz-adv-x="778" d="M-92 1313q0 76 30.5 135t81 103t114 72t128.5 40q-18 31 -18 68q0 59 44 100t101 41q72 0 115 -60q43 59 114 60q59 0 100.5 -41t41.5 -100q0 -18 -5 -36t-14 -34q35 10 68 10q31 0 67.5 -9t68.5 -28.5t53.5 -50.5t21.5 -72q0 -43 -20.5 -73.5t-52.5 -50t-68.5 -28.5 t-69.5 -9q-41 0 -88 10q-12 -53 -18.5 -114.5t-6.5 -110.5v-156t2 -156q0 -78 1 -155.5t1 -155.5q0 -109 -19 -214t-69.5 -188t-136.5 -135.5t-217 -52.5q-39 0 -83 10.5t-81 34t-61.5 59t-24.5 85.5q0 37 14.5 67.5t39 53t56.5 36t66 13.5q92 0 92 -93q0 -37 -14 -54 t-33 -28h29q80 0 129 38t78 96.5t39 130t10 141.5q0 78 -1 155.5t-1 155.5q-2 70 -2 156v156q0 72 6 143.5t25 138.5q-23 10 -49.5 22.5t-51 23t-46 17.5t-34.5 7q-41 0 -87 -10.5t-86 -32t-66.5 -54t-26.5 -77.5q0 -41 24.5 -77t65.5 -36q29 0 52.5 15.5t23.5 41.5 q0 41 28.5 67t65.5 26q39 0 65.5 -26t26.5 -67q0 -55 -21.5 -99t-58 -75.5t-83.5 -49t-99 -17.5q-61 0 -111 24.5t-87 66.5t-57.5 95t-20.5 111zM500 1642q4 -4 10 -4q-2 2 -3 4.5t-3 4.5q-4 -4 -4 -5zM614 1587q9 -4 11 -4q2 2 2 4h-9h-4z" />
<glyph unicode="&#xd1;" horiz-adv-x="1284" d="M-92 246q0 61 16.5 120.5t50 107.5t86 77t123.5 29q43 0 83 -14.5t73 -42t52.5 -65.5t19.5 -83q0 -41 -27 -66.5t-66 -25.5q-37 0 -65.5 26.5t-28.5 65.5q0 10 -14 14t-27 4q-25 0 -42 -14t-28.5 -35.5t-15.5 -47.5t-4 -50q0 -25 18.5 -51.5t45 -49t56.5 -37t54 -14.5 q80 0 124 38t63.5 97.5t22.5 131t3 137.5q0 111 -2 219t-4 219t-3 219.5t-1 218.5q0 39 5 86t23.5 88t53.5 70t92 29q51 0 84 -43t53.5 -101.5t30.5 -118t16 -94.5q0 -10 2 -16v4q20 -125 35 -249t31 -247q2 -16 4 -31.5t4 -31.5q4 -20 5 -43t5 -43q6 -53 14.5 -111.5 t16.5 -117t17.5 -115t19.5 -101.5q-2 0 0 -2q6 -25 14.5 -54.5t12.5 -29.5q10 0 15 24t8 55.5t4 63t1 46.5q2 72 3 143.5t1 143.5q0 80 -1 158.5t-1 156.5q-2 70 -2 158v159q0 66 6.5 143t33 142.5t81.5 108.5t152 43q41 0 89 -21.5t90 -55.5t69.5 -78t27.5 -89t-9 -96.5 t-33.5 -94.5t-65.5 -71.5t-103 -28.5q-37 0 -65.5 26.5t-28.5 65.5q0 41 28.5 66.5t65.5 25.5q8 0 13.5 12.5t7.5 29t3 35t1 30.5q0 10 -10.5 20.5t-24.5 19.5t-29.5 14t-25.5 5q-31 0 -48.5 -24.5t-25.5 -59.5t-10 -72.5t-2 -66.5v-182t2 -180q2 -92 3 -180.5t1 -180.5 q0 -82 -1 -157.5t-9 -153.5q-4 -41 -15.5 -91.5t-34 -93.5t-61.5 -72.5t-100 -29.5q-63 0 -103.5 32t-64 78t-35.5 98t-19 93q-25 139 -43 277.5t-36 279.5q-10 84 -23.5 176t-28.5 187q2 -49 2 -99q0 -49 3 -98q2 -113 4 -223.5t2 -220.5q0 -104 -9.5 -209t-49.5 -190 t-119.5 -137t-221.5 -52q-57 0 -120.5 30.5t-117 79t-88 107.5t-34.5 119zM657 1749q0 20 28 55t64.5 67t74.5 55.5t59 23.5q68 0 104.5 -34t65.5 -75q10 -14 18 -25.5t16 -15.5q8 8 25 21v-2q29 25 56.5 48t58.5 23q39 0 65.5 -28.5t26.5 -65.5q0 -20 -27.5 -52 t-64.5 -62.5t-73 -52t-54 -21.5q-35 0 -64.5 12t-54.5 30.5t-44 41t-34 41.5q-6 8 -11 14t-9 10q-8 -12 -21 -24q-25 -29 -50.5 -53.5t-59.5 -24.5q-37 0 -66 28.5t-29 65.5z" />
<glyph unicode="&#xd2;" horiz-adv-x="1349" d="M-92 782q0 121 21.5 237t68.5 218t123 189t186 151l-2 -2q20 14 51 14q20 0 37 -9t29 -24q92 74 217 89q-35 29 -71 62.5t-64.5 64t-47 56t-18.5 38.5q0 39 29 65.5t65 26.5q45 0 72 -33h-2q8 -10 15.5 -17t15.5 -18q14 -16 28.5 -31.5t32.5 -31.5q16 -14 39 -30.5 t45 -33.5q10 -8 21.5 -17t21.5 -17q39 -33 39 -72q0 -18 -6 -33q117 -41 207 -132t149.5 -208t90 -245t30.5 -240q0 -154 -45 -310.5t-134 -282.5t-221 -205t-308 -79q-182 0 -316.5 75t-222.5 195.5t-132 275.5t-44 314zM94 782q0 -123 32 -243.5t96.5 -217t163.5 -156 t237 -59.5q131 0 229 65t162.5 165t96.5 223t32 240q0 94 -28 209.5t-83 216t-137 169t-193 68.5q-66 0 -114.5 -24.5t-83.5 -65.5t-52.5 -96t-17.5 -117q0 -16 9.5 -30.5t23.5 -14.5q8 0 14 10.5t10.5 25.5t5.5 32.5t1 29.5q0 41 28.5 67t65.5 26q39 0 65.5 -26t26.5 -67 q0 -43 -13.5 -93t-40 -92t-67.5 -69.5t-96 -27.5q-49 0 -89 19.5t-68.5 51t-45 73.5t-16.5 85q0 78 18 150q-47 -51 -79.5 -115t-53 -132.5t-30 -140t-9.5 -139.5z" />
<glyph unicode="&#xd3;" horiz-adv-x="1349" d="M-92 782q0 121 21.5 237t68.5 218t123 189t186 151l-2 -2q20 14 51 14q20 0 37 -9t29 -24q10 8 22.5 15.5t24.5 15.5q-33 27 -33 70q0 41 37 72q10 8 19.5 15t19.5 15q37 29 67.5 51.5t63.5 57.5q4 8 12 16q18 25 45 49.5t64 24.5t65.5 -26.5t28.5 -65.5q0 -12 -17.5 -37 t-46 -55.5t-63.5 -64.5t-69 -62q10 0 20 1t20 1q102 0 189.5 -39t157 -104.5t123 -152.5t88 -181.5t53 -190.5t18.5 -182q0 -154 -45 -310.5t-134 -282.5t-221 -205t-308 -79q-182 0 -316.5 75t-222.5 195.5t-132 275.5t-44 314zM94 782q0 -123 32 -243.5t96.5 -217 t163.5 -156t237 -59.5q131 0 229 65t162.5 165t96.5 223t32 240q0 94 -28 209.5t-83 216t-137 169t-193 68.5q-66 0 -114.5 -24.5t-83.5 -65.5t-52.5 -96t-17.5 -117q0 -16 9.5 -30.5t23.5 -14.5q8 0 14 10.5t10.5 25.5t5.5 32.5t1 29.5q0 41 28.5 67t65.5 26q39 0 65.5 -26 t26.5 -67q0 -43 -13.5 -93t-40 -92t-67.5 -69.5t-96 -27.5q-49 0 -89 19.5t-68.5 51t-45 73.5t-16.5 85q0 78 18 150q-47 -51 -79.5 -115t-53 -132.5t-30 -140t-9.5 -139.5z" />
<glyph unicode="&#xd4;" horiz-adv-x="1349" d="M-92 782q0 121 21.5 237t68.5 218t123 189t186 151l-2 -2q20 14 51 14q10 0 15 -2q-23 12 -36 33.5t-13 48.5q0 20 9 37.5t21.5 33t25.5 28t21 20.5v-2q23 20 41.5 42.5t38.5 51.5q8 12 20.5 27.5t28 30t34 24.5t40.5 10q29 0 60 -24q20 -16 33.5 -34t25.5 -38 q8 -10 13 -19.5t16 -19.5q12 -18 24 -31.5t25 -23.5q12 -12 27.5 -25.5t27.5 -27.5q10 -10 16.5 -26t6.5 -34q0 -25 -15 -49q115 -41 203 -133t147.5 -208t89 -243t29.5 -237q0 -154 -45 -310.5t-134 -282.5t-221 -205t-308 -79q-182 0 -316.5 75t-222.5 195.5t-132 275.5 t-44 314zM94 782q0 -123 32 -243.5t96.5 -217t163.5 -156t237 -59.5q131 0 229 65t162.5 165t96.5 223t32 240q0 94 -28 209.5t-83 216t-137 169t-193 68.5q-66 0 -114.5 -24.5t-83.5 -65.5t-52.5 -96t-17.5 -117q0 -16 9.5 -30.5t23.5 -14.5q8 0 14 10.5t10.5 25.5 t5.5 32.5t1 29.5q0 41 28.5 67t65.5 26q39 0 65.5 -26t26.5 -67q0 -43 -13.5 -93t-40 -92t-67.5 -69.5t-96 -27.5q-49 0 -89 19.5t-68.5 51t-45 73.5t-16.5 85q0 78 18 150q-47 -51 -79.5 -115t-53 -132.5t-30 -140t-9.5 -139.5zM393 1579q10 -4 16.5 -10.5l12.5 -12.5 q53 41 116.5 65t141.5 28q-18 20 -35.5 42.5t-34.5 43.5v-2l-8 8q-23 -25 -51.5 -53.5t-55 -53t-49 -41t-30.5 -16.5q-14 0 -23 2z" />
<glyph unicode="&#xd5;" horiz-adv-x="1349" d="M-92 782q0 121 21.5 237t68.5 218t123 189t186 151l-2 -2q20 14 51 14q20 0 37 -9t29 -24q47 35 102.5 58.5t120.5 30.5q-29 20 -52.5 44.5t-39.5 47.5q-6 8 -11 14t-10 10q-8 -12 -20 -24q-25 -29 -50.5 -53.5t-60.5 -24.5q-37 0 -65.5 28.5t-28.5 65.5q0 20 27.5 55 t64.5 67t75 55.5t58 23.5q68 0 105 -34t65 -75q10 -14 18.5 -25.5t16.5 -15.5q8 8 25 21v-2q29 25 56.5 48t58.5 23q39 0 65.5 -26.5t26.5 -65.5q0 -14 -15.5 -36.5t-40 -46t-53.5 -46t-53 -37.5q129 -29 227.5 -119t164 -210.5t99 -256t33.5 -251.5q0 -154 -45 -310.5 t-134 -282.5t-221 -205t-308 -79q-182 0 -316.5 75t-222.5 195.5t-132 275.5t-44 314zM94 782q0 -123 32 -243.5t96.5 -217t163.5 -156t237 -59.5q131 0 229 65t162.5 165t96.5 223t32 240q0 94 -28 209.5t-83 216t-137 169t-193 68.5q-66 0 -114.5 -24.5t-83.5 -65.5 t-52.5 -96t-17.5 -117q0 -16 9.5 -30.5t23.5 -14.5q8 0 14 10.5t10.5 25.5t5.5 32.5t1 29.5q0 41 28.5 67t65.5 26q39 0 65.5 -26t26.5 -67q0 -43 -13.5 -93t-40 -92t-67.5 -69.5t-96 -27.5q-49 0 -89 19.5t-68.5 51t-45 73.5t-16.5 85q0 78 18 150q-47 -51 -79.5 -115 t-53 -132.5t-30 -140t-9.5 -139.5z" />
<glyph unicode="&#xd6;" horiz-adv-x="1349" d="M-92 782q0 121 21.5 237t68.5 218t123 189t186 151l-2 -2q20 14 51 14q20 0 37 -9t29 -24q10 8 21.5 15.5t23.5 15.5h-6q-57 0 -101.5 43t-44.5 101q0 59 44 100t102 41q74 0 112 -60q43 59 117 60q59 0 100 -41t41 -100q0 -27 -9 -49.5t-25 -43.5q131 -27 231 -116.5 t168 -210.5t101.5 -257t33.5 -255q0 -154 -45 -310.5t-134 -282.5t-221 -205t-308 -79q-182 0 -316.5 75t-222.5 195.5t-132 275.5t-44 314zM94 782q0 -123 32 -243.5t96.5 -217t163.5 -156t237 -59.5q131 0 229 65t162.5 165t96.5 223t32 240q0 94 -28 209.5t-83 216 t-137 169t-193 68.5q-66 0 -114.5 -24.5t-83.5 -65.5t-52.5 -96t-17.5 -117q0 -16 9.5 -30.5t23.5 -14.5q8 0 14 10.5t10.5 25.5t5.5 32.5t1 29.5q0 41 28.5 67t65.5 26q39 0 65.5 -26t26.5 -67q0 -43 -13.5 -93t-40 -92t-67.5 -69.5t-96 -27.5q-49 0 -89 19.5t-68.5 51 t-45 73.5t-16.5 85q0 78 18 150q-47 -51 -79.5 -115t-53 -132.5t-30 -140t-9.5 -139.5zM557 1626q12 4 29 8l-13 13q-8 -13 -16 -21z" />
<glyph unicode="&#xd7;" horiz-adv-x="1533" d="M395 453q0 39 25 63l213 203q-51 47 -107.5 100t-105.5 101q-25 25 -25 63q0 39 27 65.5t65 26.5q39 0 66 -26h-2q31 -29 56.5 -53.5l51 -49t51 -49.5t56.5 -53q53 51 108.5 103t108.5 102h-2q27 27 66 26q37 0 65.5 -26.5t28.5 -65.5q0 -33 -31 -63l-209 -201 q53 -51 104.5 -102.5t104.5 -100.5q31 -30 31 -63q0 -39 -29 -66t-65 -27q-39 0 -66 27h2q-31 29 -57.5 53.5t-51 49t-51 49t-57.5 53.5q-53 -51 -107.5 -103.5t-107.5 -101.5h2q-27 -27 -66 -27t-65.5 27t-26.5 66z" />
<glyph unicode="&#xd8;" horiz-adv-x="958" d="M14 528v521q0 98 29 204.5t86 195.5t145 147.5t205 58.5q119 0 219 -70q14 18 35 34.5t47 16.5q35 0 66 -23.5t31 -66.5q0 -14 -12.5 -49t-24.5 -63q53 -88 79.5 -186.5t26.5 -198.5v-521q0 -98 -28.5 -205.5t-87 -196.5t-146.5 -146.5t-205 -57.5q-121 0 -217 66 q-12 -27 -33.5 -46.5t-56.5 -19.5q-39 0 -65.5 26.5t-26.5 65.5q0 14 14.5 54.5t26.5 70.5q-53 88 -80 188.5t-27 200.5zM201 528q0 -76 18 -145l406 1024q-63 63 -146 63q-72 0 -125 -42t-87 -105t-50 -137t-16 -137v-521zM334 168q61 -61 145 -62q70 0 123 42t88 105.5 t52.5 137.5t17.5 137v521q0 39 -4 75.5t-15 71.5q-100 -254 -202.5 -512t-204.5 -516z" />
<glyph unicode="&#xd9;" horiz-adv-x="1902" d="M-92 1200q0 76 24.5 158t71.5 149.5t115.5 111.5t156.5 44q78 0 132.5 -37t89 -92t51 -123t16.5 -129v-846q0 -57 18.5 -115.5t52.5 -106.5t83 -78t110 -30t110.5 27t83.5 70t52.5 98t18.5 113v1161q0 41 28.5 66.5t65.5 25.5q39 0 65.5 -25.5t26.5 -66.5v-1239 q0 -43 16.5 -85t44 -74t66.5 -51.5t84 -19.5t84 18.5t67.5 50.5t44 74t15.5 87q0 20 -11.5 37.5t-29.5 17.5q-4 0 -4 -10q-10 -31 -24.5 -55.5t-67.5 -24.5q-37 0 -66 25.5t-29 66.5q0 39 15.5 73t42 58.5t61.5 37.5t72 13q49 0 91 -19t72.5 -53t47 -77t16.5 -90 q0 -84 -30.5 -159t-84 -131t-126 -90t-156.5 -34q-100 0 -183 45t-137 123q-59 -82 -146 -125t-196 -43q-104 0 -187 45t-141.5 119t-90 166t-31.5 184v463q-31 -45 -78 -73.5t-113 -28.5q-80 0 -133 41t-85.5 101t-47 131t-14.5 130zM94 1200q0 -27 4 -64.5t15.5 -71.5 t29 -58.5t45.5 -24.5q20 0 32.5 15.5t21 37t11.5 47t3 45.5q0 41 26.5 67t65.5 26q14 0 31 -7v70q0 27 -5 60.5t-17.5 64.5t-32 51.5t-48.5 20.5q-45 0 -78.5 -29t-57 -71t-35 -91t-11.5 -88zM573 1866q0 39 30 65.5t67 26.5q20 0 31.5 -2t23.5 -14q2 -4 20.5 -25t26.5 -31 q14 -16 27.5 -30.5t29.5 -28.5t39 -30.5t45 -33.5q10 -8 21.5 -17t21.5 -17q39 -33 39 -72q0 -37 -26.5 -65.5t-65.5 -28.5q-14 0 -43 18t-65.5 48t-75.5 66t-72 69.5t-53.5 61t-20.5 40.5z" />
<glyph unicode="&#xda;" horiz-adv-x="1902" d="M-92 1200q0 76 24.5 158t71.5 149.5t115.5 111.5t156.5 44q78 0 132.5 -37t89 -92t51 -123t16.5 -129v-846q0 -57 18.5 -115.5t52.5 -106.5t83 -78t110 -30t110.5 27t83.5 70t52.5 98t18.5 113v1161q0 41 28.5 66.5t65.5 25.5q39 0 65.5 -25.5t26.5 -66.5v-1239 q0 -43 16.5 -85t44 -74t66.5 -51.5t84 -19.5t84 18.5t67.5 50.5t44 74t15.5 87q0 20 -11.5 37.5t-29.5 17.5q-4 0 -4 -10q-10 -31 -24.5 -55.5t-67.5 -24.5q-37 0 -66 25.5t-29 66.5q0 39 15.5 73t42 58.5t61.5 37.5t72 13q49 0 91 -19t72.5 -53t47 -77t16.5 -90 q0 -84 -30.5 -159t-84 -131t-126 -90t-156.5 -34q-100 0 -183 45t-137 123q-59 -82 -146 -125t-196 -43q-104 0 -187 45t-141.5 119t-90 166t-31.5 184v463q-31 -45 -78 -73.5t-113 -28.5q-80 0 -133 41t-85.5 101t-47 131t-14.5 130zM94 1200q0 -27 4 -64.5t15.5 -71.5 t29 -58.5t45.5 -24.5q20 0 32.5 15.5t21 37t11.5 47t3 45.5q0 41 26.5 67t65.5 26q14 0 31 -7v70q0 27 -5 60.5t-17.5 64.5t-32 51.5t-48.5 20.5q-45 0 -78.5 -29t-57 -71t-35 -91t-11.5 -88zM594 1657q0 41 37 72q10 8 19 15t20 15q37 29 67.5 51.5t63.5 57.5q8 12 18 22 l-2 -2q10 14 17.5 22.5t17.5 18.5q29 29 72 29q39 0 65.5 -26.5t26.5 -65.5q0 -14 -20.5 -41t-52.5 -60.5t-70.5 -69.5t-74.5 -66t-66 -48t-44 -18q-37 0 -65.5 28.5t-28.5 65.5z" />
<glyph unicode="&#xdb;" horiz-adv-x="1902" d="M-92 1200q0 76 24.5 158t71.5 149.5t115.5 111.5t156.5 44q78 0 132.5 -37t89 -92t51 -123t16.5 -129v-846q0 -57 18.5 -115.5t52.5 -106.5t83 -78t110 -30t110.5 27t83.5 70t52.5 98t18.5 113v1161q0 41 28.5 66.5t65.5 25.5q39 0 65.5 -25.5t26.5 -66.5v-1239 q0 -43 16.5 -85t44 -74t66.5 -51.5t84 -19.5t84 18.5t67.5 50.5t44 74t15.5 87q0 20 -11.5 37.5t-29.5 17.5q-4 0 -4 -10q-10 -31 -24.5 -55.5t-67.5 -24.5q-37 0 -66 25.5t-29 66.5q0 39 15.5 73t42 58.5t61.5 37.5t72 13q49 0 91 -19t72.5 -53t47 -77t16.5 -90 q0 -84 -30.5 -159t-84 -131t-126 -90t-156.5 -34q-100 0 -183 45t-137 123q-59 -82 -146 -125t-196 -43q-104 0 -187 45t-141.5 119t-90 166t-31.5 184v463q-31 -45 -78 -73.5t-113 -28.5q-80 0 -133 41t-85.5 101t-47 131t-14.5 130zM94 1200q0 -27 4 -64.5t15.5 -71.5 t29 -58.5t45.5 -24.5q20 0 32.5 15.5t21 37t11.5 47t3 45.5q0 41 26.5 67t65.5 26q14 0 31 -7v70q0 27 -5 60.5t-17.5 64.5t-32 51.5t-48.5 20.5q-45 0 -78.5 -29t-57 -71t-35 -91t-11.5 -88zM508 1669q0 20 9 37.5t21.5 33t26 28t21.5 20.5v-2q23 20 41 42.5t39 51.5 q8 12 20 27.5t27.5 30t34 24.5t40.5 10q29 0 60 -24q20 -16 33.5 -34t25.5 -38q8 -10 13.5 -19.5t15.5 -19.5q12 -18 24.5 -31.5t24.5 -23.5q12 -12 27.5 -25.5t27.5 -27.5q10 -10 16.5 -26t6.5 -34q0 -39 -26.5 -65.5t-65.5 -26.5q-20 0 -43 15.5t-45.5 39t-45 51 t-40.5 52.5v-2l-9 8q-23 -25 -51 -53.5t-55 -53t-49.5 -41t-30.5 -16.5q-37 0 -65.5 26.5t-28.5 65.5z" />
<glyph unicode="&#xdc;" horiz-adv-x="1902" d="M-92 1200q0 76 24.5 158t71.5 149.5t115.5 111.5t156.5 44q78 0 132.5 -37t89 -92t51 -123t16.5 -129v-846q0 -57 18.5 -115.5t52.5 -106.5t83 -78t110 -30t110.5 27t83.5 70t52.5 98t18.5 113v1161q0 41 28.5 66.5t65.5 25.5q39 0 65.5 -25.5t26.5 -66.5v-1239 q0 -43 16.5 -85t44 -74t66.5 -51.5t84 -19.5t84 18.5t67.5 50.5t44 74t15.5 87q0 20 -11.5 37.5t-29.5 17.5q-4 0 -4 -10q-10 -31 -24.5 -55.5t-67.5 -24.5q-37 0 -66 25.5t-29 66.5q0 39 15.5 73t42 58.5t61.5 37.5t72 13q49 0 91 -19t72.5 -53t47 -77t16.5 -90 q0 -84 -30.5 -159t-84 -131t-126 -90t-156.5 -34q-100 0 -183 45t-137 123q-59 -82 -146 -125t-196 -43q-104 0 -187 45t-141.5 119t-90 166t-31.5 184v463q-31 -45 -78 -73.5t-113 -28.5q-80 0 -133 41t-85.5 101t-47 131t-14.5 130zM94 1200q0 -27 4 -64.5t15.5 -71.5 t29 -58.5t45.5 -24.5q20 0 32.5 15.5t21 37t11.5 47t3 45.5q0 41 26.5 67t65.5 26q14 0 31 -7v70q0 27 -5 60.5t-17.5 64.5t-32 51.5t-48.5 20.5q-45 0 -78.5 -29t-57 -71t-35 -91t-11.5 -88zM571 1731q0 59 44 100t102 41q35 0 63.5 -15.5t48.5 -41.5q20 27 50 42t65 15 q59 0 100 -41t41 -100q0 -57 -40.5 -100.5t-100.5 -43.5q-72 0 -115 60q-43 -59 -112 -60q-57 0 -101.5 43t-44.5 101z" />
<glyph unicode="&#xe0;" horiz-adv-x="974" d="M-92 322q0 80 29.5 152.5t82 126.5t124 87t153.5 33q111 0 207 -62q8 25 28.5 41.5t61.5 16.5q39 0 65.5 -26.5t26.5 -65.5v-424v-29q0 -16 2 -30.5t6 -25t11 -10.5q20 0 45.5 27t49 62.5t44 73.5t30.5 61l-2 -2q12 27 34 56.5t69 29.5q37 0 65.5 -25.5t28.5 -64.5 q0 -12 -1 -22.5t-9 -20.5q-20 -45 -56 -106.5t-84.5 -118t-102.5 -95.5t-111 -39q-59 0 -99.5 23.5t-64.5 64.5q-100 -88 -244 -88q-82 0 -153.5 33t-124 87t-82 127t-29.5 153zM94 322q0 -43 15.5 -82t43 -69t64.5 -47.5t80 -17.5t80 17.5t64.5 47.5t43 69t15.5 82 t-15.5 81.5t-43 68.5t-64.5 48.5t-80 18.5t-81 -18.5t-64.5 -48.5t-42 -68.5t-15.5 -81.5zM129 1026q0 39 29.5 65.5t66.5 26.5q47 0 76 -37q8 -10 13 -18t14 -16q14 -16 26.5 -29.5t30.5 -30.5q37 -31 68 -51q16 -10 30.5 -22.5t28.5 -22.5q39 -33 39 -72t-26.5 -65.5 t-65.5 -26.5q-20 0 -74.5 38t-111 89t-100.5 100.5t-44 71.5z" />
<glyph unicode="&#xe1;" horiz-adv-x="972" d="M-92 322q0 80 29.5 152.5t82 126.5t123 87t152.5 33q113 0 209 -62q8 25 27.5 41.5t60.5 16.5q37 0 65.5 -26.5t28.5 -65.5v-469q0 -16 3 -33t13 -17q20 0 46 27t50.5 63.5t45 74.5t33.5 63l-3 -2q12 29 32 55.5t67 26.5q35 0 65.5 -25.5t30.5 -64.5q0 -10 -1 -18.5 t-9 -18.5q-23 -47 -59.5 -109.5t-84 -120t-102.5 -96.5t-111 -39q-59 0 -99 23.5t-64 64.5q-100 -88 -244 -88q-82 0 -152.5 33t-123 87t-82 127t-29.5 153zM94 322q0 -43 15.5 -82t43 -69t63.5 -47.5t79 -17.5t80 17.5t64.5 47.5t44 69t16.5 82t-16.5 81.5t-44 68.5 t-64.5 48.5t-80 18.5t-80 -18.5t-63.5 -48.5t-42 -68.5t-15.5 -81.5zM152 825q0 47 32 74q16 12 34 23.5t34 23.5q14 10 29.5 21.5t31.5 25.5t36 34t38 42l16 21q14 14 34 24t40 10q37 0 65.5 -26.5t28.5 -65.5q0 -12 -20.5 -39.5t-52 -60.5t-70.5 -69t-75 -64.5t-65.5 -47 t-43.5 -18.5q-39 0 -65.5 26.5t-26.5 65.5z" />
<glyph unicode="&#xe2;" horiz-adv-x="974" d="M-92 322q0 80 29.5 152.5t82 127.5t124 88t153.5 33q113 0 209 -64q8 25 27.5 41.5t60.5 16.5q39 0 65.5 -26.5t26.5 -65.5v-424v-29q0 -16 2 -30.5t6 -25t11 -10.5q20 0 45.5 27t49 62.5t44 73.5t30.5 61l-2 -2q12 27 34 56.5t69 29.5q37 0 65.5 -25.5t28.5 -64.5 q0 -12 -1 -22.5t-9 -20.5q-20 -45 -56 -106.5t-84.5 -118t-102.5 -95.5t-111 -39q-115 0 -166 88q-104 -88 -242 -88q-82 0 -153.5 33t-124 87t-82 127t-29.5 153zM27 852q0 37 24.5 64.5t44.5 46.5q2 0 6 4q47 45 84 94q8 10 19.5 25.5t27 29.5t34 24.5t40.5 10.5 q29 0 60 -25q18 -16 31.5 -34.5t27.5 -38.5q4 -4 11 -14.5t18 -20.5q12 -18 24.5 -31.5t24.5 -23.5q12 -12 27.5 -25.5t27.5 -28.5q10 -10 16.5 -25.5t6.5 -31.5q0 -39 -27 -65.5t-66 -26.5q-16 0 -38.5 15.5t-46 38t-47 49t-42.5 48.5q-8 8 -8 11q-23 -25 -51.5 -53.5 t-56 -52t-49 -40t-29.5 -16.5q-37 0 -65.5 26.5t-28.5 65.5zM94 322q0 -43 15.5 -82t42 -69t64.5 -47.5t81 -17.5t80 17.5t64.5 47.5t43 69t15.5 82t-15.5 81.5t-42 68.5t-64.5 48.5t-81 18.5t-81 -18.5t-64.5 -48.5t-42 -68.5t-15.5 -81.5z" />
<glyph unicode="&#xe3;" horiz-adv-x="974" d="M-92 322q0 80 29.5 152.5t82 126.5t124 87t153.5 33q113 0 209 -64q8 25 27.5 41.5t60.5 16.5q39 0 65.5 -26.5t26.5 -65.5v-422v-29q0 -16 2 -30.5t6 -25t11 -10.5q20 0 45.5 27t49 62.5t44 73.5t30.5 61l-2 -2q12 27 34 56.5t69 29.5q37 0 65.5 -25.5t28.5 -64.5 q0 -12 -1 -22.5t-9 -20.5q-20 -45 -56 -106.5t-84.5 -118t-102.5 -95.5t-111 -39q-59 0 -99.5 22.5t-64.5 63.5q-104 -86 -244 -86q-82 0 -153.5 33t-124 87t-82 127t-29.5 153zM6 885q0 23 27.5 56.5t65.5 65t76 54t58 22.5q66 0 105 -34.5t68 -73.5q10 -12 16 -21.5 t14 -17.5q8 8 25 20v-2q29 25 56.5 48.5t57.5 23.5q39 0 66 -28.5t27 -65.5q0 -20 -28 -52t-64.5 -63t-72.5 -52.5t-54 -21.5q-37 0 -67 11.5t-53.5 30t-42 40t-32.5 41.5q-18 16 -21 27q-4 -4 -10 -11.5t-12 -15.5q-27 -29 -52.5 -51t-58.5 -22q-37 0 -65.5 26.5 t-28.5 65.5zM94 322q0 -43 15.5 -82t43 -69t64.5 -47.5t80 -17.5t80 17.5t64.5 47.5t43 69t15.5 82t-15.5 81.5t-43 68.5t-64.5 47.5t-80 17.5t-81 -17.5t-64.5 -47.5t-42 -68.5t-15.5 -81.5z" />
<glyph unicode="&#xe4;" horiz-adv-x="974" d="M-92 319q0 80 29.5 153t82 128t124 88t153.5 33q55 0 107.5 -17.5t99.5 -48.5q8 25 28.5 42.5t61.5 17.5q39 0 65.5 -26.5t26.5 -65.5v-422v-29q0 -16 2 -30.5t6 -25t11 -10.5q20 0 45.5 27t49 62.5t44 73.5t30.5 61l-2 -2q12 27 34 55.5t69 28.5q37 0 65.5 -25.5 t28.5 -64.5q0 -10 -1 -20.5t-9 -20.5q-20 -45 -56 -106.5t-84.5 -118t-102.5 -95.5t-111 -39q-59 0 -99.5 22.5t-64.5 63.5q-104 -86 -244 -86q-82 0 -153.5 32t-124 87t-82 127t-29.5 151zM33 915q0 59 44 99.5t101 40.5q35 0 64.5 -15.5t48.5 -42.5q23 27 52.5 42.5 t64.5 15.5q59 0 100 -40.5t41 -99.5t-41 -99t-100 -40q-35 0 -65 15.5t-52 39.5q-39 -55 -113 -55q-57 0 -101 40t-44 99zM94 319q0 -43 15.5 -81.5t43 -67.5t64.5 -46.5t80 -17.5t80 17.5t64.5 46.5t43 67.5t15.5 81.5t-15.5 82t-43 69t-64.5 48.5t-80 18.5t-81 -18.5 t-64.5 -48.5t-42 -69t-15.5 -82z" />
<glyph unicode="&#xe5;" horiz-adv-x="974" d="M-92 315q0 80 30.5 153t83 126t123 85t152.5 32q113 0 209 -64q8 25 27.5 41.5t60.5 16.5q39 0 65.5 -26t26.5 -65v-415v-29q0 -16 2 -30.5t6 -25t11 -10.5q20 0 44.5 27t49 62.5t44 72.5t31.5 60l-2 -2q12 27 34 55.5t69 28.5q37 0 65.5 -26t28.5 -65q0 -12 -1 -22 t-9 -21q-20 -45 -56 -105t-84.5 -115.5t-102.5 -93.5t-111 -38q-117 0 -164 84q-51 -41 -113.5 -62.5t-130.5 -21.5q-82 0 -152.5 31t-123 85t-83 126t-30.5 151zM94 315q0 -43 15.5 -80.5t43 -66.5t64.5 -46.5t80 -17.5t80 17.5t64.5 46.5t43 66.5t15.5 80.5t-15.5 81 t-43 68t-64.5 47t-80 17t-80 -17t-64.5 -47t-43 -68t-15.5 -81zM145 961q0 39 15.5 71.5t42 55t60.5 36t71 13.5t70.5 -13.5t59 -36t41 -55t15.5 -71.5t-15.5 -72t-41 -56.5t-59 -37t-70.5 -13.5t-71 13.5t-60.5 37t-42 56.5t-15.5 72zM315 961q0 -14 19 -15q18 1 18 15 q0 6 -6 9t-12 3q-18 0 -19 -12z" />
<glyph unicode="&#xe6;" horiz-adv-x="1024" />
<glyph unicode="&#xe7;" horiz-adv-x="700" d="M-68 309q0 80 30 153t82 128t123 88t152 33q76 0 152 -30t127 -87q25 -31 25 -59q0 -37 -31 -66t-66 -29q-10 0 -27.5 8.5t-33.5 18.5q-27 16 -67 37.5t-79 21.5q-43 0 -79.5 -18.5t-63 -48t-42 -68.5t-15.5 -82t15.5 -82t43 -67.5t63 -46t78.5 -17.5q86 0 144.5 49.5 t101.5 122.5v-4q4 6 6 11.5t7 11.5q12 23 23 45t20 30v-2q16 23 31.5 32t43.5 9q35 0 66 -25.5t31 -64.5q0 -14 -7 -26v-2q-29 -57 -62.5 -112.5t-75.5 -103t-92 -84t-112 -55.5q0 -8 -2 -18q33 -10 65 -27.5t56.5 -44t38.5 -58.5t14 -69q0 -45 -22.5 -78.5t-56 -56 t-73.5 -34t-75 -11.5q-66 0 -127 22.5t-100 86.5q-10 12 -12.5 23t-2.5 26q0 39 28 64.5t63 27.5v22q0 10 -1 13.5t3 13.5q2 16 4 25.5t4 16.5t3 16.5t1 27.5q-72 12 -130.5 47t-100 88t-65.5 119t-24 139zM344 -276q10 -4 20.5 -6.5t24.5 -2.5q10 0 25.5 -1t15.5 -3 q0 10 -19.5 17.5t-31.5 7.5l-8 -4q-6 -2 -13.5 -4t-13.5 -4z" />
<glyph unicode="&#xe8;" horiz-adv-x="737" d="M-92 322q0 84 30.5 156.5t84 126.5t125 85t155.5 31q49 0 104.5 -16.5t103.5 -49t80 -79t32 -107.5q0 -70 -30 -123t-78 -90t-107.5 -55.5t-120.5 -18.5q-41 0 -81 5.5t-75 15.5q29 -41 71 -69t95 -28q98 0 178 42t133 128q2 4 5 8.5t8 16.5q8 16 19 35.5t25.5 37t33 29 t40.5 11.5q37 0 66 -25.5t29 -64.5q0 -12 -1.5 -22.5t-9.5 -20.5q-72 -166 -206 -262.5t-320 -96.5q-82 0 -152.5 33t-123 87t-83 127t-30.5 153zM109 408q43 -20 85 -30.5t93 -10.5q25 0 51.5 6t48 18t35.5 31.5t14 46.5q0 16 -14 28.5t-35.5 21.5t-44.5 14.5t-39 5.5 q-66 0 -118 -37t-76 -94zM129 1026q0 39 29.5 65.5t66.5 26.5q47 0 76 -37l-4 4q10 -10 16 -19t15 -19q14 -16 26.5 -29.5t30.5 -30.5q37 -31 68 -51q16 -10 30.5 -22.5t28.5 -22.5q39 -33 39 -72t-26.5 -65.5t-65.5 -26.5q-20 0 -74.5 38t-111 89t-100.5 100.5t-44 71.5z " />
<glyph unicode="&#xe9;" horiz-adv-x="737" d="M-92 322q0 84 30.5 156.5t84 126.5t125 85t155.5 31q49 0 104.5 -16.5t103.5 -49t80 -79t32 -107.5q0 -70 -30 -123t-78 -90t-107.5 -55.5t-120.5 -18.5q-41 0 -81 5.5t-75 15.5q27 -45 69 -71t97 -26q98 0 178 42t133 128q2 4 5 8.5t8 16.5q8 16 19 35.5t25.5 37t33 29 t40.5 11.5q37 0 66 -25.5t29 -64.5q0 -12 -1.5 -22.5t-9.5 -20.5q-72 -166 -206 -262.5t-320 -96.5q-82 0 -152.5 33t-123 87t-83 127t-30.5 153zM109 408q43 -20 85 -30.5t93 -10.5q25 0 51.5 6t48 18t35.5 31.5t14 46.5q0 16 -14 28.5t-35.5 21.5t-44.5 14.5t-39 5.5 q-66 0 -118 -37t-76 -94zM117 825q0 41 37 72q27 20 61 45q31 20 68 51q16 14 35.5 34t37.5 42l17 21q14 14 33.5 24t39.5 10q39 0 66 -26.5t27 -65.5q0 -12 -20.5 -39.5t-52.5 -60.5t-71 -69t-74.5 -64.5t-65.5 -47t-44 -18.5q-37 0 -65.5 26.5t-28.5 65.5z" />
<glyph unicode="&#xea;" horiz-adv-x="737" d="M-92 322q0 84 30.5 156.5t84 126.5t125 86t155.5 32q49 0 104.5 -17.5t103.5 -49t80 -79t32 -108.5q0 -70 -30 -123t-78 -89t-107.5 -54.5t-120.5 -18.5q-49 0 -82 3t-74 16q27 -45 69 -71t97 -26q98 0 178 42t133 128q2 4 5 8.5t8 16.5q8 16 19 35.5t25.5 37t33 29 t40.5 11.5q37 0 66 -25.5t29 -64.5q0 -12 -1.5 -22.5t-9.5 -20.5q-72 -166 -206 -262.5t-320 -96.5q-82 0 -152.5 33t-123 87t-83 127t-30.5 153zM27 852q0 37 24.5 64.5t44.5 46.5q2 0 6 4q47 45 84 94q8 10 19.5 25.5t27 29.5t34 24.5t40.5 10.5q29 0 60 -25 q18 -16 31.5 -34.5t27.5 -38.5q4 -4 11 -14.5t18 -20.5q12 -18 24.5 -31.5t24.5 -23.5q12 -12 27.5 -25.5t27.5 -28.5q10 -10 16.5 -25.5t6.5 -31.5q0 -39 -27 -65.5t-66 -26.5q-16 0 -38.5 15.5t-46 38t-47 49t-42.5 48.5q-8 8 -8 11q-23 -25 -51.5 -53.5t-56 -52t-49 -40 t-29.5 -16.5q-37 0 -65.5 26.5t-28.5 65.5zM109 408q43 -20 85 -30.5t93 -10.5q25 0 51.5 6t48 18t35.5 31.5t14 46.5q0 16 -14 28.5t-35.5 21.5t-44.5 14.5t-39 5.5q-66 0 -118 -37t-76 -94z" />
<glyph unicode="&#xeb;" horiz-adv-x="737" d="M-92 319q0 84 30.5 157t84 127t125 86t155.5 32q49 0 104.5 -17.5t103.5 -50t80 -80t32 -106.5q0 -70 -30 -123t-78 -89t-108.5 -54.5t-119.5 -18.5q-41 0 -81 5.5t-75 15.5q29 -41 71 -69t95 -28q98 0 178 41t133 127q2 4 5 8.5t8 16.5q8 16 19 35.5t25.5 37t33 29 t40.5 11.5q37 0 66 -25.5t29 -64.5q0 -10 -1.5 -20.5t-9.5 -20.5q-72 -166 -206 -262.5t-320 -96.5q-82 0 -152.5 32t-123 87t-83 127t-30.5 151zM20 915q0 59 44.5 99.5t101.5 40.5q35 0 64.5 -15.5t48.5 -42.5q20 27 50.5 42.5t65.5 15.5q59 0 100.5 -40.5t41.5 -99.5 t-41 -99t-101 -40q-35 0 -65.5 15.5t-50.5 42.5q-18 -27 -48 -42.5t-65 -15.5q-57 0 -101.5 40t-44.5 99zM109 408q43 -20 85 -30.5t93 -10.5q25 0 51.5 6t48 18t35.5 30.5t14 45.5q0 16 -14 28.5t-35.5 21.5t-44.5 14.5t-39 5.5q-66 0 -118 -36t-76 -93z" />
<glyph unicode="&#xee;" horiz-adv-x="509" d="M-174 852q0 37 24.5 64.5t45.5 46.5q2 0 6 4q49 47 90 102v2q16 25 45 52.5t67 27.5q29 0 60 -25q20 -18 33.5 -36.5t27.5 -34.5q6 -8 13.5 -17.5t15.5 -19.5q10 -16 24.5 -29.5t26.5 -25.5l25.5 -25.5t25.5 -28.5q25 -28 25 -57q0 -39 -28.5 -65.5t-65.5 -26.5 q-16 0 -39 15.5t-46.5 38t-47 49t-41.5 48.5q-8 8 -9 11q-23 -25 -51 -53.5t-56 -52t-49.5 -40t-29.5 -16.5q-39 0 -65.5 26.5t-26.5 65.5zM-92 322q0 16 14.5 55t30.5 80v-2q10 25 18.5 47t12.5 39q2 4 5 17t7 30q8 31 15 58.5t26 45.5q29 29 65 29q41 0 68 -31t27 -65 l-2 -422v-29q0 -16 2 -31.5t6 -26t10 -10.5q27 0 51.5 16.5t46 41t39 53.5t29.5 53q10 18 13 25.5t7 13.5q6 16 13.5 31.5t19.5 32.5q31 41 76 41q35 0 65.5 -25.5t30.5 -64.5v-13q0 -6 -4 -16v10v-8q-20 -55 -57 -120.5t-87 -122t-111.5 -94.5t-131.5 -38q-66 0 -104.5 29 t-60 73t-30 98t-8.5 107h-10q-39 0 -65.5 27t-26.5 66z" />
<glyph unicode="&#xef;" horiz-adv-x="542" d="M-182 907q0 59 44 99.5t101 40.5q35 0 64.5 -15.5t48.5 -42.5q20 27 51 42.5t66 15.5q59 0 100 -40.5t41 -99.5t-41 -99t-100 -40q-35 0 -66 15.5t-51 41.5q-18 -27 -48 -42t-65 -15q-57 0 -101 40t-44 99zM-92 322q0 16 14.5 55t30.5 80v-2q10 25 18.5 47t12.5 39 q2 4 5 17t7 30q8 31 15 58.5t26 45.5q29 29 65 29q41 0 68 -31t27 -65l-2 -422v-29q0 -16 2 -31.5t6 -26t10 -10.5q27 0 51.5 16.5t46 41t39 53.5t29.5 53q10 18 13 25.5t7 13.5q6 16 13.5 31.5t19.5 32.5q31 41 76 41q35 0 65.5 -25.5t30.5 -64.5q0 -2 -1 -3.5t-1 -3.5 q0 -4 -1 -10t-1 -10q-20 -55 -57 -120.5t-87 -122t-111.5 -94.5t-131.5 -38q-66 0 -104.5 29t-60 73t-30 98t-8.5 107h-10q-39 0 -65.5 27t-26.5 66z" />
<glyph unicode="&#xf1;" horiz-adv-x="1042" d="M-92 322q0 12 11 44.5t25.5 70.5t29 72t20.5 46q14 27 33.5 55.5t43 52t54.5 39t70 15.5q72 0 114 -47q33 27 69 37t81 10q55 0 105 -16.5t87 -48t58.5 -78t21.5 -105.5v-238q0 -20 1 -41.5t6 -40t15.5 -31t28.5 -12.5q12 0 36 29t48.5 68t45 75.5t30.5 55.5l6 14 q16 27 36 46.5t58 19.5q37 0 66 -25.5t29 -64.5v-13q0 -6 -4 -16v10v-8q-14 -37 -53.5 -100.5t-90.5 -125t-106.5 -105.5t-100.5 -44q-72 0 -118 27.5t-72.5 72t-36.5 99.5t-10 110v238q0 35 -25.5 49t-60.5 14t-57.5 -30.5t-22.5 -65.5v-422q0 -39 -28.5 -65.5t-65.5 -26.5 q-39 0 -65.5 26.5t-26.5 65.5v459v35q0 25 2 24q-12 0 -27.5 -40.5t-32.5 -88.5v3q-10 -35 -22.5 -67t-28.5 -56.5t-36.5 -39t-47.5 -14.5q-39 0 -65.5 27t-26.5 66zM47 889q0 23 27.5 56.5t64.5 65t75 54t58 22.5q66 0 105 -33.5t67 -74.5q6 -10 14.5 -20.5t14.5 -16.5 l13.5 9t11.5 10v-3q29 27 62.5 49.5t53.5 22.5q35 0 66 -28.5t31 -65.5q0 -20 -28 -52t-64.5 -62.5t-74.5 -52t-57 -21.5q-37 0 -66.5 11t-53 29.5t-42 40t-32.5 41.5q-12 12 -21 25l-10 -10t-12 -15l2 2q-25 -29 -50.5 -52t-60.5 -23q-37 0 -65.5 26.5t-28.5 65.5z" />
<glyph unicode="&#xf2;" horiz-adv-x="819" d="M-92 322q0 80 29.5 152.5t82 126.5t124 87t153.5 33t153.5 -33t124 -87t82 -127t29.5 -152v-5q18 4 28.5 16.5t20.5 24.5q16 23 33.5 39.5t52.5 16.5q39 0 65.5 -25.5t26.5 -64.5v-13q0 -8 -4 -16v-2q-35 -76 -100.5 -119t-142.5 -43q-14 0 -13.5 -2t-13.5 2 q-51 -98 -141 -153.5t-201 -55.5q-82 0 -153.5 33t-124 87t-82 127t-29.5 153zM94 322q0 -43 15.5 -82t43 -69t64.5 -47.5t80 -17.5q53 0 99 28t75 75q-37 39 -58.5 87t-21.5 103q0 25 4 51.5t15 51.5q-49 37 -113 37q-43 0 -81 -18.5t-64.5 -48.5t-42 -68.5t-15.5 -81.5z M129 1026q0 39 29.5 65.5t66.5 26.5q47 0 76 -37l-4 4q10 -10 16 -19t15 -19q14 -16 26.5 -29.5t30.5 -30.5q37 -31 68 -51q16 -10 30.5 -22.5t28.5 -22.5q39 -33 39 -72t-26.5 -65.5t-65.5 -26.5q-20 0 -74.5 38t-111 89t-100.5 100.5t-44 71.5z" />
<glyph unicode="&#xf3;" horiz-adv-x="819" d="M-92 322q0 80 29.5 152.5t82 126.5t124 87t153.5 33t153.5 -33t124 -87t82 -127t29.5 -152v-5q18 4 28.5 16.5t20.5 24.5q16 23 33.5 39.5t52.5 16.5q39 0 65.5 -25.5t26.5 -64.5v-13q0 -8 -4 -16v-2q-35 -76 -100.5 -119t-142.5 -43q-14 0 -13.5 -2t-13.5 2 q-51 -98 -141 -153.5t-201 -55.5q-82 0 -153.5 33t-124 87t-82 127t-29.5 153zM94 322q0 -43 15.5 -82t43 -69t64.5 -47.5t80 -17.5q53 0 99 28t75 75q-37 39 -58.5 87t-21.5 103q0 25 4 51.5t15 51.5q-49 37 -113 37q-43 0 -81 -18.5t-64.5 -48.5t-42 -68.5t-15.5 -81.5z M106 825q0 41 37 72l50 37q35 27 66.5 51.5t57.5 52.5q6 6 11.5 14.5t11.5 14.5l9 9t11 14q29 35 74 34q37 0 65.5 -26.5t28.5 -65.5q0 -12 -20.5 -39.5t-52 -60.5t-70.5 -69t-75 -64.5t-65.5 -47t-43.5 -18.5q-37 0 -66 26.5t-29 65.5z" />
<glyph unicode="&#xf4;" horiz-adv-x="819" d="M-92 322q0 80 29.5 152.5t82 127.5t124 88t153.5 33t153.5 -33t124 -88t82 -128t29.5 -152v-5q18 4 28.5 16.5t20.5 24.5q16 23 33.5 39.5t52.5 16.5q39 0 65.5 -25.5t26.5 -64.5v-13q0 -8 -4 -16v-2q-35 -76 -100.5 -119t-142.5 -43q-14 0 -13.5 -2t-13.5 2 q-51 -98 -141 -153.5t-201 -55.5q-82 0 -153.5 33t-124 87t-82 127t-29.5 153zM16 852q0 37 25 64.5t45 46.5q2 0 6 4q47 45 84 94q8 10 19.5 25.5t27 29.5t33.5 24.5t41 10.5q29 0 59 -25q18 -16 31.5 -34.5t28.5 -38.5q4 -4 11 -14.5t17 -20.5q12 -18 24.5 -31.5 t25.5 -23.5q12 -12 27.5 -25.5t27.5 -28.5q10 -10 16 -25.5t6 -31.5q0 -39 -26.5 -65.5t-65.5 -26.5q-16 0 -38.5 15.5t-46 38t-47 49t-42.5 48.5q-8 8 -8 11q-23 -25 -51.5 -53.5t-56 -52t-49 -40t-29.5 -16.5q-37 0 -66 26.5t-29 65.5zM94 322q0 -43 15.5 -82t42 -69 t64.5 -47.5t81 -17.5q53 0 99 28t75 75q-37 39 -58.5 87t-21.5 103q0 23 4 52.5t15 52.5q-47 35 -113 35q-43 0 -81 -18.5t-64.5 -48.5t-42 -68.5t-15.5 -81.5z" />
<glyph unicode="&#xf5;" horiz-adv-x="819" d="M-92 322q0 80 29.5 152.5t82 126.5t124 87t153.5 33t153.5 -33t124 -87t82 -127t29.5 -152v-5q18 4 28.5 16.5t20.5 24.5q16 23 33.5 39.5t52.5 16.5q39 0 65.5 -25.5t26.5 -64.5v-13q0 -8 -4 -16v-2q-35 -76 -100.5 -119t-142.5 -43q-14 0 -13.5 -2t-13.5 2 q-51 -98 -141 -153.5t-201 -55.5q-82 0 -153.5 33t-124 87t-82 127t-29.5 153zM20 891q0 20 28 55t66 66.5t75.5 55.5t58.5 24q66 0 104.5 -34t67.5 -75q20 -31 33 -41q6 4 10 9t12 12v-2q29 25 56.5 48t58.5 23q39 0 65.5 -26.5t26.5 -65.5q0 -20 -27.5 -52t-64.5 -62.5 t-73 -52t-54 -21.5q-37 0 -66.5 11t-53.5 29.5t-42 40t-33 41.5q-18 16 -20 27q-4 -4 -10.5 -11t-12.5 -16q-25 -29 -50 -52t-60 -23q-37 0 -66 26.5t-29 65.5zM94 322q0 -43 15.5 -82t43 -69t64.5 -47.5t80 -17.5q53 0 99 28t75 75q-37 39 -58.5 87t-21.5 103q0 25 4 51.5 t15 51.5q-47 35 -113 35q-43 0 -81 -17.5t-64.5 -47.5t-42 -68.5t-15.5 -81.5z" />
<glyph unicode="&#xf6;" horiz-adv-x="819" d="M-92 319q0 80 29.5 153t82 128t124 88t153.5 33t153.5 -33t124 -88t82 -128t29.5 -153v-2q18 4 28.5 16.5t20.5 22.5q16 23 33.5 39.5t52.5 16.5q39 0 65.5 -25.5t26.5 -64.5v-13q0 -8 -4 -16v-2q-35 -76 -100.5 -118t-142.5 -42q-14 0 -13.5 -2t-13.5 2 q-51 -98 -141 -153.5t-201 -55.5q-82 0 -153.5 32t-124 87t-82 127t-29.5 151zM10 915q0 59 44 99.5t102 40.5q35 0 64.5 -15.5t47.5 -42.5q20 27 51 42.5t66 15.5q59 0 100 -40.5t41 -99.5t-41 -99t-100 -40q-35 0 -65.5 15.5t-51.5 42.5q-18 -27 -48 -42.5t-64 -15.5 q-57 0 -101.5 40t-44.5 99zM94 319q0 -43 15.5 -81.5t43 -67.5t64.5 -46.5t80 -17.5q53 0 99 28t75 75q-37 37 -58.5 85t-21.5 103q0 23 4 52.5t15 52.5q-47 35 -113 35q-43 0 -81 -18.5t-64.5 -48.5t-42 -69t-15.5 -82z" />
<glyph unicode="&#xf7;" d="M35 371q0 47 32.5 79.5t79.5 32.5h555q47 0 80 -32.5t33 -79.5t-32.5 -80t-80.5 -33h-555q-47 0 -79.5 33t-32.5 80zM283 670q0 55 44 97t99 42t98 -42t43 -97q0 -57 -41 -100.5t-100 -43.5q-57 0 -100 43t-43 101zM287 70q0 59 41 100t100 41t100 -41t41 -100 q0 -55 -43 -98.5t-98 -43.5t-98 43t-43 99z" />
<glyph unicode="&#xf9;" horiz-adv-x="968" d="M-92 315q0 18 15.5 58.5t31.5 81.5q4 12 9 25.5t9 23.5q6 12 11 24q2 4 4 11.5t6 29.5v-2q8 31 15 61.5t30 53.5q27 27 67 27q43 0 67 -31t24 -66v-372q0 -66 53 -101t115 -35q33 0 57 19.5t40.5 49.5t25 65.5t8.5 68.5v305q0 39 28.5 66t65.5 27q39 0 65.5 -27t26.5 -66 v-413v-29q0 -16 2 -30.5t6 -25t10 -10.5q18 0 40 21.5t43.5 52.5t41 62.5t29.5 50.5q4 8 8 15t8 18l-4 -7q4 14 10.5 24.5t14.5 23.5q31 43 80 43q37 0 65.5 -26t28.5 -65q0 -14 -6 -26v-4q-20 -45 -57 -107.5t-84.5 -120t-102.5 -97.5t-115 -40q-100 0 -153 70 q-39 -33 -84 -51.5t-98 -18.5q-66 0 -128.5 20.5t-111.5 59.5t-81 94.5t-34 126.5h-8q-37 0 -65.5 26.5t-28.5 65.5zM129 1026q0 39 29.5 65.5t66.5 26.5q47 0 76 -37l-4 4q10 -10 16 -19t15 -19q14 -16 26.5 -29.5t30.5 -30.5q37 -31 68 -51q16 -10 30.5 -22.5t28.5 -22.5 q39 -33 39 -72t-26.5 -65.5t-65.5 -26.5q-20 0 -74.5 38t-111 89t-100.5 100.5t-44 71.5z" />
<glyph unicode="&#xfa;" horiz-adv-x="968" d="M-92 315q0 18 15.5 58.5t31.5 81.5q4 12 9 25.5t9 23.5q6 12 11 24q2 4 4 11.5t6 29.5v-2q8 31 15 61.5t30 53.5q27 27 67 27q43 0 67 -31t24 -66v-372q0 -66 53 -101t115 -35q33 0 57 19.5t40.5 49.5t25 65.5t8.5 68.5v305q0 39 28.5 66t65.5 27q39 0 65.5 -27t26.5 -66 v-413v-29q0 -16 2 -30.5t6 -25t10 -10.5q18 0 40 21.5t43.5 52.5t41 62.5t29.5 50.5q4 8 8 15t8 18l-4 -7q4 14 10.5 24.5t14.5 23.5q31 43 80 43q37 0 65.5 -26t28.5 -65q0 -14 -6 -26v-4q-20 -45 -57 -107.5t-84.5 -120t-102.5 -97.5t-115 -40q-100 0 -153 70 q-39 -33 -84 -51.5t-98 -18.5q-66 0 -128.5 20.5t-111.5 59.5t-81 94.5t-34 126.5h-8q-37 0 -65.5 26.5t-28.5 65.5zM121 825q0 41 37 72l49 37q35 27 66.5 51.5t58.5 52.5q6 6 11 14.5t11 14.5q4 4 9.5 9t11.5 14q29 35 74 34q37 0 65.5 -26.5t28.5 -65.5 q0 -12 -20.5 -39.5t-52.5 -60.5t-71 -69t-74.5 -64.5t-65.5 -47t-44 -18.5q-37 0 -65.5 26.5t-28.5 65.5z" />
<glyph unicode="&#xfb;" horiz-adv-x="968" d="M-92 315q0 18 15.5 58.5t31.5 81.5q4 12 9 25.5t9 23.5q6 12 11 24q2 4 4 11.5t6 29.5v-2q8 31 15 61.5t30 53.5q27 27 67 27q43 0 67 -31t24 -66v-372q0 -66 53 -101t115 -35q33 0 57 19.5t40.5 49.5t25 65.5t8.5 68.5v305q0 39 28.5 66t65.5 27q39 0 65.5 -27t26.5 -66 v-413v-29q0 -16 2 -30.5t6 -25t10 -10.5q18 0 40 21.5t43.5 52.5t41 62.5t29.5 50.5q4 8 8 15t8 18l-4 -7q4 14 10.5 24.5t14.5 23.5q31 43 80 43q37 0 65.5 -26t28.5 -65q0 -14 -6 -26v-4q-20 -45 -57 -107.5t-84.5 -120t-102.5 -97.5t-115 -40q-100 0 -153 70 q-39 -33 -84 -51.5t-98 -18.5q-66 0 -128.5 20.5t-111.5 59.5t-81 94.5t-34 126.5h-8q-37 0 -65.5 26.5t-28.5 65.5zM59 852q0 37 25 64.5t45 46.5q2 0 6 4q47 45 84 94q8 10 19.5 25.5t27 29.5t33.5 24.5t41 10.5q29 0 59 -25q18 -16 31.5 -34.5t28.5 -38.5q4 -4 11 -14.5 t17 -20.5q12 -18 24.5 -31.5t25.5 -23.5q12 -12 27.5 -25.5t27.5 -28.5q10 -10 16 -25.5t6 -31.5q0 -39 -26.5 -65.5t-65.5 -26.5q-16 0 -38.5 15.5t-46 38t-47 49t-42.5 48.5q-8 8 -8 11q-23 -25 -51.5 -53.5t-56 -52t-49 -40t-29.5 -16.5q-37 0 -66 26.5t-29 65.5z" />
<glyph unicode="&#xfc;" horiz-adv-x="968" d="M-92 315q0 18 15.5 58.5t31.5 81.5q4 12 9 25.5t9 23.5q6 12 11 24q2 4 4 11.5t6 29.5v-2q8 31 15 61.5t30 53.5q27 27 67 27q43 0 67 -31t24 -66v-372q0 -66 53 -101t115 -35q33 0 57 19.5t40.5 49.5t25 65.5t8.5 68.5v305q0 39 28.5 66t65.5 27q39 0 65.5 -27t26.5 -66 v-413v-29q0 -16 2 -30.5t6 -25t10 -10.5q18 0 40 21.5t43.5 52.5t41 62.5t29.5 50.5q4 8 8 15t8 18l-4 -7q4 14 10.5 24.5t14.5 23.5q31 43 80 43q37 0 65.5 -26t28.5 -65q0 -14 -6 -26v-4q-20 -45 -57 -107.5t-84.5 -120t-102.5 -97.5t-115 -40q-100 0 -153 70 q-39 -33 -84 -51.5t-98 -18.5q-66 0 -128.5 20.5t-111.5 59.5t-81 94.5t-34 126.5h-8q-37 0 -65.5 26.5t-28.5 65.5zM84 915q0 59 43 99.5t100 40.5q35 0 65 -15.5t50 -42.5q20 27 51 42.5t66 15.5q59 0 100 -40.5t41 -99.5t-41 -99t-100 -40q-35 0 -66 15.5t-51 42.5 q-20 -27 -50 -42.5t-65 -15.5q-57 0 -100 40t-43 99z" />
<glyph unicode="&#x152;" horiz-adv-x="2156" d="M-92 901q0 133 21.5 264t67.5 250t119.5 220.5t178.5 172.5q10 4 25.5 9.5t25.5 5.5q43 0 70 -41q53 53 124.5 81.5t159.5 28.5q139 0 245 -74.5t183 -191.5q23 127 109 207t209 80q35 0 62.5 -26.5t31.5 -65.5q63 45 135 68.5t146 23.5q111 0 180.5 -67.5t69.5 -198.5 q0 -70 -24 -126.5t-63.5 -100.5t-93 -77.5t-110.5 -56.5q47 -16 84 -52t37 -91q0 -47 -19.5 -82t-50.5 -58.5t-66.5 -35t-68.5 -11.5q-63 0 -107.5 21.5t-91.5 58.5q-86 -59 -137 -154.5t-51 -213.5q0 -100 27.5 -198.5t77.5 -177.5t123 -128t165 -49q45 0 92 21.5t86 58 t62.5 87t23.5 105.5q0 27 -12 49.5t-31 22.5q-25 0 -31 -7.5t-8 -15.5q-10 -29 -23.5 -48t-58.5 -19q-47 0 -73.5 37.5t-26.5 78.5t24.5 73t59.5 53.5t72.5 32.5t64.5 11q49 0 91 -22.5t73 -59t48 -85t17 -101.5q0 -100 -39.5 -186t-103 -148.5t-144.5 -98.5t-163 -36 q-86 0 -164 31t-143.5 84t-116.5 124.5t-88 155.5q-45 -88 -103.5 -160.5t-129 -125t-155.5 -81t-181 -28.5q-182 0 -316.5 85t-222.5 223.5t-131 315.5t-43 359zM94 901q0 -143 31 -283.5t95.5 -252t162.5 -181t235 -69.5q123 0 220.5 69.5t164 178t102.5 243.5t36 266 q0 90 -8.5 173t-30.5 165q-18 82 -54 167t-87.5 155t-117 115t-143.5 45q-63 0 -111 -27t-81 -74t-49.5 -110.5t-16.5 -134.5q0 -23 9.5 -42.5t23.5 -19.5q8 0 14.5 13.5t10.5 33t5 40t1 36.5q0 41 28.5 69.5t65.5 28.5q39 0 65.5 -28.5t26.5 -69.5q0 -49 -13 -105.5 t-40 -103.5t-68 -79t-96 -32q-49 0 -89 21.5t-68.5 57.5t-45 83.5t-16.5 96.5q0 104 25 196q-55 -59 -91 -136t-57.5 -162t-30 -173t-8.5 -170zM1284 1253q14 -53 25 -108q14 14 28.5 25.5t30.5 21.5q-8 13 -14 33q-18 4 -36 11t-34 17zM1309 1550q0 -47 20 -82 q6 72 31.5 133.5t66.5 112.5q-53 -6 -85.5 -51t-32.5 -113zM1518 1421q51 6 114.5 22.5t119.5 43t94 67t38 93.5q0 70 -63 69q-59 0 -114.5 -27.5t-100.5 -74.5q-76 -86 -88 -193z" />
<glyph unicode="&#x153;" horiz-adv-x="1333" d="M-92 315q0 80 29.5 153t82 126t123 85t152.5 32q88 0 166 -38t133 -104q66 72 157 107t189 35q49 0 105.5 -16.5t104.5 -49.5t80 -79t32 -105q0 -72 -39 -125t-97.5 -88t-126 -52.5t-125.5 -17.5q-37 0 -72.5 2t-72.5 6q53 -82 158 -82q98 0 177 40t132 122 q10 14 16.5 24.5t10.5 18.5q6 14 15 29.5t17 28.5q31 41 76 41q35 0 65.5 -26t30.5 -65v-12t-4 -16v-2q-78 -174 -213 -269.5t-323 -95.5q-92 0 -167 33t-128 104q-53 -72 -129 -104.5t-168 -32.5q-82 0 -152.5 31t-123 85t-82 126t-29.5 151zM94 315q0 -43 15.5 -80.5 t43 -66.5t63.5 -46.5t79 -17.5t80 17.5t64.5 46.5t44 66.5t16.5 80.5t-15.5 82t-43 68t-65.5 46t-81 17t-79 -17t-63.5 -47t-43 -68t-15.5 -81zM530 313l21 -45l47 47l-33 33zM696 381q41 -10 89.5 -14.5t88.5 -4.5q25 0 60 5.5t65.5 17.5t53 30.5t22.5 45.5q0 14 -14 27.5 t-35.5 21.5t-45.5 13t-40 5q-80 0 -148.5 -37.5t-95.5 -109.5z" />
<glyph unicode="&#x2c6;" horiz-adv-x="1179" d="M254 961q0 35 25.5 62.5t46.5 43.5l4 4q33 31 52 51.5t34 36.5q16 23 46 52.5t70 29.5q27 0 62 -22q10 -10 21.5 -24.5t21.5 -25.5v2q39 -43 75 -82.5t68 -68.5q29 -28 29 -59q0 -41 -28.5 -65t-65.5 -24q-14 0 -37 13.5t-49.5 35t-52 45t-46.5 46.5q-20 -23 -46.5 -46.5 t-52 -45t-48.5 -35t-37 -13.5q-39 0 -65.5 24t-26.5 65z" />
<glyph unicode="&#x2dc;" horiz-adv-x="1179" d="M31 1073v21q0 10 8 20q29 59 83 100t126 41q66 0 113 -24.5t92 -52.5q33 -23 64.5 -40.5t64.5 -17.5q37 0 59 39v-2q27 47 82 47q35 0 65.5 -23.5t30.5 -66.5q0 -37 -26.5 -68.5t-64.5 -54t-79 -35t-67 -12.5q-74 0 -131.5 28.5t-104.5 59.5h2q-29 18 -54.5 32.5 t-45.5 14.5q-6 0 -14.5 -11t-18.5 -21v2q-16 -25 -35.5 -44.5t-54.5 -19.5q-37 0 -65.5 23.5t-28.5 64.5z" />
<glyph unicode="&#x2000;" horiz-adv-x="986" />
<glyph unicode="&#x2001;" horiz-adv-x="1972" />
<glyph unicode="&#x2002;" horiz-adv-x="986" />
<glyph unicode="&#x2003;" horiz-adv-x="1972" />
<glyph unicode="&#x2004;" horiz-adv-x="657" />
<glyph unicode="&#x2005;" horiz-adv-x="493" />
<glyph unicode="&#x2006;" horiz-adv-x="328" />
<glyph unicode="&#x2007;" horiz-adv-x="328" />
<glyph unicode="&#x2008;" horiz-adv-x="246" />
<glyph unicode="&#x2009;" horiz-adv-x="394" />
<glyph unicode="&#x200a;" horiz-adv-x="109" />
<glyph unicode="&#x2010;" d="M119 352q0 49 31.5 63.5t60.5 14.5h547q14 0 30.5 -3t31 -11t23.5 -23.5t9 -40.5t-9 -40t-23.5 -23t-31 -11.5t-30.5 -3.5h-547q-29 0 -60.5 14.5t-31.5 63.5z" />
<glyph unicode="&#x2011;" d="M119 352q0 49 31.5 63.5t60.5 14.5h547q14 0 30.5 -3t31 -11t23.5 -23.5t9 -40.5t-9 -40t-23.5 -23t-31 -11.5t-30.5 -3.5h-547q-29 0 -60.5 14.5t-31.5 63.5z" />
<glyph unicode="&#x2012;" d="M119 352q0 49 31.5 63.5t60.5 14.5h547q14 0 30.5 -3t31 -11t23.5 -23.5t9 -40.5t-9 -40t-23.5 -23t-31 -11.5t-30.5 -3.5h-547q-29 0 -60.5 14.5t-31.5 63.5z" />
<glyph unicode="&#x2013;" d="M59 352q0 41 27 67.5t66 26.5h667q37 0 65.5 -26.5t28.5 -67.5q0 -39 -26.5 -65.5t-67.5 -26.5h-667q-39 0 -66 26.5t-27 65.5z" />
<glyph unicode="&#x2014;" horiz-adv-x="1458" d="M201 352q0 41 26.5 67.5t65.5 26.5h870q37 0 65.5 -26.5t28.5 -67.5t-26.5 -66.5t-67.5 -25.5h-870q-39 0 -65.5 26.5t-26.5 65.5z" />
<glyph unicode="&#x2018;" horiz-adv-x="231" d="M-43 1210q0 20 16.5 65.5t42 91.5t55 81t58.5 35q35 0 65.5 -26.5t30.5 -65.5q0 -27 -32 -72q-16 -25 -33 -56.5t-17 -52.5q0 -8 8.5 -21t14.5 -24v2q10 -14 16 -29.5t6 -29.5q0 -39 -30.5 -64.5t-65.5 -25.5q-31 0 -55.5 22.5t-42 53t-27.5 63.5t-10 53z" />
<glyph unicode="&#x2019;" horiz-adv-x="405" d="M0 1100q0 14 10 34.5t23 41.5q16 25 32.5 56.5t16.5 49.5q0 8 -7 21.5t-14 23.5v-2q-10 14 -17 25.5t-7 33.5q0 39 28.5 66t65.5 27q29 0 53.5 -22.5t43 -54.5t29.5 -65t11 -53t-17.5 -65.5t-44 -91.5t-56 -80.5t-56.5 -34.5q-37 0 -65.5 25.5t-28.5 64.5z" />
<glyph unicode="&#x201a;" horiz-adv-x="231" d="M-43 1210q0 20 16.5 65.5t42 91.5t55 81t58.5 35q35 0 65.5 -26.5t30.5 -65.5q0 -27 -32 -72q-16 -25 -33 -56.5t-17 -52.5q0 -8 8.5 -21t14.5 -24v2q10 -14 16 -29.5t6 -29.5q0 -39 -30.5 -64.5t-65.5 -25.5q-31 0 -55.5 22.5t-42 53t-27.5 63.5t-10 53z" />
<glyph unicode="&#x201c;" horiz-adv-x="458" d="M-8 1208q0 20 16.5 65.5t42 91.5t55 82t58.5 36q49 0 80 -43q37 43 63 43q35 0 65.5 -25.5t30.5 -64.5q0 -16 -9 -34t-23 -40q-16 -27 -34 -57.5t-18 -53.5q0 -8 8.5 -21t14.5 -24v2q10 -14 16.5 -29.5t6.5 -29.5q0 -39 -29 -64.5t-66 -25.5q-18 0 -34.5 9t-32.5 26 q-29 -35 -74 -35q-29 0 -53.5 22.5t-43 53t-29.5 63.5t-11 53z" />
<glyph unicode="&#x201d;" horiz-adv-x="391" d="M-20 1112q0 14 10 34.5t22 41.5q16 25 32.5 56.5t16.5 49.5q0 8 -7 21.5t-13 23.5v-2q-10 14 -17.5 25.5t-7.5 34.5q0 39 29 64.5t66 25.5q18 0 34.5 -10.5t30.5 -26.5q27 37 76 37q27 0 52.5 -22.5t45 -53.5t30.5 -64t11 -53t-17.5 -65t-44 -91t-56 -82t-56.5 -36 q-53 0 -80 43q-37 -43 -63 -43q-37 0 -65.5 26.5t-28.5 65.5z" />
<glyph unicode="&#x2022;" horiz-adv-x="491" d="M51 1262q0 45 17.5 80.5t47 61.5t67.5 40t79 14t79 -14t67.5 -40t48 -61.5t18.5 -80.5t-18.5 -82t-48 -62.5t-67.5 -40t-79 -14.5t-79 14.5t-67.5 40t-47 62.5t-17.5 82zM238 1262q0 -10 7 -15.5t17 -5.5t18.5 5.5t8.5 15.5q0 8 -8.5 13t-18.5 5t-17 -5t-7 -13z" />
<glyph unicode="&#x2026;" horiz-adv-x="782" d="M-16 66q0 59 46 94t97 35q35 0 69.5 -18.5t55.5 -49.5q20 33 57 50.5t72 17.5q33 0 65.5 -16.5t55.5 -45.5q20 29 53 45.5t68 16.5q25 0 50 -9.5t46.5 -27t35 -40.5t13.5 -52t-13.5 -53.5t-35 -41t-47 -25.5t-49.5 -9q-35 0 -68 16t-53 45q-23 -29 -55.5 -45t-65.5 -16 q-35 0 -72 17t-57 50q-20 -31 -55 -49t-70 -18q-51 0 -97 34.5t-46 94.5z" />
<glyph unicode="&#x202f;" horiz-adv-x="394" />
<glyph unicode="&#x2039;" horiz-adv-x="968" d="M152 719q0 14 2 29.5t18 31.5l-4 -6q74 98 148.5 193.5t148.5 193.5q27 37 74 37q35 0 65.5 -26.5t30.5 -65.5q0 -35 -25 -59l4 6q-70 -90 -129 -167t-129 -167q66 -84 129.5 -165t126.5 -165q23 -34 23 -59q0 -39 -31 -65.5t-65 -26.5q-43 0 -74 36l-297 390l4 -7 q-16 16 -18 32t-2 30z" />
<glyph unicode="&#x203a;" horiz-adv-x="968" d="M336 338q0 39 22 61l-4 -6q70 90 129.5 166t128.5 166q-66 84 -130 167t-128 167l4 -6q-23 23 -22 61q0 39 28.5 65.5t65.5 26.5q45 0 74 -37l299 -389l-4 6q22 -22 22 -61q0 -10 -4 -24.5t-14 -28.5l-299 -391q-29 -35 -74 -35q-37 0 -65.5 26.5t-28.5 65.5z" />
<glyph unicode="&#x205f;" horiz-adv-x="493" />
<glyph unicode="&#x20ac;" horiz-adv-x="1601" d="M-4 907q0 39 22.5 63.5t61.5 28.5q35 4 51 6.5t51 6.5q33 135 103.5 250.5t170 200.5t225.5 134.5t271 49.5q68 0 140.5 -15.5t142.5 -43t133.5 -67.5t110.5 -89q27 -29 26 -62q0 -37 -28.5 -66.5t-65.5 -29.5q-33 0 -61 22h2q-49 39 -94.5 70t-91.5 52.5t-98 32.5 t-116 11q-102 0 -190 -32.5t-161 -91t-128 -136.5t-88 -170q190 23 375.5 42.5t376.5 41.5q41 0 70.5 -25.5t29.5 -66.5q0 -39 -24.5 -63.5t-59.5 -28.5q-207 -23 -404.5 -46.5t-406.5 -45.5q-2 -10 -2 -27v-25q207 23 411.5 45.5t411.5 45.5q41 0 71 -26t30 -67 q0 -39 -25 -63.5t-59 -28.5q-215 -23 -408.5 -45t-409.5 -45q25 -104 78.5 -196.5t129 -161t173 -108.5t207.5 -40q135 0 254 59.5t199 170.5q4 6 10 11t6 11q6 6 15 19l8 12l-4 -4q29 35 75 35q37 0 66 -27t29 -66q0 -27 -17 -51q-53 -80 -123.5 -145.5t-153.5 -111.5 t-176.5 -71.5t-187.5 -25.5q-147 0 -273 53t-224.5 143.5t-165 212t-92.5 259.5q-31 -6 -64 -7q-43 0 -77 18.5t-34 76.5q0 39 23 63.5t61 28.5l50 4v51q-16 -2 -33 -2h-33q-39 0 -65.5 25.5t-26.5 66.5z" />
<glyph unicode="&#xe000;" horiz-adv-x="706" d="M0 0v707h707v-707h-707z" />
</font>
</defs>
</svg>
